/* XPM */
static char *yamada_5[] = {
/* columns rows colors chars-per-pixel */
"32 37 206 2 ",
"   c #433446",
".  c #463649",
"X  c #4B3B4D",
"o  c #583F4C",
"O  c #4C3D50",
"+  c #523E51",
"@  c #54444A",
"#  c #534254",
"$  c #584557",
"%  c #5B4A54",
"&  c #5B4559",
"*  c #5F4A5B",
"=  c #66544C",
"-  c #62475D",
";  c #624A5D",
":  c #6B4B5E",
">  c #6C4459",
",  c #65555C",
"<  c #7B4857",
"1  c #77625A",
"2  c #744C61",
"3  c #6A5861",
"4  c #775963",
"5  c #6E616A",
"6  c #766466",
"7  c #766A73",
"8  c #AC4E2A",
"9  c #BA552F",
"0  c #A45735",
"q  c #B25E3D",
"w  c #AC633F",
"e  c #BC633A",
"r  c #C85E35",
"t  c #C8643C",
"y  c #C5673E",
"u  c #D4653D",
"i  c #D9663E",
"p  c #AF6642",
"a  c #B36745",
"s  c #A66F54",
"d  c #BC7B5A",
"f  c #BE7648",
"g  c #844A60",
"h  c #835165",
"j  c #95566B",
"k  c #A7586F",
"l  c #AB5B73",
"z  c #B25E76",
"x  c #B95F77",
"c  c #826D67",
"v  c #85746E",
"b  c #967F6D",
"n  c #807373",
"m  c #8A7A75",
"M  c #917C72",
"N  c #AE6075",
"B  c #A87076",
"V  c #C36D43",
"C  c #D46A41",
"Z  c #C37146",
"A  c #C67549",
"S  c #C17C4C",
"D  c #D5734C",
"F  c #C07E6B",
"G  c #C3747C",
"H  c #C4647D",
"J  c #BE815C",
"K  c #8F807A",
"L  c #998479",
"P  c #978373",
"I  c #BE8F6F",
"U  c #AF947E",
"Y  c #A38C7B",
"T  c #C68757",
"R  c #CC955D",
"E  c #D2975E",
"W  c #C68B67",
"Q  c #D39E62",
"!  c #DD8D7C",
"~  c #CA9776",
"^  c #C6997D",
"/  c #CC9C7E",
"(  c #D6A064",
")  c #887D83",
"_  c #CB6881",
"`  c #CC6681",
"'  c #DA6A87",
"]  c #DE6C89",
"[  c #D26984",
"{  c #DC768D",
"}  c #DC7A8E",
"|  c #D27384",
" . c #DE7B91",
".. c #C57C83",
"X. c #E76F8E",
"o. c #E86F8F",
"O. c #E4728E",
"+. c #E8708F",
"@. c #E17991",
"#. c #E57390",
"$. c #998680",
"%. c #978B8B",
"&. c #988A87",
"*. c #9F9188",
"=. c #988F92",
"-. c #9B9190",
";. c #A38F82",
":. c #AA9684",
">. c #AF9C8C",
",. c #A5958D",
"<. c #B89C85",
"1. c #A99B93",
"2. c #A49B9B",
"3. c #A29795",
"4. c #B7A08D",
"5. c #BBA28D",
"6. c #BCA896",
"7. c #B9A799",
"8. c #A9A1A1",
"9. c #B4ADAB",
"0. c #B5ACA6",
"q. c #BFB8B3",
"w. c #C58587",
"e. c #D1848A",
"r. c #DC808F",
"t. c #C69D83",
"y. c #D78290",
"u. c #DD8495",
"i. c #DC8C94",
"p. c #DC8B9A",
"a. c #DC8798",
"s. c #DB939C",
"d. c #DC9A9A",
"f. c #D99698",
"g. c #CD948C",
"h. c #E08C9A",
"j. c #CDA386",
"k. c #CAA489",
"l. c #C7AF9B",
"z. c #C6A995",
"x. c #D3A991",
"c. c #CBB19A",
"v. c #D7B698",
"b. c #D5A58E",
"n. c #DA9AA3",
"m. c #D79AA2",
"M. c #DBA2A1",
"N. c #DCA6AA",
"B. c #D5ABAB",
"V. c #DCACAE",
"C. c #D5A7A3",
"Z. c #CCB9A5",
"A. c #CAB3A5",
"S. c #D7B8A9",
"D. c #DEABB0",
"F. c #C9BCB6",
"G. c #DBBCBA",
"H. c #D8B8B6",
"J. c #E0BAB7",
"K. c #DBC3AD",
"L. c #D5C0AB",
"P. c #CFC1B5",
"I. c #CDC3BC",
"U. c #DAC6B3",
"Y. c #DCC9B4",
"T. c #D5C5BD",
"R. c #DCC3BD",
"E. c #DBCBBB",
"W. c #D4C6B7",
"Q. c #E3C2AE",
"!. c #E1CBB5",
"~. c #E3CDBB",
"^. c #E5D1BE",
"/. c #E8D2BF",
"(. c #CAC5C1",
"). c #CFCAC7",
"_. c #DDC5C3",
"`. c #D4CCC4",
"'. c #D9CEC4",
"]. c #D4CFC9",
"[. c #DFCECA",
"{. c #DDD1C7",
"}. c #DDD4CC",
"|. c #DBD6D1",
" X c #DEDAD4",
".X c #DFDFDC",
"XX c #E1C6C2",
"oX c #E2CCC5",
"OX c #E2CFCB",
"+X c #E4D1C2",
"@X c #EAD6C3",
"#X c #ECD8C6",
"$X c #E2D5CB",
"%X c #E3D9CF",
"&X c #ECD9C8",
"*X c #E1D6D1",
"=X c #E3DBD4",
"-X c #E9DED5",
";X c #E1DED9",
":X c #E4E2DD",
">X c #EBE5DD",
",X c #EDE8DF",
"<X c #E7E0D7",
"1X c #E7E5E1",
"2X c #E9E6E1",
"3X c #ECE8E1",
/* pixels */
"' o.o.o.o.X.X.X.o.o.o.+.] z h 2 - : 2 j _ X.X.X.X.X.+.X.X.X.X.X.",
"' +.o.o.o.X.o.X.o.o.o.[ j : - - - ; ; - 2 l ] X.X.X.X.+.X.X.X.X.",
"' +.o.o.o.X.X.X.o.o.] j - - & - * & * * * : l o.X.X.X.+.X.X.X.X.",
"' o.o.o.X.X.X.X.O.O.z ; * $ $ $ & & & & & , h G X.X.X.X.X.X.X.X.",
"' o.X.o.X.X.X.X.o.X.j * * # # # # & $ # # $ * j ] o.X.o.X.X.X.X.",
"' o.X.X.X.o.X.X.o.[ 2 # # + # # # + # $ # + # > ` o.X.o.+.X.X.X.",
"' X.X.X.o.o.X.X.o.x # X X O , @ O O X 3 3 * # + z +.o.o.o.o.+.O.",
"' X.X.X.X.o.o.O.o.k X . X # v 6 O . % L L c X X k +.o.o.o.o. .B.",
"' X.X.X.X.X.X.X.o.j     # M 4.Y % % P z.5.Y > X k +.X.X.X.o.N.}.",
"' X.X.X.X.X.X.X.X.g     6 :.:.P >.S.Y.<.P >.c o x +.X.X.X.{ _. X",
"' +.X.X.X.X.X.X.O.>     ;.Z.1.c U.#X#X,.M '.M < X.X.X.X.X.u.|.1X",
"' X.X.X.X.X.X.X.H : X X z.+XF.1.+X#X#XY.F.^.M B X.X.X.X.X.p.;X1X",
"' +.X.X.+.X.X.O.g.F.5 3 l.+X#X#X#X#X/.#X#X/.L F.y.X.X.X.#.G.1X1X",
"' +.X.X.X.X.+.a.$X).5 ) W.E.#X#X~.Q.S.Y.#XU.3.;Xm.X.X.X.@.OX1X1X",
"' +.+.X.X.X.o.n.1X=X7 %.|.'.+X#Xb.! W c.+X$.8.2Xm.X.X.X.@._.1X1X",
"' +.X.X.X.+.o.n.:X2X) 3.}.;XE.W.Q.g.b.U.$.* (.;Xm.X.X.X.} G.1X1X",
"' o.X.X.o.o.X.V.>X,X=.-.|..X].*.U <.z.P.3 7 .X1Xm.O.O.O.m.I.1X1X",
"' o.X.X.X.o. .G.1X1X9.%.}. X=.@ = = 7 2.# 2..X1X_. .X.#._.)..X1X",
"[ +.X.X.X.o.h.'.;X3XI.-. X}.9.m 7.m `.$.3 q.>X2X-Xp.+.#._. X|.1X",
"' +.X.X.o.o.u.=X X:X X2.<X}.&.1.4.L 8.5 3.].2X2X<Xs.X.O.H.:X.X:X",
"' +.+.+.o.o.u.=X,X:X>X9.}.=Xv s Z W 7.7 T..X>X1X[. .X.#.G.1X:X;X",
"' +.o.o.o.o.u.=X>X1X3XI.`. X1 0 u D l.$.].<X,X:XC.X.+.@.OX1X2X;X",
"' +.X.o.o.o. .G.:X,X3X X'.<X6.0 t y ^ 1.A.H.=X'.f.O.+.u.*X1X1X:X",
"' o.X.X.o.o.o.} S. X:X:X=X,XoXw e T ~ 6.e.e.K.^.d.X.+.h.;X1X2X2X",
"' o.o.o.X.X.X.X.M.^.E.P.%X,X+Xq r Q W <.| h.@X@Xf.#.o.a. X.X X.X",
"' o.o.X.o.o.X.X.M.#X@XK.<X,XE.w 9 Q T c.e.i./.@Xf.X.o.y.`.|.;X:X",
"' o.X.o.X.X.X.X.d.@X@XY.%X=XK.k.d V A z.w.S.@X@Xs.o.o.s.=X1X1X1X",
"' X.X.o.X.X.X.X.i.+X#X~.E.U.!.K.t.u C t.x./.#X@Xi.o.X.N.:X1X1X1X",
"' X.X.X.X.X.X.o.r.~.#X&X#XY.!.K.j.i i b.Z.@X~.x.{ o.o.D.1X1X1X1X",
"' X.X.X.X.X.o.X.} c.~.~.^.K.v.v.S V V t.c.C.u.O.o.o.o.p.oX1X1X1X",
"' X.X.X.X.X.X.O.N.$X%X=X%XU.c.W 8 A R ^ Z.y.o.o.+.o.+.X.u.V.*X>X",
"' X.X.X.X.X.X.{ G.>X{.|.=X>X>XK.0 S Q g.}.m.O.o.o.o.+.X.+. .H.|.",
"' X.X.X.o.o.o.m.-X$X|.*X[.}.>X~.p f R k.}.$XV.@.+.+.+.+.X.m. X.X",
"' X.X.X.o.o.u.$X>X{.C.w.G B.E.!.a e Z x.}.<X<XG.@.+.+.X. .G..X.X",
"' +.X.X.o.{ D.,X<X$X..G G R.{.E.d t u 6.{.%X}.>XV.O.X.X.p.|..X.X",
"' +.X.X.o.s.-X3X>X{.G.C.B.{.<X,XZ.J ~ W. X,X=X>X-Xd.O.+.V..X.X.X",
"' +.X.X.#.G.,X,X,X<X}.{.T.}.,X,X,XE.}.<X'.{.'.:X,X~.@. ._..X.X1X"
};
