/* XPM */
static char *yamada_23[] = {
/* columns rows colors chars-per-pixel */
"32 37 207 2 ",
"   c #2D2332",
".  c #3F3141",
"X  c #423345",
"o  c #4C3B4D",
"O  c #453548",
"+  c #513A4D",
"@  c #4F3E50",
"#  c #643F53",
"$  c #56484D",
"%  c #5E514F",
"&  c #534254",
"*  c #5C4559",
"=  c #5F485C",
"-  c #594956",
";  c #644B5E",
":  c #694E5F",
">  c #65465B",
",  c #6A585B",
"<  c #6C5053",
"1  c #684F60",
"2  c #724C61",
"3  c #695161",
"4  c #6C5C61",
"5  c #735C66",
"6  c #765F69",
"7  c #7D6568",
"8  c #776A72",
"9  c #AB4B26",
"0  c #B14C2A",
"q  c #AC522C",
"w  c #A35F38",
"e  c #AE5A37",
"r  c #B55A35",
"t  c #AC623D",
"y  c #A5673E",
"u  c #CF5F38",
"i  c #C5663E",
"p  c #D2643B",
"a  c #DC653B",
"s  c #A96C4C",
"d  c #AB6944",
"f  c #BD6E43",
"g  c #AD714B",
"h  c #B16F54",
"j  c #BE7D50",
"k  c #B57553",
"l  c #B27852",
"z  c #8E4E65",
"x  c #8E5469",
"c  c #885B68",
"v  c #915867",
"b  c #AF5D74",
"n  c #B35E77",
"m  c #BA5E78",
"M  c #836D69",
"N  c #84726C",
"B  c #977F6D",
"V  c #867A7C",
"C  c #8A7F7B",
"Z  c #927A78",
"A  c #B76478",
"S  c #B57E73",
"D  c #C76D44",
"F  c #C5764C",
"G  c #C77654",
"H  c #D17A53",
"J  c #C3746E",
"K  c #C3657D",
"L  c #CD6975",
"P  c #D66576",
"I  c #8E817B",
"U  c #9A857B",
"Y  c #9D8778",
"T  c #A28C7E",
"R  c #B08E75",
"E  c #BD9375",
"W  c #C58656",
"Q  c #CC935C",
"!  c #C88868",
"~  c #D28A67",
"^  c #CC956A",
"/  c #D39E63",
"(  c #C18473",
")  c #DD8B7B",
"_  c #CF6783",
"`  c #D56985",
"'  c #DB6A87",
"]  c #DC6A88",
"[  c #D16783",
"{  c #DC768C",
"}  c #DD7A8D",
"|  c #D97887",
" . c #DE7C91",
".. c #CA7889",
"X. c #E76F8E",
"o. c #E86F8F",
"O. c #E5728E",
"+. c #E8708F",
"@. c #EA6F90",
"#. c #E57490",
"$. c #E97090",
"%. c #E17A91",
"&. c #8E8383",
"*. c #968887",
"=. c #9C9394",
"-. c #AB9385",
";. c #AA9585",
":. c #B49C8C",
">. c #BF9A8B",
",. c #BD9987",
"<. c #A39999",
"1. c #A99B97",
"2. c #AAA19D",
"3. c #BBA490",
"4. c #B8A89A",
"5. c #B9A08B",
"6. c #ACA3A0",
"7. c #B9ADA6",
"8. c #BEB3AC",
"9. c #BEB0A7",
"0. c #BEB7B5",
"q. c #C98685",
"w. c #D9868B",
"e. c #C09B8B",
"r. c #D49884",
"t. c #DC8494",
"y. c #D78E98",
"u. c #DB8B99",
"i. c #D98894",
"p. c #C39A92",
"a. c #D9959F",
"s. c #D89598",
"d. c #CB8892",
"f. c #D1A583",
"g. c #C5AB9B",
"h. c #C9A996",
"j. c #D8A891",
"k. c #CDB49C",
"l. c #C5B29F",
"z. c #D3B292",
"x. c #D3B29E",
"c. c #DAB89D",
"v. c #DA9AA3",
"b. c #DC95A0",
"n. c #C1ADA2",
"m. c #C8ABA6",
"M. c #DDA5A9",
"N. c #D8AAA7",
"B. c #CCB9A7",
"V. c #C5B8AA",
"C. c #DABBA4",
"Z. c #D4BEAB",
"A. c #D6BAA6",
"S. c #C0B8B4",
"D. c #C9BDB2",
"F. c #C4BEBA",
"G. c #DDB3B3",
"H. c #DCBBBA",
"J. c #D1BAB3",
"K. c #E1B7AA",
"L. c #DCC0A6",
"P. c #D7C0AD",
"I. c #DDC3AB",
"U. c #C8C1BC",
"Y. c #D5C3B4",
"T. c #DAC5B4",
"R. c #DEC9B5",
"E. c #D3C5BA",
"W. c #DFC1BD",
"Q. c #DCCCBC",
"!. c #D6C8BC",
"~. c #E2C6AF",
"^. c #E2C5B3",
"/. c #E1CAB4",
"(. c #E3CCB9",
"). c #E8CFBD",
"_. c #E7D1BC",
"`. c #E9D3BD",
"'. c #CFC8C3",
"]. c #D4CBC3",
"[. c #DBCEC4",
"{. c #D4CEC8",
"}. c #D9C9C5",
"|. c #DDD1C4",
" X c #DCD4CC",
".X c #DBD6CF",
"XX c #DCD7D1",
"oX c #DEDAD5",
"OX c #E2CAC4",
"+X c #E0C6C0",
"@X c #E4D3C2",
"#X c #EAD6C4",
"$X c #ECD8C6",
"%X c #E2D5CD",
"&X c #E3D9CE",
"*X c #ECDAC9",
"=X c #E3DCD4",
"-X c #E3DFD8",
";X c #E9DBD3",
":X c #E7E0D7",
">X c #E9E1D6",
",X c #E4E1DC",
"<X c #ECE6DE",
"1X c #EDE8DF",
"2X c #E7E6E1",
"3X c #EAE7E1",
"4X c #EDE8E0",
/* pixels */
"' X.X.X.X.X.+.o.X.X.o.o.` c 1 ; ; ; : 3 ; 1 1 : ; : x ] +.X.+.X.",
"' o.X.X.X.X.X.o.X.X.X.o.A : ; ; ; 5 M 6 = 1 7 V 1 ; 2 _ @.X.X.X.",
"] o.o.o.X.X.X.X.X.X.X.X.z = = = , U -.5 = 7 Y :.7 1 1 K @.X.X.X.",
"' o.o.o.+.@.X.X.X.X.X.[ 2 * * 6 -.e.:.6 4 U g.g.-.4 * n +.@.X.X.",
"] +.X.X.X.X.X.X.o.o.o.n * * - Y ;.-.B g.P.(.k.Y Y < * n +.X.X.X.",
"] @.X.X.@.X.X.@.o.o.X.z @ @ - :.D.U M Q.$X$Xl.M 4.M 2 A +.X.X.X.",
"' X.X.o.X.@.X.@.o.o.` > @ @ M A.@X9.1.@X$X`.E.2.T.-.z [ +.X.X.X.",
"] @.o.@.X.X.o.X.o.o.m + o + ;.`.$X$X#X$X$X_.$X$X`.e._ X.X.X.@.@.",
"' @.o.X.X.@.X.X.X.X.z X O O , 3.@X$X$XR.K.x./.*X(.S X.X.X.X.X.+.",
"' @.@.X.X.X.X.+.X.` # X . .   % P.$X`.r.) ( x.*XY.A +.+.X.X.X.X.",
"' @.X.X.o.X.X.X.@.A o & & & - V 3.(.$Xj.) ) /.R.Z K @.+.X.@.@.X.",
"] @.@.X.X.@.X.X.X.v =.F.&.<.'.-X[.k.I.I.c.I./.I 4 ..@.+.X.X.X.+.",
"' o.o.X.o.o.X.@.{ 7.<XXX<.F.XX-X2X&Xk.f.h.V.U.8 =.N.X.+.X.X.X.+.",
"' @.o.o.X.X.@.+.v.-X2XoX6.'.XX-X2XoX]./ :.F.1.8 {.{. .+.X.X.@.#.",
"' o.o.o.o.o.o.t.OX2X4X-X7.{.=XoX4X:X8.R 7.{.V =.oX,Xv.X.X.+.#.y.",
"' o.o.o.o.o. .W.-X-X4X-X0. X-XoXU.8 , , C 0.&.'.oX2XH.O.+.@.b.XX",
"' @.+.+.@.{ H.3X-X-X3X3X{..X=XoXU.=.8 T % 4 S..XoX2X=Xu.+.O.G.<X",
"' @.X.@.#.N.:X4X-X=X2X-XE.3.]..X,X&.5.;.I 4 |.{.-X3X1XZ.%.%.}.2X",
"' @.@.+.b.-X3X3X4XoX-Xg.s j E D.6.I !.I *.S.:X{.,X3X3X=Xu.t.%X3X",
"' @.@.] m..X X=X2X2X'.s w u H V.I U.|.8 8.4X<X{.2X3X3X&Xi.M.,X=X",
"' @.X.X.d.n.P.C.A.-X>.d t p H Y.{.1X|.I .X1X<XoX3X3X<XY.s.E.XXoX",
"' @.+.@.} Z.$X`.h.9.h w q i W B.>X1XQ.!.2X1X<XQ. XXXE./.T..X2X2X",
"] +.X.X.s._.#X_.p.:.e 9 q Q ^ T.<X:X&X3X3X1X&Xl.A.Q.A._.#X%X2X2X",
"' +.X.t.^.R.R.N.h.A.^ 0 t / ^ J.>X&X>X3X1X1XY.5.x.(.`.T./.}.-X2X",
"] +.O.K.$X$X(.k._.I.z.s g W W R.=X=X1X<X4X;Xy.q.k.c.c.R.P.R. X<X",
"' +.O.N.#X$X#X/.`.~.z.W f i ~ |.=X:X1X1X1XG.O.{ q.E ! c.`.$XQ.,X",
"' @.+.{ M.^.(.A.~.z.! d D a ^ Q.<X<X1X4X%Xt.$.o.X.] ] w.K.#X@X.X",
"' @.@.@.o.{ t.| J e 0 t i a j.=X1X1X1X<XM.O.@.o.X.X.o.O.%.s.N.%X",
"] o.X.o.o.o.o.X.P 0 9 e W F x.:X1X<X1XOXt.@.X.o.o.o.o.o.+.+.%.u.",
"] o.X.X.o.X.o.o.P e d e / ~ Y.>X<X1X4X+X} $.o.@.o.o.X.X.+.+.+.o.",
"' o.o.X.o.X.o.o.L w d f Q ^ %X1X<X1X4X>XN. .o.o.o.o.o.o.o.o.o.+.",
"' o.o.X.o.X.X.} N.s y D F k.;X4X4X<X1X<X>Xs.X.o.o.o.o.o.o.o.O.+.",
"' o.o.o.+.o.O.G.|.R r a ! B.Q.;X<X<X<X<X1X+Xt.o.o.o.o.o.+.X.O.u.",
"' o.o.o.+.+.a.;X{.r.h G e.E.&XQ._.&X<X<X1X1XH. .o.o.o.o.+.O.v..X",
"' o.o.X.o.%.OX1X%XJ.m.h.J.&X<X<X>X<X1X=X X X>XM.O.o.o.o.+.u..X,X",
"' o.o.o.+.M.<X1X<X X!.T.!.>X<X<X4X<X1X=X:X=X&X&Xu.o.o.o.#.U.,X,X",
"' o.o.o.} +X4X1X1X1X=X@X*X>X<X4X<X<X1X=X<X=X=X1XH.%.+.+.a.oX,X,X"
};
