/* XPM */
static char *yamada_27[] = {
/* columns rows colors chars-per-pixel */
"32 37 190 2 ",
"   c #2C2435",
".  c #302737",
"X  c #312738",
"o  c #34293B",
"O  c #3C2E41",
"+  c #3E3041",
"@  c #423345",
"#  c #463649",
"$  c #493649",
"%  c #47384B",
"&  c #4B3B4C",
"*  c #513748",
"=  c #4E3E50",
"-  c #513F52",
";  c #5F3F50",
":  c #5B4C48",
">  c #544255",
",  c #5B455A",
"<  c #5E4B59",
"1  c #574A55",
"2  c #63485D",
"3  c #664959",
"4  c #744457",
"5  c #63545D",
"6  c #6A5958",
"7  c #734D61",
"8  c #7D4E63",
"9  c #6A5C65",
"0  c #615961",
"q  c #735F63",
"w  c #6F6365",
"e  c #7A6868",
"r  c #8E4E62",
"t  c #835066",
"y  c #94546A",
"u  c #9E586F",
"i  c #965166",
"p  c #A6586D",
"a  c #AF5B74",
"s  c #B15C75",
"d  c #816F66",
"f  c #8B766A",
"g  c #867776",
"h  c #907F77",
"j  c #BD607A",
"k  c #B66478",
"l  c #D26642",
"z  c #D46C43",
"x  c #C87449",
"c  c #D57047",
"v  c #D5744C",
"b  c #DA7047",
"n  c #C86A52",
"m  c #C87756",
"M  c #D36566",
"N  c #CA647E",
"B  c #D5737D",
"V  c #D3797D",
"C  c #CB6B65",
"Z  c #BB805F",
"A  c #8A807E",
"S  c #98837A",
"D  c #A18C7E",
"F  c #AE9077",
"G  c #D2915A",
"H  c #D38755",
"J  c #CA8668",
"K  c #C1996E",
"L  c #D29C63",
"P  c #D78379",
"I  c #CB9A77",
"U  c #D79575",
"Y  c #E0897A",
"T  c #CC6982",
"R  c #D46884",
"E  c #DB6A87",
"W  c #DC6A88",
"Q  c #D77680",
"!  c #DA788C",
"~  c #E76F8E",
"^  c #E86F8F",
"/  c #E4728E",
"(  c #E8708F",
")  c #E07A8F",
"_  c #EA6F90",
"`  c #E97090",
"'  c #E07890",
"]  c #8D838A",
"[  c #988B85",
"{  c #9F9087",
"}  c #9C9292",
"|  c #A28F84",
" . c #AB9787",
".. c #B19B86",
"X. c #A29695",
"o. c #A39997",
"O. c #B5A18E",
"+. c #AFA195",
"@. c #BAA491",
"#. c #B7A89E",
"$. c #ACA4A2",
"%. c #B9ADA5",
"&. c #B3AAA5",
"*. c #BCB4AF",
"=. c #BEB7B2",
"-. c #CC8189",
";. c #D38E84",
":. c #CD9C86",
">. c #D79B88",
",. c #C58E90",
"<. c #DC8595",
"1. c #DB8C99",
"2. c #CC9998",
"3. c #D39A9C",
"4. c #DB9297",
"5. c #CEA587",
"6. c #D2A28B",
"7. c #D0AD8A",
"8. c #C3AC95",
"9. c #C8AB95",
"0. c #D4A992",
"q. c #DBA694",
"w. c #CCB39C",
"e. c #C6B09A",
"r. c #D3B49F",
"t. c #D8B098",
"y. c #D899A1",
"u. c #C9ACA4",
"i. c #DAA2A6",
"p. c #DBACAE",
"a. c #D1AAA7",
"s. c #CFB8A2",
"d. c #C0B6AF",
"f. c #C6B7AA",
"g. c #D0B7A5",
"h. c #D9B3A3",
"j. c #D3BBA5",
"k. c #D3BEAB",
"l. c #DDBCA5",
"z. c #C3BBB5",
"x. c #CFBFB4",
"c. c #C6BEBA",
"v. c #DEB1B2",
"b. c #DDBEB9",
"n. c #D6BCB3",
"m. c #E1BDB5",
"M. c #DAC1AD",
"N. c #DAC2AA",
"B. c #CFC2B7",
"V. c #C7C1BE",
"C. c #CDC4BC",
"Z. c #DBC6B2",
"A. c #D3C4BA",
"S. c #D9C4BA",
"D. c #D5C9BC",
"F. c #DBCABB",
"G. c #D8C6B6",
"H. c #DCD1BF",
"J. c #E7CFB6",
"K. c #E1CDBC",
"L. c #E0C3BD",
"P. c #EAD2BF",
"I. c #CEC9C4",
"U. c #D3CBC4",
"Y. c #DACEC2",
"T. c #D3CEC9",
"R. c #D7D0C6",
"E. c #DBD1C5",
"W. c #DBD4CC",
"Q. c #DFD8CF",
"!. c #D7D1CB",
"~. c #DCD6D1",
"^. c #DEDAD4",
"/. c #E4CCC6",
"(. c #E5D3C3",
"). c #EBD6C4",
"_. c #ECD8C7",
"`. c #E2D6CE",
"'. c #E1D9CF",
"]. c #ECD9C8",
"[. c #E3DCD4",
"{. c #E9DCD2",
"}. c #E3DED8",
"|. c #E7E0D7",
" X c #E9E1D6",
".X c #E6E1DA",
"XX c #ECE6DE",
"oX c #EEE8DF",
"OX c #EAE7E0",
"+X c #EDE8E0",
/* pixels */
"E ^ ( ~ _ ( ~ ( ~ ^ ^ ~ ^ ~ ~ _ ~ ~ ~ ~ ~ ~ ~ ~ ~ ~ ~ W ~ ( ( ( ",
"E ^ ~ ~ ~ ( ( ~ ~ ^ ^ ^ ~ ^ ~ _ _ ~ ~ _ ~ ~ ~ ~ T a y y u k E ~ ",
"E _ ~ ( ( ~ ~ ( ~ ^ ^ ^ _ ~ _ ~ _ ~ ~ ~ ( ~ R p 7 2 2 2 2 2 t s ",
"E ` ~ ~ ~ ( ~ ~ ^ ^ ^ ^ ~ _ ~ ~ ~ ~ _ ~ / j 8 , , , , , , , , 2 ",
"E ( ~ ~ ~ ( ~ ~ ~ ~ ^ ^ ^ ~ ^ ^ ~ ~ ~ ~ s 7 , > > > > > > > > > ",
"E ( ~ ( ( ~ ( ( ^ ~ ^ ~ ~ ^ ~ ^ _ ~ ~ p 3 , > > > > = > > > - = ",
"E ~ ~ ~ ( ~ ~ ( ^ ^ ~ ~ ^ ^ ~ ~ ~ W i - = = = = - 9 1 = > > , = ",
"E _ _ ( ~ ~ ( ( ^ ^ ^ ^ ^ ~ ~ ~ W r & % # + % % q S e % % < f < ",
"E _ ~ ~ ~ ^ ^ ~ ^ ^ ^ ^ ^ ^ ^ ~ p ; $ @ o o $ & D  .S % % 5 @.f ",
"E _ _ ~ ~ ~ ~ ^ ^ ^ ^ ^ ^ ^ ^ N r 3 @ o . @ @ 6 9.9.| 5 9 e s...",
"E _ ~ ~ ^ ( ~ ^ ~ ^ ^ ^ ^ ^ ^ a i @ o . . o % d O.@.8.Z.K.N.j.w.",
"E _ ~ ~ ^ ^ ^ ~ ^ ^ ^ ~ ^ ^ R i 4 o .   X @ >  .*.f 8.).).Z. .| ",
"W _ _ ~ ~ ~ ^ ^ ^ ^ ^ ^ ^ ^ s 4 * o     X O w F.B.[ D._.).F.S %.",
"E _ ~ ~ ^ ~ ~ ^ ^ ^ ^ ^ ^ _ a $ * > 5 1 + @ | ).(.(.)._.).).B.F.",
"E ~ _ _ ^ ~ ^ ^ ^ ^ ^ ^ ^ _ s = ] T.^.V.9 5 d.K.).].).).).).).).",
"E _ ~ ~ _ ~ _ ~ ^ ^ _ ^ ^ ^ T X.}.OXXXV.9 o.[.D._._.h.q.6.M.).P.",
"~ _ ^ ^ ^ ^ ^ ^ ^ ^ ~ ~ ^ / y.}.OXOXOX$.e ~.}.C.H.).6.Y J g.).h.",
"N ^ ^ ^ ^ ^ ^ ^ ^ ~ ~ ~ Q 2.'.OXOXOX^.} z.|..X~.w.N.N.6.q.Z.A.b.",
"~ ^ ^ ^ ^ ^ ^ ^ ^ ^ / M Z f.U.W.OXOX*.*.^.|.}.XXD.5.7.w.f.B.W..X",
"B ^ ^ ^ ^ ^ ^ ^ ^ ^ M l :.F.XX[.^.T.=.~.^.[.^.V.V.w.I #.=.c.[.+X",
"W _ _ _ ^ ^ ^ ^ ~ ~ m m M.|.oXXX!.T.T.^.[.^.^.] w f F &.c.z.V.U.",
"W _ _ _ ^ ^ ^ ^ ^ P L I D.oXXXoX^.I.~.~.XX^..X.X&.6 : A D.!.I.o.",
"E _ _ ~ ~ ^ ~ ~ ~ P G t.'.oXXXoX[.T.}.W.XX[.*.o.[ ..h =.W..XOXOX",
"E ~ _ _ ~ ~ ~ ~ ~ n x w.[.oXoXXX.XW.~.XXoX=.{ *.C.+.X..XU..XOXOX",
"E ~ _ ~ _ _ ~ _ R l v g.[.+XXXXXXXY.XXoXoX[.XXoX X{ %.{.y.'.OX.X",
"E _ ~ _ _ _ ~ ~ ;.b v k..X XU. X.X[.XXXXoXoXXXoXR.D E.m.! y.n.k.",
"W _ _ _ ~ ~ ~ ~ >.b z j.[..XW. X.X[.oX+XXXoXoX[.W.|.`.4./ E :.J.",
"E _ ~ ~ ~ ~ ~ ~ V x v k. X+XoXoX[.[.oXXX+XXXXX[.oX Xi./ ( ~ 4.P.",
"R ~ ^ ~ ^ ^ ^ _ W G H r.[.+XXX+X[.[.oXXXoXXXXXXXXXp./ ( ( ( ) m.",
"W ^ ~ ^ ~ ~ ~ ^ ~ J G 6.[.+XXX+X'..XoXoXoXXXXXXXp.) ( ( ( ( ( 4.",
"W ~ ^ ~ ^ ~ ^ ~ ( C x U E.XXXXXXE.XXXXoXoXoX Xv.) ^ ( ( ( ( ( / ",
"W _ ^ ~ ^ ^ ^ ^ ( V z v j.XX+X{.u.[.oXXXoX{.A.-.( ( ( ( ( ( ( ( ",
"R _ _ ~ _ _ _ / 1.L.>.z 5.F.XXg.,.Y.XX+XXX.XE.k.1.^ ^ ^ ~ ~ ^ ^ ",
"W ~ ~ ~ _ ` ( y.`.XX{.0.K @.u.2.b.A.Y.{.{.[.`. Xi.( ^ ^ ( ( ~ / ",
"W ~ ~ ~ ` ` 1.`.oXXXXXXXH.B.b.b.Y.[..X[.'..X[.W.a./ ^ ^ ~ ( ~ <.",
"W _ _ ~ ` ' /.XX+X+XXXoXXX[.'.W.[.XXXX+X+X+X[.[.S.! ( ^ ( ( ' n.",
"R _ _ ~ ~ v.OXXX+XXXoXXXoXXXXXXX+XXX+XXX+X+XW.E.Y.i./ / ^ ~ 1.~."
};
