/* XPM */
static char *yamada_16[] = {
/* columns rows colors chars-per-pixel */
"32 37 215 2 ",
"   c #332936",
".  c #352A3B",
"X  c #3B2C3E",
"o  c #2D2333",
"O  c #46373B",
"+  c #3D3041",
"@  c #4A3A4B",
"#  c #443646",
"$  c #4F3E51",
"%  c #53394D",
"&  c #613F53",
"*  c #54454A",
"=  c #4F4150",
"-  c #5D4A5A",
";  c #594557",
":  c #6A4256",
">  c #634C5D",
",  c #68475C",
"<  c #73475C",
"1  c #65565D",
"2  c #6E6058",
"3  c #776258",
"4  c #734C60",
"5  c #6A5761",
"6  c #735D65",
"7  c #75646B",
"8  c #7A636A",
"9  c #786964",
"0  c #7C7274",
"q  c #796D76",
"w  c #AB4E29",
"e  c #B34824",
"r  c #AB512C",
"t  c #AA5B37",
"y  c #AA643C",
"u  c #B1673F",
"i  c #B35F4B",
"p  c #AB6B46",
"a  c #B66845",
"s  c #AC714A",
"d  c #B5795C",
"f  c #B2744E",
"g  c #824B60",
"h  c #885467",
"j  c #9B546A",
"k  c #985E6E",
"l  c #A4596E",
"z  c #A35870",
"x  c #AD5B73",
"c  c #816B6E",
"v  c #84756D",
"b  c #937E6F",
"n  c #8C7476",
"m  c #8B7B74",
"M  c #857877",
"N  c #947B79",
"B  c #957E76",
"V  c #976973",
"C  c #BD7D72",
"Z  c #C16B42",
"A  c #D46D42",
"S  c #C8764A",
"D  c #D6774B",
"F  c #CF7A52",
"G  c #CB637E",
"H  c #C16B76",
"J  c #D5697F",
"K  c #B8865C",
"L  c #8A807C",
"P  c #9B877C",
"I  c #B78468",
"U  c #BE906F",
"Y  c #A38F7F",
"T  c #BA8D7A",
"R  c #AB947F",
"E  c #C68658",
"W  c #CD955E",
"Q  c #C88C69",
"!  c #C99766",
"~  c #D19E6F",
"^  c #DD8C7C",
"/  c #C69779",
"(  c #CF8575",
")  c #C5A47A",
"_  c #CBA578",
"`  c #D0A57C",
"'  c #867B81",
"]  c #CE6681",
"[  c #DA6A87",
"{  c #DC6A88",
"}  c #D36884",
"|  c #D7788A",
" . c #DC7E91",
".. c #E76F8E",
"X. c #E86F8F",
"o. c #E4728E",
"O. c #E8708F",
"+. c #EA6F90",
"@. c #E47490",
"#. c #E97090",
"$. c #E07B91",
"%. c #8C8284",
"&. c #998C88",
"*. c #9F9690",
"=. c #A38C82",
"-. c #AC9689",
";. c #A7988D",
":. c #A79488",
">. c #B39B8B",
",. c #A39A9B",
"<. c #A59B99",
"1. c #B39D91",
"2. c #ADA09C",
"3. c #BFA592",
"4. c #BCA99C",
"5. c #B8A79B",
"6. c #B8A18E",
"7. c #AEA5A3",
"8. c #B6AAA5",
"9. c #BCB4AE",
"0. c #BEB8B6",
"q. c #DD818E",
"w. c #CC9E81",
"e. c #CD8F92",
"r. c #DC8494",
"t. c #D68C95",
"y. c #DB8C96",
"u. c #DC8D9A",
"i. c #D58491",
"p. c #CA979A",
"a. c #DD949C",
"s. c #D59A9C",
"d. c #C3838E",
"f. c #CEA989",
"g. c #C8A68B",
"h. c #D2A987",
"j. c #D3B484",
"k. c #D9BF8F",
"l. c #C9AA97",
"z. c #D6A89A",
"x. c #CBB49A",
"c. c #DBB69B",
"v. c #CBB488",
"b. c #DB9CA3",
"n. c #DF97A1",
"m. c #C8AFAD",
"M. c #DAA8AA",
"N. c #C7B0A2",
"B. c #CCB5A1",
"V. c #CCB9AB",
"C. c #CCB7A8",
"Z. c #D3B7A2",
"A. c #D4BCA5",
"S. c #D3BDAB",
"D. c #DAB5AA",
"F. c #C0B9B4",
"G. c #CBBEB4",
"H. c #C3BEB9",
"J. c #DAB3B2",
"K. c #D8B9B6",
"L. c #E0ADA8",
"P. c #E0BCA7",
"I. c #E2B9AE",
"U. c #E0AFB1",
"Y. c #E3BCB1",
"T. c #DCC593",
"R. c #DECB99",
"E. c #D9C596",
"W. c #E1D39F",
"Q. c #DCC5AD",
"!. c #DAC4AF",
"~. c #CAC3BD",
"^. c #D4C3B5",
"/. c #DBC6B2",
"(. c #DFC9B3",
"). c #D2C6BD",
"_. c #DCCBBC",
"`. c #DAC0BB",
"'. c #E2C3AF",
"]. c #E2D4A3",
"[. c #E1D5A8",
"{. c #E4C4B5",
"}. c #E2CBB5",
"|. c #E4CDBB",
" X c #E3C4BB",
".X c #E6D1BD",
"XX c #E8D1BD",
"oX c #CCC6C3",
"OX c #D3CCC5",
"+X c #DCCDC3",
"@X c #D9CCC9",
"#X c #DDD0C5",
"$X c #DBD4CC",
"%X c #D6D1CB",
"&X c #DCD6D1",
"*X c #DEDAD4",
"=X c #DFDDD8",
"-X c #E2CFC8",
";X c #E3C9C4",
":X c #EAD6C3",
">X c #ECD8C6",
",X c #E3D3CB",
"<X c #ECD9C8",
"1X c #E3D6CA",
"2X c #E3DCD4",
"3X c #E8DFD4",
"4X c #E2DED9",
"5X c #E9E0D6",
"6X c #E5E2DD",
"7X c #ECE6DE",
"8X c #EDE8DF",
"9X c #E6E0D7",
"0X c #EAE6E0",
"qX c #EDE8E1",
"wX c #E6E4E0",
/* pixels */
"{ X.........X.............+...k > > > n n c > > n Y 6 , > , x o.",
"{ X.....X.X.X.X...O.......O.} h > 5 8 1.=.B > - 8 3.>.6 ; , j [ ",
"[ +.X.....X.X.X.............} 4 > 8 N 1.:.:.8 n B 6.3.n ; , l G ",
"[ ..X.....................O.] , - c -.;.b N.|..XS.Y :.P 6 , h J ",
"{ O...............O.........] : ; c ^.8.c ^.>X>X_.m 4.N.6 4 j [ ",
"[ +...........O.............] & $ 7 /.+XG.:X<X:X:XV._.C.1 j ....",
"{ ..........................[ & @ 5 S.<X<X<X<XXX<X<X>Xx.; j ....",
"{ +.X...+.X...+.............{ & + = 4.>X:X.X'.A.!.:X>X5.@ g [ ..",
"{ +.X.....O...........+.....{ < + # &.:X:Xc.^ ( I |.:XP @ : [ ..",
"{ X.X.X...........O.........O.h . + 2 ^.>XP.^ ^ z..X6.* # % G O.",
"{ X.X.X.+.......O...........+.x X   @ =.A.}.D.c.Z.b O   # @ l  .",
"[ X.X.X...+.............+.+.| d.8 q 5 &.B.h.c.Z.<.1 #   X < 6 K.",
"[ X.O.+.....O.........O...t.K.4X&X&X7.q G.h.` 5.H.H.oX,.- < V *.",
"[ +.......+.........O.+.u.@X&XwX=X&X&X%.,.f.` 4.~.OX6X4X0.6 8.,.",
"[ +.......X...........$.;X0X*X6X4X&X&XoX' l.w.G.4XOX4X4X=X7.,.6X",
"[ ........O.....O.....M.3X0X4X6X*X2X4XwX,.5 2 ,.OX$X4X*X6X*X,.4X",
"[ X.X.....X...X.+...u.2XqXwX2X6X*X=X+X6X&.* 2 L 9 ~.*X*X6X6XOX=X",
"[ X...X.......X...u.-XqXqXwX4XwXK.g.) x.0 9 v *.H.OX&X*X8X8X6X&X",
"[ X.........X.X.y.,XwXqXwXqX*XN.p r p a I =.Y m 8.2XOX6X0X8X8X=X",
"[ X.........X. .K.4XqXqXwXwXm.s y u _ F F -.L F.L ~.%X8X8X0X0X6X",
"[ X.X.X.O.X.$.I.|./.#X7XwX*Xd p t _ W.~ S U 9 9.2.0 F.qX0X0X0X0X",
"[ X.X.X.O.o.L.:X>X}.l.~.wX`.t w u T.W.j.W ! ;.v OXL 1 %X0X0X6X#X",
"[ X.X...o.a.|.:X:XD.e.l.m.T e e ! W.W.T.W W V.8.).L   0 %X%XC.(.",
"[ X...X.$.Y.}.}.D. .o.o.| a e e ` W.].R.E S x.3X=X2   * 4.C.!.}.",
"[ X.X...a.:X>X>X{.y.o.o.[ a / u j.].].R.F A g.<XOXP M ;.A.Q..X.X",
"[ O.....y.|.:X>X<X{.y.o.| l.(.f.E.].].R.D A A.5XK.t.-X^.}.Q.(.<X",
"[ +.X.X.o.y.Y.:X:X<XXXz.s..XQ.g.v.[.].R.D D S.5Xb.o.b.-X#X+X#X|.",
"[ X.X.X...O.$.a.I.:X<X.X|.:X'.) v.[.[.k.S S B.1Xi.O.@.M.,X3X2XJ.",
"[ X.X...........o.y.L.}.:XXX` f ) ].].j.E Q ^.#Xi.O.O.O.r.a.u.o.",
"[ X.............O.O.o.t._.Z.t r E ].].! W f._.#Xs.o.O.#.X.X.O.O.",
"[ X.X.....X......... .D.7X1Xd a u T.E.E E x.2X5X;Xy.#.O.X.X.O.O.",
"[ O.............+.#.K.7X8X8Xx.y w I ! A Q ^.8X8XqX-Xr.X.X.X.X.o.",
"[ X.X.X...O.......r.,X8X8X7X+XT t y Z E S.7X8X8X7XqX;X$.O...O.r.",
"[ O...X.......+. .;X7X8X8X2XK.M.H K f._.3XqXqX2X,X$X5XU.o.O.| J.",
"[ O...X.....+.#.M.7X8X8X7X$Xe.C H l.1XqXqX8X7X$X7X&X5X5Xn...a.&X",
"[ X.......+...q.;X8X8X8X7X@XJ.p.s.+X4XqXqXqXqX$X3X$X3XqX-Xr.J.=X",
"[ X.....X.X...s.5XqXqXwX8X2X,X,X;X@X5XqX8XqX8X$XOX$X8X8X5XJ.@X6X"
};
