/* XPM */
static char *yamada_8[] = {
/* columns rows colors chars-per-pixel */
"32 37 215 2 ",
"   c #292031",
".  c #392D3C",
"X  c #43373D",
"o  c #423343",
"O  c #473649",
"+  c #4C3C4C",
"@  c #4A3A41",
"#  c #4C3D50",
"$  c #5B3D51",
"%  c #4F434C",
"&  c #56494C",
"*  c #534254",
"=  c #5D465B",
"-  c #5D485A",
";  c #5B4853",
":  c #5E525B",
">  c #634B5D",
",  c #674758",
"<  c #7D4A5F",
"1  c #69535D",
"2  c #6B5E5D",
"3  c #76575C",
"4  c #63534A",
"5  c #6E4C60",
"6  c #695562",
"7  c #765D69",
"8  c #765763",
"9  c #744C62",
"0  c #6C6062",
"q  c #7A666A",
"w  c #7F7479",
"e  c #B1421E",
"r  c #AD4C27",
"t  c #B14824",
"y  c #A9512B",
"u  c #A6502B",
"i  c #B0512B",
"p  c #B24E35",
"a  c #AA5631",
"s  c #B25B35",
"d  c #A9653A",
"f  c #B1643D",
"g  c #CB5F38",
"h  c #D25E37",
"j  c #CA683E",
"k  c #D8663D",
"l  c #80495F",
"z  c #AD5D49",
"x  c #B05C41",
"c  c #B76B49",
"v  c #AF724A",
"b  c #BC764B",
"n  c #AA6C51",
"m  c #B87A5A",
"M  c #AE6C50",
"N  c #895364",
"B  c #93566C",
"V  c #A65971",
"C  c #AF5B73",
"Z  c #B55F78",
"A  c #87766A",
"S  c #8C7A72",
"D  c #877977",
"F  c #93796F",
"G  c #AF6D77",
"H  c #B66074",
"J  c #BB6479",
"K  c #B27566",
"L  c #C36D42",
"P  c #C17649",
"I  c #D07148",
"U  c #C77A53",
"Y  c #D37953",
"T  c #D96B41",
"R  c #C7647E",
"E  c #D0657E",
"W  c #D0757E",
"Q  c #B58057",
"!  c #9B8479",
"~  c #A28D7D",
"^  c #CA8C5C",
"/  c #C28557",
"(  c #CD935C",
")  c #D0985F",
"_  c #C88B68",
"`  c #C6936A",
"'  c #CA8A7B",
"]  c #D58E7E",
"[  c #D39D7F",
"{  c #E08878",
"}  c #C9A27E",
"|  c #D0A57E",
" . c #8F7B82",
".. c #CA6580",
"X. c #D36A83",
"o. c #DB6A86",
"O. c #DE6C89",
"+. c #D16783",
"@. c #DD728B",
"#. c #D47A88",
"$. c #DF7D92",
"%. c #E76F8E",
"&. c #E86F8F",
"*. c #E3728E",
"=. c #E8708F",
"-. c #E0798F",
";. c #E07A91",
":. c #E87190",
">. c #8D8382",
",. c #958885",
"<. c #9C908B",
"1. c #9D9392",
"2. c #A38C81",
"3. c #B58480",
"4. c #AC9482",
"5. c #AB998D",
"6. c #A8958C",
"7. c #B49C89",
"8. c #BA9988",
"9. c #A49894",
"0. c #B89C93",
"q. c #B9A082",
"w. c #ABA29C",
"e. c #B9A292",
"r. c #B0A39E",
"t. c #BAAA9A",
"y. c #ACA4A2",
"u. c #B5ABA5",
"i. c #BEB0A2",
"p. c #BDB6B2",
"a. c #BFB8B5",
"s. c #C38A86",
"d. c #C49E8F",
"f. c #CF988A",
"g. c #C89F84",
"h. c #D79986",
"j. c #DC8293",
"k. c #DB8A95",
"l. c #D88C98",
"z. c #CE9F9D",
"x. c #DA959D",
"c. c #D88C8D",
"v. c #CFA98E",
"b. c #C5A58E",
"n. c #D3AF8F",
"m. c #D2A387",
"M. c #C3AC9C",
"N. c #C6A995",
"B. c #DBA89C",
"V. c #C9B39F",
"C. c #D1B094",
"Z. c #DDBD9E",
"A. c #D8B79A",
"S. c #DC9BA2",
"D. c #DA97A0",
"F. c #DCAAAC",
"G. c #D6A7A4",
"H. c #CBB4A3",
"J. c #CDBBAB",
"K. c #C7B6A9",
"L. c #D4BBA2",
"P. c #D2BEAC",
"I. c #D5B5AA",
"U. c #C7BDB5",
"Y. c #DCB2B3",
"T. c #D8BDB7",
"R. c #C7A9A8",
"E. c #E1A3A2",
"W. c #E3BEB6",
"Q. c #E2B7AC",
"!. c #D3C0AE",
"~. c #DAC2AB",
"^. c #DBC4AA",
"/. c #CBC2BA",
"(. c #D5C4B2",
"). c #DAC6B4",
"_. c #DDC8B5",
"`. c #DACBBB",
"'. c #D2C7B9",
"]. c #E2C6AD",
"[. c #E2CAB5",
"{. c #E3CEB9",
"}. c #E8CEBA",
"|. c #E1C5B2",
" X c #E6D1BD",
".X c #E8D2BC",
"XX c #CDC7C1",
"oX c #CFCCC9",
"OX c #D6CDC6",
"+X c #DBCDC2",
"@X c #D7CDC8",
"#X c #DDD4C7",
"$X c #D6D1CB",
"%X c #DBD4CC",
"&X c #DDD6D0",
"*X c #DED9D4",
"=X c #DFDDD9",
"-X c #E3CEC9",
";X c #E2C8C4",
":X c #E3D3C2",
">X c #EAD6C3",
",X c #ECD8C6",
"<X c #E2D6CC",
"1X c #E3D9CD",
"2X c #ECD9C8",
"3X c #E3DDD5",
"4X c #E4DFD9",
"5X c #E8D9D1",
"6X c #E9E1D5",
"7X c #E6E2DD",
"8X c #ECE5DD",
"9X c #EDE8DF",
"0X c #E7E0D7",
"qX c #EAE7E1",
"wX c #EDE8E0",
/* pixels */
"o.&.%.%.%.%.%.%.%.%.&.%.%.%...6 - > > 6 q 7 5 6 7 q 6 > < +.:.*.",
"o.=.%.%.%.%.%.%.%.%.%.%.%.*.B > > = > A F 7 = 6 2.2.7 5 5 ..%.%.",
"o.%.%.%.%.%.%.=.%.%.%.%.%.+.9 = - 1 D 0.7.8 > S N.M.F 7 5 Z =.%.",
"o.:.%.%.%.%.%.%.%.%.%.%.%.C = = ; S 4.4.! 5.M.P.H.4.2.7 = C =.%.",
"o.=.%.%.%.%.%.%.%.%.%.%.O.N * * ; 2.i.! A {.,X,XM.A 6.3 , Z &.&.",
"o.=.%.=.=.%.%.%.%.%.%.%..., * * 1 M.`.9.,.:X,X>XJ.,.K.~ N E &.&.",
"o.=.%.%.%.%.%.%.%.%.%.%.V # + * 2._.>X:X X,X2X>X>X X}.8.H %.&.&.",
"o.%.%.%.%.%.=.%.%.%.%.O.< O + + 2._.>X2X,X X[.[.,X,X}.~ o.&.%.%.",
"o.%.%.%.%.%.%.%.%.%.%...* o o o X A `.2X>Xm.] ' P.2X).G %.%.%.%.",
"o.%.%.%.%.&.&.&.%.%.%.V O o o .   @ M.2X>Xh.{ ] |.,X0.J %.%.%.&.",
"o.=.%.%.%.%.%.%.&.&.%.< * 6 * # : D q.L.}.Q.g.A.[.7.< +.&.%.%.&.",
"O.:.%.%.%.&.%.%.&.&.+. .a.XXw u.OX0X#X!.C.Z.!.!.e.; 8 @.%.%.%.%.",
"o.%.%.%.%.&.%.&.&.%.l.*XqX$X<.XX&X7X7X0XZ.| q.p.1.: 0.l.%.%.%.%.",
"o.=.%.%.%.%.%.%.%.$.@XqXqX$X9.$X&X7XqX=X!.} e.p.q >.$XY.%.%.%.%.",
"O.%.%.%.%.%.&.&.@.Y.4XqXqX$Xu.&X*X7XqXoX6.! a.XXq a.*X-X$.%.%.%.",
"o.%.%.%.&.%.%.-.Y.7X*X7XqX$XU.*X*X=Xw.0 & : 1.1.y.$X=X0XS.%.*.*.",
"o.%.%.%.=.=.@.Y.7X7X=X7XqX%XU.0X&X7Xp.>.A ! % ! $XoX=XqX`.-.=.j.",
"o.%.%.%.=.;.Y.7XwX9X=X=X+X4.} '.%X7XoXD t.! 2 <.=XoX7XqX7XB.=.x.",
"o.=.%.%.@.F.7XqXqXwX7XOXK u j _ K.OX>.w.K.q w.XX4X$XqXqXqX;Xj.Y.",
"o.=.%.%.@.R.XXP.(.`.0Xb.d a h Y !.$Xw.=Xr.9.9XwX4X*X9XqXqX+Xz.%X",
"o.=.=.%.*.#.K.}.].n.e.M d t j Y !.7X9XwXu./.9X9X0X=X7X0X0XP.P.=X",
"o.=.%.%.=.k.[.2X,XH.~ a r i L / J.7XwX6X'.0X9X9X3X%X+X`.!.~.+X=X",
"o.&.%.=.j.Q._. X_.M.L.c e f ) ` (.7X9X1X#X9X9X9X+XK.V.~.>X_.>X#X",
"o.=.%.;.Q.>X>X~.^.{.~.` s b ) ^ !.8X6X#X8X8X9X8XG.s.b.~.}.}.~._.",
"o.%.%.j.}.,X2X{.{..X^.} v U j _ `.8X<X5XwXwXwX-X$.@.f.N.v.n.].).",
"o.=.%.%.x..X2X X[.].A.` Q I k | <X8X3X9XwXwX4XS.%.*.#.#.W ' Z..X",
"o.%.%.&.*.k.B.G.f.m c s m k k v.<X9X9X9XwXwXW.-.%.%.%.%.&.*.c.|.",
"o.%.%.%.%.%.=.=.o.p t i b j Y (.3X9X9X9XwX5Xl.%.%.%.%.%.&.&.=.;.",
"o.&.%.%.%.%.%.%.%.i u i P ( _ '.7X9X9X9X9XE.;.=.&.&.&.&.&.&.&.%.",
"o.=.%.%.%.%.&.&.W x d r ( _ C.$X9X9X8X9X6Xx.%.=.&.&.&.&.&.&.%.&.",
"o.&.&.%.%.&.%.&.o.x a i / ^ P.5X8X9X9X9X8X(.k.%.&.&.&.&.&.&.&.&.",
"o.&.%.&.%.&.&.&.@.z u j j b.H.2XwXwX8X9X9X6XY.*.&.&.&.&.&.&.&.&.",
"o.=.%.%.%.%.=.%.D.N.c L U d.R.+X:X6X8X9X9X9X2XD.%.%.%.%.&.&.&.%.",
"o.=.%.%.%.%.=.$.-X%X8.n K s.+X6X<X`.:X6X8X9X9X<Xj.:.%.%.&.%.%.$.",
"o.%.%.%.%.%.%.F.9X4XT.I.G.I.<XwX9X0X8X9X8X&X1X0XT.@.=.=.%.&.$.T.",
"o.=.%.%.:.:.;.:X9X9X3X#X).!.:X4X8X9X9X9X0X&X0X%X8XS.:.%.%.*.F.=X",
"o.=.%.%.%.=.S.6X9XwXwX6X<X1X6X6X9X9X9X9X3X3XqX%XwX<Xl.=.=.j.%X7X"
};
