/* XPM */
static char *yamada_10[] = {
/* columns rows colors chars-per-pixel */
"32 37 198 2 ",
"   c #2C2435",
".  c #312739",
"X  c #362B3B",
"o  c #3A2D3E",
"O  c #3A303F",
"+  c #3D3441",
"@  c #402F42",
"#  c #433345",
"$  c #493447",
"%  c #463649",
"&  c #4B3B4D",
"*  c #4F3F50",
"=  c #5E3F51",
"-  c #583B4B",
";  c #613F51",
":  c #544254",
">  c #594555",
",  c #5B465A",
"<  c #594855",
"1  c #5F5058",
"2  c #634A5D",
"3  c #6B495F",
"4  c #60475B",
"5  c #774758",
"6  c #764758",
"7  c #65525C",
"8  c #6B555E",
"9  c #66554B",
"0  c #70625F",
"q  c #774C61",
"w  c #6D5B63",
"e  c #6F6265",
"r  c #7B6565",
"t  c #766768",
"y  c #7B6F79",
"u  c #7E7176",
"i  c #D6663C",
"p  c #D6673D",
"a  c #834D62",
"s  c #8C5468",
"d  c #885167",
"f  c #96576A",
"g  c #A2566C",
"h  c #A25970",
"j  c #AA5972",
"k  c #B75F77",
"l  c #826F6C",
"z  c #84716D",
"x  c #927D6F",
"c  c #857975",
"v  c #83787D",
"b  c #907A78",
"n  c #BC637B",
"m  c #C26B47",
"M  c #D66B41",
"N  c #C3724A",
"B  c #C67449",
"V  c #C87C56",
"C  c #D37B56",
"Z  c #CD6B6C",
"A  c #C4637C",
"S  c #D86D7A",
"D  c #D1757E",
"F  c #C67977",
"G  c #92847D",
"H  c #998479",
"J  c #BE8C6D",
"K  c #BD926A",
"L  c #A38976",
"P  c #CF8359",
"I  c #D0825D",
"U  c #CC955D",
"Y  c #C9866A",
"T  c #CE9760",
"R  c #C69161",
"E  c #D09E61",
"W  c #DB907E",
"Q  c #D08F77",
"!  c #D16782",
"~  c #D56D84",
"^  c #DA6A87",
"/  c #DF758C",
"(  c #DF798E",
")  c #DE7E92",
"_  c #E76F8E",
"`  c #E86F8F",
"'  c #E4728E",
"]  c #E9708F",
"[  c #E1788F",
"{  c #E86F90",
"}  c #E97090",
"|  c #9B8D83",
" . c #9C8681",
".. c #9F9087",
"X. c #9A8F93",
"o. c #9F9490",
"O. c #AF9887",
"+. c #A99589",
"@. c #AB998B",
"#. c #B09A87",
"$. c #BA9D84",
"%. c #B79C89",
"&. c #A59C99",
"*. c #BAA28E",
"=. c #ABA19A",
"-. c #BBA99C",
";. c #BBA898",
":. c #ABA4A1",
">. c #B4A9A4",
",. c #B3ABAA",
"<. c #BBB1AC",
"1. c #BCB6B2",
"2. c #BFB8B4",
"3. c #B7B2B3",
"4. c #CC8E8D",
"5. c #C49D85",
"6. c #C89A83",
"7. c #CF9381",
"8. c #D59782",
"9. c #DB8595",
"0. c #D48A93",
"q. c #DB8C99",
"w. c #DB8A93",
"e. c #DB939D",
"r. c #DA9898",
"t. c #CA9C99",
"y. c #E18999",
"u. c #CFA583",
"i. c #CDA78D",
"p. c #D7A181",
"a. c #D7A687",
"s. c #CBAA98",
"d. c #D7AA98",
"f. c #CBB39C",
"g. c #CFB193",
"h. c #D1B29A",
"j. c #DCB59D",
"k. c #DC99A1",
"l. c #C9AAA3",
"z. c #D9A9A6",
"x. c #CCB6A2",
"c. c #C3B8AE",
"v. c #C3B4A7",
"b. c #D2BBA5",
"n. c #D1BEAC",
"m. c #C6BCB3",
"M. c #C4BEB9",
"N. c #CCBCB0",
"B. c #DDBAB6",
"V. c #DBBBB5",
"C. c #E3BFAD",
"Z. c #D6C2AF",
"A. c #DBC0AD",
"S. c #CFC1B5",
"D. c #CBC3BC",
"F. c #C5C0BC",
"G. c #D4C3B2",
"H. c #D9C2BA",
"J. c #D4C9BC",
"K. c #DBCBBC",
"L. c #DAC6B7",
"P. c #E0C4AA",
"I. c #E3C6B2",
"U. c #E1CAB6",
"Y. c #E3CDBA",
"T. c #E7D1BD",
"R. c #E8D1BD",
"E. c #CCC6C0",
"W. c #CEC9C4",
"Q. c #D2CCC5",
"!. c #DBCCC4",
"~. c #D2CEC9",
"^. c #DCD2C6",
"/. c #D7D1CB",
"(. c #DCD4CB",
"). c #DFD8CF",
"_. c #DCD6D0",
"`. c #DED9D3",
"'. c #DBD9D6",
"]. c #E3CDC3",
"[. c #E6CFC9",
"{. c #E4C7C3",
"}. c #EBD6C4",
"|. c #ECD8C7",
" X c #E3D5CC",
".X c #E3D9CF",
"XX c #E9D6C6",
"oX c #E4DCD3",
"OX c #EADFD5",
"+X c #E3DFD8",
"@X c #E7E0D7",
"#X c #E6E1DA",
"$X c #ECE6DE",
"%X c #EDE8DF",
"&X c #E8E0D5",
"*X c #EBE7E1",
"=X c #EDE8E0",
"-X c #E7E5E1",
/* pixels */
"^ ` _ _ _ _ _ _ _ _ _ _ _ _ _ _ _ _ _ _ { { ' ` ^ k f s s h A ^ ",
"^ ` _ _ _ _ _ _ _ _ _ _ _ _ _ _ _ _ _ _ { { ^ n d 3 2 2 2 3 3 s ",
"^ ] _ _ _ _ _ _ _ _ _ _ _ _ _ _ _ _ _ _ ' ^ h 3 , 4 , , , , 2 2 ",
"^ { _ _ _ _ _ _ _ _ _ _ _ _ _ _ _ _ _ _ ^ f , > > > , , , , , , ",
"^ ` _ _ _ ` ` _ _ _ _ _ _ _ _ _ _ _ _ ! s 7 > > > > > : : , : : ",
"^ } ` _ _ { ` _ _ _ _ _ _ _ _ _ _ _ ! a * : : : : 7 w < * * 2 , ",
"^ { ` _ _ ` ` _ _ _ _ _ _ _ _ _ _ ^ a & & % & & >  .H w & * b t ",
"^ } _ ` _ _ _ _ _ _ _ _ _ _ _ _ _ f = % # o % * r *.O.w & : +. .",
"^ _ _ _ _ _ _ ` _ ` ` _ _ ` _ _ A 5 > # . X # 7 O.b.f.l w t ;.f.",
"^ { _ _ _ _ _ { ` _ ` _ _ ` _ _ f 5 $ X   O # z @.O.$.x.Y.Y.b.f.",
"^ { _ ` ` _ _ _ _ _ _ _ ` ` ` ! 6 ; o     O & +.S.| x K.}.R.;.H ",
"^ { _ _ ` _ ] _ _ _ _ _ ` ` ` k - $ .     O 7 A.XX-.-.XX|.}.;.G ",
"^ ` _ _ _ ` ` _ _ _ _ _ _ _ { j $ o o O X O e U.}.|.}.}.}.R.T.K.",
"^ ` _ _ _ _ _ _ _ _ _ ` ` _ { h $ u 3.1.v & e ;.}.}.}.R.R.R.}.}.",
"^ ` _ _ _ _ _ _ _ _ _ ` ` _ { n X.'.=X_.v u W.Q.Y.|.I.W 7.5.T.}.",
"^ { ` _ _ _ _ _ ` _ ` { ` ` ] z.#X*X*XW.e <.(.(.x.XXI.W W 6.}.L.",
"^ ` _ _ _ _ _ { { { { { { ' r.oX*X*X*X3.&.`._.#XS.g.P.j.i.A.Y.N.",
"^ { _ ` _ { _ _ { { } { / 4.n.@X-X*X'.,./.+X_.-X+Xb.u.g.v.c.(.`.",
"^ { _ { _ _ _ _ { ] { ^ F V K F./.#XW.~.`.#X`.'.~.D.u.$.1.2.~.+X",
"^ { _ _ _ _ _ _ _ ' { ! m M u.^.#XW._._.`.$X`.2.t v L %.M.M.M.'.",
"^ ` ` ` _ { _ _ _ _ { Z N P x.#X%X/.D.oXoX$X_.#XF.c 9 e 2.W.M.,.",
"^ ` ` ` _ _ _ _ _ _ ^ Y E Q J.$X%X).W.`.#X$X(.2.&.@.H :.E.(.#X-X",
"^ ` _ _ { _ { { { ' D U U h.oX%X%X@X(.@X=X@X=.o.F.c...E._._.*X-X",
"^ ` _ _ { ' { { { / Q N V f.&X%X%X#X.X*X=X$X(.#X%Xc.G _.oXV.*X*X",
"^ ` _ ` ` ` ` ` ' r.a.i C n.&X%X%X$X(.=X%X%X=X=X&X<.&.$XB.q. XoX",
"^ ` _ ` ` ` ` _ [ P.a.i C L.$X^.^.#X.X$X%X%X=X#XXX&XOXOXe.] 4.h.",
"^ ` _ _ ` _ _ _ / z.Q i C Z.$XoXoX#X.X=X%X%X%XOX@X%X$XV./ } / d.",
"^ _ _ _ _ _ _ _ ] 9.Y m I K.$X%X=X@XoX=X$X%X%X$X%X%X].9.{ _ ] 9.",
"^ ` _ _ _ _ _ _ { { Z U I G.$X=X=XoXoX=X%X$X%X$X%X[.y.` } { { ] ",
"^ ` _ _ ` ` ` ` { { S U C b.@X=X=XoX@X=X%X%X%X%X{.q.] ` ` ` ] ] ",
"^ _ ` ` ` ` ` ` { { S N B h.@X=X%X^.%X%X%X%X%X!.w.] _ ` ` ` ] _ ",
"^ _ _ _ _ _ _ _ { { w.I p 6.(.=X XN.$X%X%X%X@XH.0.' ` ` ` ` _ _ ",
"^ _ _ _ _ { _ _ ' e.[.d.p Q G.$Xl.l.(.=X=X=X$X XK.9.{ { ` ` ` ` ",
"^ { _ _ _ _ _ ] e. X%X Xi.K %.s.t.!.J.^.oXOXoXoXOXk._ { _ _ ` ` ",
"^ _ _ _ { { { 9. X%X%X%X#XK.G.V.H.(.@X#XoXoX@XoX/.z.{ ` _ _ ] ] ",
"^ { _ _ { { / B.%X%X%X$X%X$XoX(.(.oX%X=X%X%X=X^.oX!.e.` _ _ ] ( ",
"^ { _ _ _ _ e.OX%X%X%X%X%X%X%X@X$X%X%X$X=X=X@X!._.`.B.' ] ] ] q."
};
