/* XPM */
static char *yamada_11[] = {
/* columns rows colors chars-per-pixel */
"32 37 191 2 ",
"   c #2C2435",
".  c #34293B",
"X  c #3A2D3F",
"o  c #3E2F41",
"O  c #3F3242",
"+  c #412F42",
"@  c #443346",
"#  c #463649",
"$  c #47384B",
"%  c #4B3A4C",
"&  c #493946",
"*  c #563C4E",
"=  c #5D3C4E",
"-  c #4E3E50",
";  c #5B4A49",
":  c #4F4150",
">  c #534254",
",  c #5A4256",
"<  c #5D4C57",
"1  c #5B455A",
"2  c #5E4C59",
"3  c #5B535B",
"4  c #62495C",
"5  c #654457",
"6  c #784759",
"7  c #67565E",
"8  c #725F5D",
"9  c #764E61",
"0  c #7D4E64",
"q  c #605861",
"w  c #6B5B61",
"e  c #7D5264",
"r  c #716265",
"t  c #776965",
"y  c #796E78",
"u  c #786B73",
"i  c #DA683E",
"p  c #864A5D",
"a  c #BD7558",
"s  c #954F64",
"d  c #8A5268",
"f  c #98576D",
"g  c #99556B",
"h  c #A6586E",
"j  c #A05468",
"k  c #AA5B73",
"l  c #B55E76",
"z  c #BA5E77",
"x  c #806E68",
"c  c #85726E",
"v  c #857775",
"b  c #B76078",
"n  c #CC694F",
"m  c #D06F4F",
"M  c #D56A44",
"N  c #C97347",
"B  c #D87D57",
"V  c #C47556",
"C  c #CD6860",
"Z  c #CE7869",
"A  c #CA7965",
"S  c #C7647F",
"D  c #C7687F",
"F  c #D76975",
"G  c #D57073",
"H  c #948179",
"J  c #99867F",
"K  c #AC8C71",
"L  c #D38D56",
"P  c #D5985D",
"I  c #CC8D6A",
"U  c #D58660",
"Y  c #CF9962",
"T  c #CB857E",
"R  c #DF8879",
"E  c #D18371",
"W  c #CA9772",
"Q  c #D39877",
"!  c #D5A06B",
"~  c #CFA17C",
"^  c #897D82",
"/  c #9E7F86",
"(  c #CA6580",
")  c #D46984",
"_  c #DB6A87",
"`  c #DB6A88",
"'  c #D46784",
"]  c #DB7386",
"[  c #DC758A",
"{  c #DD7D91",
"}  c #E76F8E",
"|  c #E86F8F",
" . c #E07686",
".. c #E4728E",
"X. c #E9708F",
"o. c #EA6F90",
"O. c #E87190",
"+. c #E27990",
"@. c #968A85",
"#. c #988C88",
"$. c #A39084",
"%. c #AD9A89",
"&. c #A89687",
"*. c #B49F8E",
"=. c #A79F9C",
"-. c #A89F9F",
";. c #A19690",
":. c #B7A18A",
">. c #A8A09F",
",. c #B6A191",
"<. c #BAA491",
"1. c #B3A69C",
"2. c #AEA5A3",
"3. c #B5ABA4",
"4. c #B6ADAA",
"5. c #BCB1A8",
"6. c #BEB7B4",
"7. c #CC8B8F",
"8. c #C38586",
"9. c #D38A8B",
"0. c #DE8093",
"q. c #DA8B98",
"w. c #D28793",
"e. c #D79391",
"r. c #C79A96",
"t. c #CAA48B",
"y. c #D4A48B",
"u. c #CFAF98",
"i. c #C5AB97",
"p. c #DCAF9A",
"a. c #D3A992",
"s. c #CAB29B",
"d. c #D4B29A",
"f. c #DB9DA3",
"g. c #C8ADA2",
"h. c #D2A4A3",
"j. c #CCB4A4",
"k. c #C9B8AA",
"l. c #D4BAA5",
"z. c #D7B0AE",
"x. c #D2BEAB",
"c. c #DABAA3",
"v. c #C2BBB5",
"b. c #C5BEBA",
"n. c #CBBEB3",
"m. c #DCB4B3",
"M. c #DFBEBB",
"N. c #D8B9B3",
"B. c #E0B8B6",
"V. c #E2BAB8",
"C. c #DBC4AF",
"Z. c #CBC3BD",
"A. c #D3C3B4",
"S. c #DBC3B3",
"D. c #D5C7B8",
"F. c #DAC3BC",
"G. c #D4CABF",
"H. c #DBCABA",
"J. c #E1C2AC",
"K. c #E3CEBA",
"L. c #E2C1BE",
"P. c #E6D1BB",
"I. c #CBC6C3",
"U. c #D3CCC5",
"Y. c #DBCDC3",
"T. c #D5CFC8",
"R. c #DEC5C1",
"E. c #DAD0C7",
"W. c #D6D1CC",
"Q. c #DCD5CC",
"!. c #DFD8CF",
"~. c #DDD7D1",
"^. c #DED9D2",
"/. c #DFDDD8",
"(. c #E3CBC5",
"). c #EAD6C4",
"_. c #ECD8C6",
"`. c #E2D2CA",
"'. c #E1D9CE",
"]. c #ECD9C8",
"[. c #E3D2C3",
"{. c #E3DCD4",
"}. c #E8DFD6",
"|. c #E6DFD8",
" X c #E8E0D6",
".X c #E6E1D9",
"XX c #ECE6DE",
"oX c #EDE8DF",
"OX c #E7E5E0",
"+X c #EBE7E1",
"@X c #EDE8E0",
/* pixels */
"` | | } | | | | | | } | | | o.o.| | | | } } } | } | o.| } } } | ",
"` | } } } | | | | | | } } } | | | | | | } } } } } ) z f d f k ' ",
"` | | | } | } | | | | } | } | | | | | | } } } _ k 0 4 4 4 1 4 0 ",
"` | | | o.} } } | | } } } | | | | | } | } } ( d 1 1 4 1 1 1 1 1 ",
"` | } } } | } } | | | | | | | o.} } } } } D e 1 1 - 1 * > > 1 > ",
"` O.o.} } | } X.} | | | | | } | | } } } b 6 2 > 1 1 > - > > 1 - ",
"` | o.} } } o.} } | | | } } } } } } ` k , - - - - - w < : : : 1 ",
"` o.} o.| } o.} | | | | | | | | | } h * $ # O # % 4 @.x : $ > H ",
"` o.| | | | | | } o.} | | } | | } z 5 $ @ . . @ & c &.J ; $ : ,.",
"` o.| | | } } o.| } } } } } | o._ s 6 @ .   o @ ; ,.s.,.w r r i.",
"_ | | | } o.} o.o.| o.} | o.} } l j = o     X @ 8 %.,.<.x.K.S.x.",
"_ | | | } | o.} | | | o.| } | } s p o .     o # J v.H %.)._.K.<.",
"` | } } } | o.} } } | | | } } ) 6 = X       o < x.Y.#.k._._.).$.",
"_ o.| | } | } } } } } o.| } } ( = @ : 7 3 O o v P.).[._._.).).A.",
"_ | | | } } } } } } } | | } o.( - y b.{.U.v - 3.K.].].].).[.)._.",
"_ | | | } } } | o.| o.} } } o._ / /.+XOXW.y ^ ~.H.[.].c.y.a.l.).",
"` | | | | | | | o.} } } } } X.q.`.+XOX+Xb.u b.{.U.S.P.p.R E t._.",
"` | | | | } | | } o.} } } ] 7.Y.OX+X+XOX-.4.}.}.{.k.C.J.y.y.S.D.",
"` | | } } } | } } } } } F a i.G.~..X+XI.2.^.}.{.OXQ.a.t.j.k.n.E.",
"` o.| | } | } | } } } F M I D.XX{.~.W.v.T.^.{.~.I.b.j.~ <.6.v.T.",
"` o.| | o.| | } o.o.} C N s.{.@X+X~.T.I./.{.|.{.=.t x K 1.v.v.b.",
"` o.| | O.} | | } } [ ! L A..X@X+X|.T.T./.{.}.~.OXv.t ; t Z.T.~.",
"` o.| | } } } } } } G ! Q '.XXXX@XXXU.|.~.OXXXb.=.@.*.c 4.W.{.+X",
"` | } } } } } } } ..C N t.Q.oXXX@XXXE.Q.{.+XU.@.4.Z.5.@.{.E.{.+X",
"_ o.| | | | | } } ] n i a.Q.XXXXoXXXQ..XoX@X.X.XoXoX1.;.XXh.(.XX",
"_ o.| | | | | } } 9.B i u.{.XXT.{.XX!.XXXXXXoXXXoX'.&.v.[.{ q.N.",
"_ | } } | | | | } e.L i a.'.XXQ.!.XX`.@X+XoXoX@X X`.{.}.f.....T ",
"_ } } } } | | | | [ n N d.'.@XXXXXXX`.oXoXoXXXXX XXXoXB...X.X.] ",
"` | } } | | | } | } A L y.'.@X@XXX X!.oX@XXX@XXX+X@XM.{ X.X.X...",
"` | | | | | | | | | Z P W `.oXXX@X|.{.oXXXoXXX@XoXV.{ | X.X.} } ",
"` | | | | | | | | | F N L F. X@X@XE.|.XXoXXXoXXXV.0.| | | | } | ",
"` o.| | | | | | | | ] m M u.|.@XXXj.E.oXXXoX XT.7...| | | } } | ",
"_ | } | } } } | } 0.B.p.M W D.XXF.8.n. X@X@X.X'.S.f.X.} | | | | ",
"_ | | | X.} | X.q.(.oX Xp.W :.g.r.z.U.Y.}. X|.`. Xm...| | | | | ",
"` | } | } } X.0.(.oXoX+XoX'.A.H.M.Y.'.XX{.'.|..XE.N.[ o.| | | O.",
"` | } } X.X.+.V.XXXXXXoXoXXX X'.Q.{.XX+XXXoXXX}.{.E.w.o.| | | O.",
"` | } } | X.f..XXXoXXXoXXXXXoXXXXXoXXX@XXX+XXX{.T.T.m...} X.} [ "
};
