/* XPM */
static char *yamada_21[] = {
/* columns rows colors chars-per-pixel */
"32 37 203 2 ",
"   c #453648",
".  c #4B3C4E",
"X  c #453548",
"o  c #553C4E",
"O  c #503F52",
"+  c #534449",
"@  c #4F4052",
"#  c #534253",
"$  c #584656",
"%  c #5B455A",
"&  c #5C495A",
"*  c #5A4A55",
"=  c #6D594D",
"-  c #6C4355",
";  c #60475D",
":  c #634A5E",
">  c #6B4B5F",
",  c #604855",
"<  c #645454",
"1  c #63535A",
"2  c #68535D",
"3  c #6A585A",
"4  c #745E5C",
"5  c #754E52",
"6  c #7D695F",
"7  c #7D4E62",
"8  c #764D61",
"9  c #6B5C63",
"0  c #655862",
"q  c #795A62",
"w  c #6C606A",
"e  c #7B6A6A",
"r  c #776A71",
"t  c #AF4E29",
"y  c #AE532F",
"u  c #AA5B34",
"i  c #AB5834",
"p  c #BF6239",
"a  c #C6653D",
"s  c #D6633A",
"d  c #B9704E",
"f  c #BA7E5C",
"g  c #B46846",
"h  c #844E64",
"j  c #9A556B",
"k  c #885268",
"l  c #A0576F",
"z  c #A45B71",
"x  c #86686A",
"c  c #8C776F",
"v  c #947E6B",
"b  c #857879",
"n  c #947E73",
"m  c #AA6175",
"M  c #BF637B",
"N  c #B76279",
"B  c #C26D41",
"V  c #C96F47",
"C  c #C5744A",
"Z  c #C57248",
"A  c #D4724A",
"S  c #C67A55",
"D  c #C3627B",
"F  c #D0657F",
"G  c #C2727B",
"H  c #BE835C",
"J  c #8D827E",
"K  c #95847A",
"L  c #9C897A",
"P  c #BB806C",
"I  c #A28F7E",
"U  c #C68E5C",
"Y  c #C88855",
"T  c #D4815E",
"R  c #C98C68",
"E  c #C99560",
"W  c #D29C62",
"Q  c #DC8D7C",
"!  c #C89474",
"~  c #D4A166",
"^  c #BB7482",
"/  c #CD6681",
"(  c #D56A85",
")  c #DA6A87",
"_  c #DF6C89",
"`  c #C57C84",
"'  c #DD758C",
"]  c #DC7B8D",
"[  c #D77987",
"{  c #DD7D91",
"}  c #E76F8E",
"|  c #E86F8F",
" . c #E4728E",
".. c #E8708F",
"X. c #EA6F90",
"o. c #E47490",
"O. c #E87090",
"+. c #E07E93",
"@. c #958983",
"#. c #9A8981",
"$. c #92888D",
"%. c #968C90",
"&. c #9B9091",
"*. c #B78E83",
"=. c #A3968F",
"-. c #AB9684",
";. c #B39883",
":. c #A79B95",
">. c #BC9B96",
",. c #BBA08B",
"<. c #B7A08D",
"1. c #ADA29D",
"2. c #B4A394",
"3. c #B3A69E",
"4. c #BAA796",
"5. c #B4A9A4",
"6. c #B2AAA7",
"7. c #BDB1AB",
"8. c #BCB4B1",
"9. c #D3828F",
"0. c #CA9A87",
"q. c #D49A85",
"w. c #DC8494",
"e. c #DB8A94",
"r. c #D58E98",
"t. c #DC8998",
"y. c #D78191",
"u. c #D2979C",
"i. c #DB939C",
"p. c #DD9F9E",
"a. c #C88688",
"s. c #E08A9A",
"d. c #CAA38B",
"f. c #C3A48D",
"g. c #C8AA96",
"h. c #D8A79A",
"j. c #CCB29A",
"k. c #D7B79C",
"l. c #D1A889",
"z. c #DB9AA3",
"x. c #DA9AA4",
"c. c #E19FA7",
"v. c #C7ACA4",
"b. c #DBA3A2",
"n. c #D9A5AA",
"m. c #D9AAA8",
"M. c #C6B5A7",
"N. c #D5BBA5",
"B. c #D4BCAA",
"V. c #D7B7A8",
"C. c #DCAEB1",
"Z. c #C6BDB6",
"A. c #DCB5B5",
"S. c #DBB8B5",
"D. c #D7BCB8",
"F. c #E1B5AA",
"G. c #D6C2AD",
"H. c #DBC4AD",
"J. c #D7C1A7",
"K. c #C7C1BD",
"L. c #D6C4B2",
"P. c #DDC8B6",
"I. c #D4C6B9",
"U. c #DCC2BE",
"Y. c #DACAB9",
"T. c #E1C1AC",
"R. c #E4C4B4",
"E. c #E3CBB6",
"W. c #E4CEBC",
"Q. c #E8CFBC",
"!. c #E4D0BE",
"~. c #E8D2BF",
"^. c #D8BFC0",
"/. c #CEC9C5",
"(. c #D3CBC4",
"). c #DCCCC3",
"_. c #DCCCC8",
"`. c #D3CBC5",
"'. c #DCD1C7",
"]. c #D6D0CB",
"[. c #DCD3CC",
"{. c #DBD6D1",
"}. c #DCD9D4",
"|. c #DFDDD9",
" X c #E3CDC6",
".X c #E2CEC9",
"XX c #E0C6C1",
"oX c #EAD6C3",
"OX c #ECD8C7",
"+X c #E2D4CB",
"@X c #E1D9CF",
"#X c #ECD9C9",
"$X c #E2D2C0",
"%X c #E1D6D2",
"&X c #E3DCD4",
"*X c #E9DED5",
"=X c #E1DED9",
"-X c #E3E1DD",
";X c #EBE5DD",
":X c #EAE3D9",
">X c #E6E5E1",
",X c #E9E6E1",
"<X c #ECE8E2",
/* pixels */
") | } | } } } } } } } ( z 7 > > > 8 l / } } } } } } } } } } } } ",
") ..} } } } } } } } / k : : : : : ; : 7 M } } } } } } } } } | | ",
") | | | } } | | } ( h & ; % ; % ; ; ; ; 8 D | | } } } } } } } } ",
") | | |  .} } | } l & % % % % % & % % & > x ) | } } } } } } } } ",
"( | } | | } } | ( 7 & $ # # # $ % # # $ % > z | } } } } X.} } X.",
") | } } | | } | M > $ # O # O O O O # O @ # 7 ) } } } } } } } } ",
") } } } } | } } j o . . O 1 # . O O e 1 $ . $ F | | } } } | ' { ",
") } } } } | | _ h . . . * n 9 . . 2 I n 6   O D | | } } } w.A.{.",
") O.} } } } } _ 8   X : K ,.K + < I g.>.v # o D | | } | ' A.}.>X",
") } } } } } X.) - X X c -.-.v 4.G.H.I L ;.3 - F | | } | w.%X}.-X",
") } } } } X.} / o X @ <.Z.K n oX~.~.K =.L.4 j _ } } } } i.=X|.=X",
") X.} } } X.} N # X < B.$X7.3.oXOXOXB.Y.P.x ^ o.} } } } b.-X-X}.",
") } } } } } ] >.8.$ x B.~.OXOXOXOX~.OXOXL.@.D.o.| | X.+._.>X>X{.",
") O.X.} } } x.=XZ.1 :.L.!.OXoXE.H.N.~.OXM.1.%X{ | | | t.=X>X>X&X",
"( X.} } } } C.>X/.0 6.[.).$X~.q.Q P H.P.b Z.&Xw.| | | w.%X>X>X>X",
") X.} } X.O.A.>X}.r 7.}.|.I.P.k.q.j.P.e 9 }.}.w.| } | y._.>X>X>X",
") } } | O.' U.<X;Xr 3.}.;XK.#.;.,.4.8.$ %.>X&Xt.| |  .v.`.,X>X>X",
") | } } X.w.[.<X<X&.1.}.{.r + = < @.$.* 8.;X>XC. .| { _./.=X>X,X",
") } } | } z.[.-X<X7.1.}.}.:.@.2.J ].w r /.,X,X.X{ } { %X{.|.>X>X",
") | } } } z.-X}.-X/.3.;X/.J 4.;.K 1.w 6.}.<X,X+X{ } { _.>X|.>X>X",
") | | | | x.;X-X-X|.6.;X(.6 d Z ! 1.b [.-X;X>XA.o.X.{ _.>X-X|.>X",
") | | | | z.;X,X;X<XZ.}.K.= y s T 2.=.'.-X,X&Xu.O.X.t.=X>X>X}.>X",
") | | } ..w.).;X<X;X].{.|.;.u a C ,.2.v.U.%XI.e.O.O.x.>X>X>X|.{.",
"( | | | .. .9.I.|.;X}.&X<Xk.u Z Y d.>.[ q.P.~.e.O.} x.>X>X>X-X].",
") | } } } |  .A.!.I.I.-X<XN.y p W ! *.[ h.OXQ.e.} } x.|.|.}.|.{.",
") | | | } |  .F.#X~.L.;X;XN.y p W R j.[ p.~.Q.w.} } x./.}.>X=X|.",
") | | } | |  .b.OX~.I.;X'.J.! f Z S g.a.R.~.Q.w.O.} n.>X>X>X>X>X",
") X.| | | | ..h.OXoXY.Y.L.E.H.R s A f.k.~.OXR.] O.o.D.>X>X>X>X>X",
") | | | | } } e.!.#X#XoXH.Q.H.R s A k.N.oXR.i. .| } ).>X>X>X>X>X",
")  .| | | |  .9.J.!.!.!.k.k.l.d V C f.j.z.{  .| | | z.%X>X>X>X>X",
") | | | | |  .S.'.@X*X[.H.j.H t Y U f.v.] | X.| | X.} t.A.&X>X>X",
") | | | | ..{ $X:X'.{.:X;X:Xh.y U E j.+Xr.} | X.| | } } t./.}.}.",
") | | | |  .C.*X[.&X}._.}.;XN.u Y U g.&X.Xb.o.O.O.| X...n.|.|.|.",
") | | | | i.*X&X).u.` ` D.Y.H.u B C B.|.=X*Xn. .X.| | s.].-X>X|.",
") | | | { XX<X*XU.M G a.).).H.g s C M.'.%X@X:Xz.O.} | x.|.|.-X|.",
") | |  .b.;X<X:X).S.V.V.[.;X;Xd.H d.Y.&X;X&X;XoXw.O.o.D.-X-X-X-X",
") | | ]  X;X<X;X%X[.(.(.&X;X;X:XI.:X@X[.'.'.;X;XA. .e.{.|.>X|.|."
};
