/* XPM */
static char *yamada_0[] = {
/* columns rows colors chars-per-pixel */
"32 37 205 2 ",
"   c #302635",
".  c #352A37",
"X  c #3A2D3F",
"o  c #362B3B",
"O  c #43373F",
"+  c #3E2F40",
"@  c #3F3143",
"#  c #443546",
"$  c #4A384A",
"%  c #513F4E",
"&  c #4F3D51",
"*  c #573C50",
"=  c #623F51",
"-  c #4B414D",
";  c #534549",
":  c #5E465B",
">  c #574554",
",  c #644C5D",
"<  c #68465B",
"1  c #78485B",
"2  c #635557",
"3  c #735F53",
"4  c #71645F",
"5  c #794C61",
"6  c #6D5561",
"7  c #695A64",
"8  c #725A64",
"9  c #6F636C",
"0  c #7C6E6C",
"q  c #786469",
"w  c #7E726D",
"e  c #7B6E74",
"r  c #7F7177",
"t  c #AC4E2B",
"y  c #B34826",
"u  c #AD512C",
"i  c #B05C36",
"p  c #A85D35",
"a  c #A6633D",
"s  c #BD673E",
"d  c #D7693D",
"f  c #A96945",
"g  c #BA6D48",
"h  c #AF754D",
"j  c #B97348",
"k  c #B66459",
"l  c #B5795B",
"z  c #AA795E",
"x  c #844E63",
"c  c #875166",
"v  c #945569",
"b  c #A85870",
"n  c #806D6C",
"m  c #857569",
"M  c #866E72",
"N  c #8A6F72",
"B  c #9E6471",
"V  c #8B7276",
"C  c #897B7A",
"Z  c #957F75",
"A  c #B46D71",
"S  c #D16E44",
"D  c #C9764B",
"F  c #CB6C42",
"G  c #C2657A",
"H  c #BB805D",
"J  c #93857C",
"K  c #988479",
"L  c #B98F73",
"P  c #C9865A",
"I  c #C48658",
"U  c #C9945E",
"Y  c #D4895B",
"T  c #C18E65",
"R  c #D48E60",
"E  c #C59064",
"W  c #C89464",
"Q  c #D09163",
"!  c #C28D73",
"~  c #C69678",
"^  c #D8917F",
"/  c #DA8B7C",
"(  c #E18A7D",
")  c #C4A175",
"_  c #CBA579",
"`  c #D4A37D",
"'  c #D6B17F",
"]  c #877C81",
"[  c #DB6A87",
"{  c #DC6A88",
"}  c #D46985",
"|  c #DD748C",
" . c #DF788F",
".. c #DE7D92",
"X. c #E76F8E",
"o. c #E86F8F",
"O. c #E4738E",
"+. c #E8708F",
"@. c #EA6F90",
"#. c #E97190",
"$. c #E07B91",
"%. c #9D8382",
"&. c #958883",
"*. c #928685",
"=. c #A28C83",
"-. c #BF8580",
";. c #AC9585",
":. c #AD9A8C",
">. c #A8948A",
",. c #B59B8A",
"<. c #A09796",
"1. c #A49C99",
"2. c #BFA48F",
"3. c #BBA293",
"4. c #BAA79B",
"5. c #AEA6A4",
"6. c #B8ADA8",
"7. c #BBB3B1",
"8. c #C59B8A",
"9. c #D89785",
"0. c #DD8294",
"q. c #D88994",
"w. c #C79899",
"e. c #DC939E",
"r. c #D6979A",
"t. c #CF898B",
"y. c #E08493",
"u. c #E0969E",
"i. c #CAA284",
"p. c #C7A889",
"a. c #D2A88B",
"s. c #CBB38B",
"d. c #D4B686",
"f. c #C5A598",
"g. c #C8AF9B",
"h. c #D5AD93",
"j. c #CDB198",
"k. c #D1B39B",
"l. c #D4B292",
"z. c #DD98A1",
"x. c #D5ACAB",
"c. c #DAA7A6",
"v. c #CCB4A2",
"b. c #CDB9A5",
"n. c #CCBAAC",
"m. c #C4B4A9",
"M. c #D2B7A1",
"N. c #DBBBA7",
"B. c #D4BDAA",
"V. c #DFB4A6",
"C. c #C3BBB4",
"Z. c #CBBEB4",
"A. c #C2BCB9",
"S. c #C1B6B0",
"D. c #DDB2B2",
"F. c #DABDB6",
"G. c #C7A9A8",
"H. c #E0B3AA",
"J. c #E0BEBB",
"K. c #E1A8A7",
"L. c #DECD9C",
"P. c #DAC192",
"I. c #DFD19F",
"U. c #E2D39E",
"Y. c #DDC5AD",
"T. c #DFD1A2",
"R. c #C9C2BD",
"E. c #DBC4B2",
"W. c #DDC9BA",
"Q. c #D8C6B9",
"!. c #E2C1AC",
"~. c #E2D4A3",
"^. c #E1D5A8",
"/. c #E3C5B3",
"(. c #E1C2BE",
"). c #E5CDBB",
"_. c #E8CEBB",
"`. c #E3CBB4",
"'. c #E9D2BE",
"]. c #CDC6C1",
"[. c #D3CAC3",
"{. c #DCCDC1",
"}. c #DCD4CC",
"|. c #DAD1C0",
" X c #DCD7D1",
".X c #DED8D1",
"XX c #DFDCD8",
"oX c #E1C6C1",
"OX c #E2CBC5",
"+X c #E1CFC8",
"@X c #E4D3C4",
"#X c #EAD5C3",
"$X c #ECD8C6",
"%X c #E2D6CC",
"&X c #E0D8CE",
"*X c #ECD9C8",
"=X c #E3DBD3",
"-X c #E8DCD3",
";X c #E5DFD8",
":X c #E9E0D6",
">X c #E5E1DB",
",X c #ECE6DE",
"<X c #EEE8DF",
"1X c #EBE7E0",
"2X c #EDE8E0",
/* pixels */
"[ o.X.o.o.o.o.o.X.X.X.X.o.X.o.o.B 6 , , N V V , , q :.8 6 : , c ",
"{ o.X.o.o.o.o.o.X.X.X.o.X.o.#.X.v 6 6 8 >.;.=., , 8 3.:.V < < v ",
"{ @.X.X.X.o.o.o.o.o.o.o.o.o.o.{ 5 < 6 Z ;.;.;.M N Z ,.p.=.< : v ",
"[ o.o.X.X.X.o.o.o.o.o.o.o.o.o.[ 5 : 8 >.:.K 3.W.OXE.:.=.=.n : , ",
"[ @.X.X.X.X.X.o.o.o.o.o.o.o.#.{ 5 > 8 n.A.n m.$X*X#X&.>.n.N < c ",
"[ #.X.X.o.o.X.X.o.o.o.o.o.o.@.{ 5 & , n.@XZ.W.*X#X#XZ.Q.W.q c [ ",
"[ @.X.X.o.o.X.o.o.o.o.o.o.o.o.{ 5 # > 6.$X*X$X*X#X#X*X$XE.7 5 { ",
"[ @.o.o.o.o.+.X.o.o.o.o.o.o.X.X.x + $ %.$X*X#X/.V.B.#X*XB.: < [ ",
"[ @.X.X.o.@.X.X.@.X.@.X.o.o.o.o.v o # w '.$XN.( / z Y.#X3.% * A ",
"[ @.X.@.X.@.X.X.o.@.@.X.o.o.o.o.b + + > g.$X/.9.9.9.).g.2 # $ b ",
"[ @.@.X.@.X.o.@.X.o.o.o.o.o.o.o.} # . # C k.`.!.H.N.K %   # $ 1 ",
"[ @.@.X.X.X.X.X.o.o.@.X.o.o.o.| t.M e 9 M b.a.l.M.G.0 % o O = = ",
"[ @.o.o.X.X.o.o.@.o.o.o.o.o...x.XX X XA.9 S.a.` 3.A.A.].5.7 = B ",
"[ o.o.o.o.o.X.X.X.X.o.o.o.$.{..X;X;X X}.1.*.k.i.3.R.].=X,XJ.M ] ",
"[ @.o.o.o.o.o.o.o.X.o.o.O.D.1X=X;X;X%X X X] 4.~ G.XX}. X>X=XA.] ",
"{ @.o.X.X.X.o.o.@.o.o.X.z.;X2X;X;X;X=X=X1X7.9 3 *.].}.=X;X;X>X<.",
"{ o.o.o.o.o.o.o.o.o.X.0.+X1X1XXX;X;X=X{.>X6.; 2 C 0 7..X.X>X<X X",
"{ o.o.o.o.o.o.o.o.o...J.,X1X1X>X;X[.f.) j.&.4 m J R.R. X X<X,X,X",
"{ o.o.o.o.o.o.o.o.0.oX,X1X1X1X>XZ.z u f j H >.J J <. X[.>X1X<X,X",
"X.o.o.o.o.o.o.o.O.x.=X1X1X1X1X[.z f i ) P S L m 7.J 7.[.,X1X,X,X",
"[ o.X.o.o.o.o.$.K._.Q.W.>X1X1X-.a p E U.' D T m 1.A.w 5.,X1X1X1X",
"[ o.X.o.o.o.X.e.'.$X'.j.A.1X Xf t i d.~.P.U W ,.w A.1.; 7.2X1X1X",
"{ o.o.o.@.o.0./.'.#XF.w.w.G.f.u y j U.~.I.W U k.C.C.5.  2 R.XXR.",
"{ o.o.o.#.O.H.`.`.Y.q.O.|  .k y y P ~.~.U.W j i.&X>XJ   @ :.Y.k.",
"{ o.o.o.o.y._.#X#X_.e.O.#.O.k Q j ) ~.^.~.Q d ~ |.:XZ ] %.b.E.`.",
"X.o.X.X.o.$.J.$X#X*X_.r.O.| 8.Y.l.d.^.^.~.R d a.=X'.q.{.Q.`.Y.E.",
"[ X.X.X.X.X.y.H.#X$X$X#Xc.r._.`.j.s.^.^.T.Y S h.:XN. .e.).}.{.%X",
"[ X.X.X.+.+.+.O.q.H._.*X'.).'.`.s.2.^.T.T.D F p.=Xr.#.O.e.OX:X:X",
"X.o.X.X.X.+.X.+.+.| q.h./.'.#Xh.j L U.U.P.I P M.%Xr.@.@.X...e.z.",
"G +.o.o.X.X.X.X.o.+.+.+.q.F.E.g u j L.~._ U ) Y.}.x.O.@.@.X.X.X.",
"X.o.o.o.o.o.X.o.X.o.+...z.:X:XL j i d.L.L I p.@X-X%Xe.X.@.X.X.X.",
"X.o.o.o.o.o.X.X.X.X.+.c.>X,X<XE.f t h ) S P b.,X<X<X-Xu.X.@.X.o.",
"G @.o.o.o.o.o.o.o.o...oX1X<X,X%X,.f a d D g.=X<X<X,X,X%X0.@.@.o.",
"X.@.o.o.o.o.o.o.X.X.H.:X<X<X;XW.v.t.l i.E..X<X<X:X=X&X:X(.$.@.#.",
"[ o.o.o.o.o.o.o.X.e.-X<X1X1X}.c.A G t.{.,X1X<X<X.X-X=X&X,XK.|  .",
"X.o.o.o.o.o.o.o.O.J.<X<X1X1X XF.r.w.F.=X,X,X,X2X=X=X=X&X1X=Xe.z.",
"G @.@.@.o.o.o.o.y.-X1X1X,X1X:X&X%X+X{.-X<X1X2X2X=X[.}.:X,X,XF.F."
};
