/* XPM */
static char *yamada_12[] = {
/* columns rows colors chars-per-pixel */
"32 37 194 2 ",
"   c #2B2334",
".  c #332839",
"X  c #392B3E",
"o  c #312739",
"O  c #3E2F41",
"+  c #3E3042",
"@  c #423245",
"#  c #453649",
"$  c #4A3A4C",
"%  c #4A374A",
"&  c #54384B",
"*  c #4C3D50",
"=  c #513F52",
"-  c #54424F",
";  c #544255",
":  c #564856",
">  c #5A4954",
",  c #5B4559",
"<  c #5F485D",
"1  c #584452",
"2  c #674051",
"3  c #6A4153",
"4  c #61485D",
"5  c #63475C",
"6  c #7A485C",
"7  c #6C5C5A",
"8  c #67545E",
"9  c #745C50",
"0  c #726259",
"q  c #754C61",
"w  c #645863",
"e  c #715F62",
"r  c #6C616A",
"t  c #6E6262",
"y  c #70686E",
"u  c #7D6A6A",
"i  c #746365",
"p  c #DB673C",
"a  c #D8693F",
"s  c #D56A3F",
"d  c #894B5F",
"f  c #894D61",
"g  c #805166",
"h  c #885467",
"j  c #8D546A",
"k  c #96566A",
"l  c #A7576E",
"z  c #AE5C74",
"x  c #A75A72",
"c  c #B35A72",
"v  c #8A7365",
"b  c #927A6F",
"n  c #817374",
"m  c #897A75",
"M  c #907E74",
"N  c #D66F45",
"B  c #C9794B",
"V  c #D4734C",
"C  c #D07044",
"Z  c #CC6751",
"A  c #C87A5E",
"S  c #D57F57",
"D  c #D36C67",
"F  c #C4627C",
"G  c #D86C78",
"H  c #95837B",
"J  c #9C897F",
"K  c #99857A",
"L  c #AA947F",
"P  c #C5855B",
"I  c #CF8D5D",
"U  c #C68466",
"Y  c #D08869",
"T  c #CD9666",
"R  c #D2966A",
"E  c #C79E7F",
"W  c #CB9271",
"Q  c #D19779",
"!  c #DB8A7A",
"~  c #CEA069",
"^  c #D8A567",
"/  c #CD6781",
"(  c #D26883",
")  c #DB6A87",
"_  c #DC6A88",
"`  c #DE768C",
"'  c #DA7B8D",
"]  c #D97586",
"[  c #DF7C91",
"{  c #E76F8E",
"}  c #E86F8F",
"|  c #E5738E",
" . c #E8708F",
".. c #EA6F90",
"X. c #E37690",
"o. c #E87190",
"O. c #E17A91",
"+. c #938985",
"@. c #91868A",
"#. c #9C8981",
"$. c #9E9598",
"%. c #9B9092",
"&. c #A28F80",
"*. c #AB998B",
"=. c #A89889",
"-. c #B69F8D",
";. c #AD9E95",
":. c #A39A97",
">. c #A9A19D",
",. c #BAA898",
"<. c #ACA3A0",
"1. c #B4AAA4",
"2. c #BBAEA6",
"3. c #BCB2AB",
"4. c #BDB6B1",
"5. c #D08E80",
"6. c #D68284",
"7. c #C49986",
"8. c #D99A8B",
"9. c #D39286",
"0. c #D78894",
"q. c #DB8E9A",
"w. c #DF8394",
"e. c #DD9296",
"r. c #DD949B",
"t. c #E08997",
"y. c #C7A181",
"u. c #CCA383",
"i. c #CBA489",
"p. c #D4A38B",
"a. c #D1A185",
"s. c #CDA990",
"d. c #DBAB94",
"f. c #D5A992",
"g. c #CAB49B",
"h. c #D3B398",
"j. c #E1B99F",
"k. c #DB96A0",
"l. c #CBABA7",
"z. c #DEA1A6",
"x. c #D0ACA5",
"c. c #DAA5A7",
"v. c #C3B1A3",
"b. c #CBB6A5",
"n. c #CFB8A3",
"m. c #C2B8AF",
"M. c #CCB8AF",
"N. c #D5BDA5",
"B. c #DFBAA0",
"V. c #D4BDA8",
"C. c #DBB4A8",
"Z. c #CCBEB1",
"A. c #C3BAB3",
"S. c #DABDB8",
"D. c #E0A0A7",
"F. c #E2B5AB",
"G. c #E1AFB1",
"H. c #E0B4B3",
"J. c #D9C4AE",
"K. c #CFC1B5",
"L. c #CEC5BD",
"P. c #DAC5B2",
"I. c #D3C5BB",
"U. c #DBCCBF",
"Y. c #D6C2B6",
"T. c #E2C6AD",
"R. c #E3CDBC",
"E. c #E5CAB8",
"W. c #E6D2BE",
"Q. c #E8D3BF",
"!. c #CEC8C2",
"~. c #D2CBC5",
"^. c #D2CECA",
"/. c #DACCC3",
"(. c #D7D1CA",
"). c #DCD4CC",
"_. c #DFD3C5",
"`. c #DED9D3",
"'. c #E4C9C3",
"]. c #EAD6C4",
"[. c #ECD8C7",
"{. c #E1D5CB",
"}. c #E2D9CE",
"|. c #ECD9C8",
" X c #E3DCD4",
".X c #E8DDD4",
"XX c #E3DED9",
"oX c #E6E0D6",
"OX c #E9E0D6",
"+X c #E6E1DA",
"@X c #ECE6DE",
"#X c #EDE8DF",
"$X c #EAE6E0",
"%X c #EDE8E0",
/* pixels */
"_ } } { } } } } } } } } { } { } ..} } } { { { } } { { ( _ ` } } ",
"_ } { { { } } } } } } { { { } } { } } } { { { { ( z k q q j x / ",
") } } } } { { { } { { { { { ....} } } } } } _ z q 5 4 < < < 4 q ",
") } } } { } { { } } { } { { ..} } { { } { ( j 5 4 < , , , , , , ",
")  ...{ { { } { { } } } } } ..} { {  .{ / h < ; ; ; ; ; ; ; , ; ",
"_ ..{ { { ..} { { } } } } { } { { {  .F q , ; ; ; ; ; ; * ; ; * ",
"_ } } { { } } { { } } } { { { } { { / 6 $ $ $ $ * w e 1 * * > 1 ",
") ..{ ..{ { ..{ } { } } } } } } { { d % $ # $ $ = K H i $ $ e u ",
"_ ..} } { { ..{ { } } { } } } }  .c 2 $ @ . @ % 7 -.*.u # @ e *.",
") ..} } ..{ { ..} { ..{ { } } } _ d 3 @ . o @ $ b n.g.K n m J J.",
") ..} } ..{ {  ...} { } } { } } F 6 & X   . + ; #.-.L J.].].N.s.",
") } } } { } .. .{ } ..{ { { { } l 2 @ .   . + i Z.:.M R.].|.v.v ",
") } { { { ..{ { { { ..{ { { { { k & .     o O H W.I.Z.].].|.Z.;.",
") ....{ { {  .{ { { { { { { { { d % 8 y r ; + #.].].[.[.].].|.].",
") { { { { { { { { { { } } { ..{ k $.`.+X(.:.: 2.R.].].W.Q.].].].",
") ..} { { { { { ..} ..{ { { ..| M.$X$X@XXX$.r I.b.[.Q.p.8.7.P.|.",
") ....{ } { { {  . . . .{ {  .r.XX$X$X$X`.@.%.).b.V.Q.d.! 9.E.W.",
") ..{ ..} { ..} {  .{ { { | 0.U.+X@X$X@X^.@.L.XX Xg.h.J.h.V.U.I.",
") ..{ { { { ..{ { { {  .{ ] U U Z.^.`.$X4.<.`.+X%X{.i.y.v.m.).).",
") ..{ ..{ { { {  .{ { o.[ 5.s Y /.@X`.`.4.^. X`.^.A.u.E 3.4.(.+X",
"_ ..{ } } } { {  ...{ { ` A C f. X%X+X!.).+X}.~.u t 9 v 1.L.^.@X",
"_ ..} } } } } { { { } } G T I n.@X%X$X). X@X X`.`.>.0 7 +.~.`.+X",
") ..} { ..{ { { { { { { D ^ T _.@X%X@X).`.%X@X`.1.H &.:.(.).@X@X",
") ..{ { { { { { { { { _ Z B W {.%X@X%X`.+X%X@X1.+.L.=.;..X(.$X$X",
") } { } } } } { } } { 6.C p Q }.%X@X#XoX@X#X@XA.(.oX,.1.'.x.@XXX",
") ..} } } } } { } } X.d.V p u. X@X}. X+X+X@X@X%XoX).L.L.z.' x.V.",
") } { { { } } {  . .r.h.N s i.}.%XOX X+X@X@X#X@X X#X#X'.O.} 9.T.",
") } { { } ..} }  . .e.j.V B h. X%X%X%X.X@X#X@X@X#X#X|.r.{ ..t.R.",
") } { { { } } }  .{ ` 8.I ~ s.}.%X@X%X+X+X#X#X#X%XOXc. .} } | F.",
") ..{ { { } } }  . . .] P ~ i.oX@X%X@X X@X#X@X#X@XG.O.{ } } o.e.",
")  .} { { } } }  . . .' U B 8.).#X@X@X X@X@X%X@XS.O.o.{ } } ..| ",
") ..} ..} } } }  . .| S.d.s R {.#X#X@X X%X@X#X Xx.` o.} { { } } ",
")  .{ ..{ { ......{ z..XR.V I T.OX%X}.}.@X#X@X@XU.C.o... . .{  .",
")  .{ { { { { { X.k..X$XOXp.I 7.U.}.K.U.{.{.}.OXOX{.O... .{ {  .",
")  . .{ { ..{ { q..X%X%X$X.Xg.7.l.M./.+X+X+X@X.X)./.t... . ...o.",
") ..{ { { { ..t.'.%X%X%X%X%X X/.).). X%X%X%X@X X+X{.H.X. . ...` ",
")  .{ { { { o.C.@X@X%X@X%X@X%X+X.X@X@X@X#X#X@X).).{..Xq.} {  .q."
};
