/* XPM */
static char *yamada_25[] = {
/* columns rows colors chars-per-pixel */
"32 37 204 2 ",
"   c #2D2435",
".  c #33283A",
"X  c #3C2E40",
"o  c #3D3041",
"O  c #423344",
"+  c #4B3B4D",
"@  c #483846",
"#  c #553D4B",
"$  c #4D3D50",
"%  c #503F51",
"&  c #544254",
"*  c #5B4354",
"=  c #5C465A",
"-  c #5F485C",
";  c #594953",
":  c #5F535C",
">  c #65564E",
",  c #6A4255",
"<  c #60475D",
"1  c #624A5D",
"2  c #6B4B5F",
"3  c #664A57",
"4  c #685658",
"5  c #74465A",
"6  c #6A4C60",
"7  c #724B60",
"8  c #6D5561",
"9  c #6C5B61",
"0  c #675A62",
"q  c #735E63",
"w  c #7A6665",
"e  c #7C6469",
"r  c #75666C",
"t  c #7B6E72",
"y  c #7E7174",
"u  c #D5673C",
"i  c #D6693E",
"p  c #BE7347",
"a  c #844F63",
"s  c #815065",
"d  c #98546A",
"f  c #975A6B",
"g  c #A55A72",
"h  c #84736E",
"j  c #8B746C",
"k  c #8E6772",
"l  c #8C7871",
"z  c #857979",
"x  c #947C76",
"c  c #BC7C6E",
"v  c #B56178",
"b  c #A3737A",
"n  c #C16F44",
"m  c #D96B41",
"M  c #D66C43",
"N  c #CC764D",
"B  c #C9784B",
"V  c #C27952",
"C  c #CA7755",
"Z  c #C4637D",
"A  c #CB6C73",
"S  c #D66D7A",
"D  c #8D827D",
"F  c #9A8371",
"G  c #9A877D",
"H  c #BA8A6E",
"J  c #BA8874",
"K  c #CE8656",
"L  c #C88A61",
"P  c #CC9666",
"I  c #D19E67",
"U  c #DA8B7C",
"Y  c #CA9374",
"T  c #C69474",
"R  c #D19575",
"E  c #D5A668",
"W  c #C8A07D",
"Q  c #CA6680",
"!  c #DB6A87",
"~  c #DD6B88",
"^  c #D06783",
"/  c #DD738B",
"(  c #DE798F",
")  c #D4778C",
"_  c #DB7E90",
"`  c #E76F8E",
"'  c #E86F8F",
"]  c #E4738E",
"[  c #E8708F",
"{  c #E2798F",
"}  c #EA6F90",
"|  c #E97090",
" . c #E27790",
".. c #8E8384",
"X. c #8F888A",
"o. c #9C8B86",
"O. c #9B918C",
"+. c #9C9394",
"@. c #A18D81",
"#. c #AA9788",
"$. c #B19985",
"%. c #B39989",
"&. c #A89F9E",
"*. c #A39793",
"=. c #B69992",
"-. c #B5A08C",
";. c #AFA093",
":. c #BDA692",
">. c #BCAC9C",
",. c #ADA5A1",
"<. c #B4ACA8",
"1. c #BAB0A9",
"2. c #BBB5B2",
"3. c #CF9D81",
"4. c #D49482",
"5. c #DC8291",
"6. c #DD8B94",
"7. c #DF8999",
"8. c #D29399",
"9. c #DB949F",
"0. c #DC9D9C",
"q. c #D39890",
"w. c #CDA58C",
"e. c #CCA888",
"r. c #D2A18E",
"t. c #CDAE94",
"y. c #CFAF98",
"u. c #C4A19A",
"i. c #D0AF91",
"p. c #C8B19D",
"a. c #C5B19D",
"s. c #DCB396",
"d. c #D6B39D",
"f. c #DB9CA3",
"g. c #CDADA5",
"h. c #CFA5A4",
"j. c #DDA6A9",
"k. c #D4AAAA",
"l. c #DCACAD",
"z. c #D5A7A2",
"x. c #C4B2A4",
"c. c #CFB6A0",
"v. c #C3B5AA",
"b. c #CCB9AC",
"n. c #CCB8A9",
"m. c #DBB4A3",
"M. c #D5BBA5",
"N. c #D3B0AC",
"B. c #DBBEAC",
"V. c #DBBBA6",
"C. c #CABEB5",
"Z. c #C3BDB8",
"A. c #C4BBB4",
"S. c #D5B0B3",
"D. c #DCB8B6",
"F. c #DDB5B3",
"G. c #E1A2A1",
"H. c #E1B1A9",
"J. c #D5C1AE",
"K. c #DDC0A7",
"L. c #C6C0BD",
"P. c #CDC5BE",
"I. c #CFC3B6",
"U. c #D6C5B5",
"Y. c #DEC6B1",
"T. c #D3C5BC",
"R. c #D6C8BA",
"E. c #DACBBD",
"W. c #DBC7B9",
"Q. c #E3C2B1",
"!. c #E3C9B5",
"~. c #E4CDBA",
"^. c #E5C8BD",
"/. c #E7D1BE",
"(. c #E9D4BE",
"). c #CDC6C1",
"_. c #D3CBC5",
"`. c #D9CDC4",
"'. c #D2CDC8",
"]. c #DBCFCB",
"[. c #DCD2C5",
"{. c #DCD4CB",
"}. c #DFD8CF",
"|. c #D7D0C9",
" X c #DBD6D0",
".X c #DED9D2",
"XX c #E2CDC3",
"oX c #E6D3C2",
"OX c #EBD6C4",
"+X c #ECD8C7",
"@X c #E4D4CC",
"#X c #E2D9CF",
"$X c #E8DDCE",
"%X c #E8D7D0",
"&X c #E4DCD3",
"*X c #E9DCD2",
"=X c #E3DED8",
"-X c #DFE1DE",
";X c #E6E2DC",
":X c #ECE6DE",
">X c #EAE3D9",
",X c #EAE6E0",
"<X c #EDE8E0",
"1X c #E7E5E0",
/* pixels */
"! ' ` ' ' ' ' ` ` ' ' ` ' ` ` ' ` ' ' ` ~ v 7 6 6 6 6 1 6 f Q ` ",
"! ' ` ' ' ' ' ' ' ' ` ' ` ' ' ' ' ` ` ` g 6 6 6 1 - 1 < < 6 7 Z ",
"~ } ' ' ` ' ` ' ' ' ' ' ' ' ' ' [ [ ^ f 6 - 6 - - - - - < < 6 7 ",
"! ' ' ` ` ` ` ' ' ' ' ' ' ' ` ' [ ~ f 8 - - - - = = = - - = < < ",
"! ` ` ' ' ' ' ` ` ' ' ' ' ` ` ` ` d = * * & * 4 r - & = e 2 3 = ",
"! } ` ' ' ' ' ' ' ` ` ` ` ` ` ` g * & & & & 4 @.G 9 & * o.x e & ",
"! [ ` ` ` ' ' ' ' ' ` ` ' ' ` Z , $ + + $ - l :.-.4 $ * %.$.x & ",
"! } } ' ' ` ' ' ' ' ' ` ' ` ` a * + O . + w $.p.p.h r h M.M.:.r ",
"! } ` ` ` ' } ` } } ` ' ` ` v , * @ . . & G ;.#.F c.~./.J.:.$.w ",
"! } } ` ` ` ` ` ` ` ' ` ` ` d # @ . . o ; a.R.O.l /.OX+Xx.j %.j ",
"! } ' ` ` ' ` ` ` ' } ` ' ` 7 O o   . o w Y.(.I.v.OXOX+Xn.O.U.#.",
"! } } ` ' ' ' ` } ' } ` ' ~ , o .   . . h Y.+X+X+X+XOXoXOXoXY.j ",
"! ' ' ' ` ' ' ' ' ' ' ` ' ~ , & z X.: O @ F (.+XoX!.Y.!.OXOXH.f ",
"! } ' ' ` ' ` ' ' ' ' ' ` ` k 2.1X Xr y <.1.R.+X!.4.U J W.OXj.S ",
"! | ' ' ' ' ` ' ' ' ' ' ` _ T.,X1XL.0 1.{.}.a.!.!.4.U r./.B.( / ",
"! ' ' ' ' ` ' ' ' } ' }  .D.,X,X1X<.X. X{.;XI.i.K.H.m.B.U.b.) ] ",
"` } ' ' ' ' ' ' ` } ' { l.:X,X1X1X+.Z..X{.1X;XR.e.e.v.1.[..Xk.) ",
"! } ' ' ' ' ' ' ` `  .j.U.R..X;X'.&.|.=X}.;X.X Xe.e.1.A.|.&X].b ",
"! ` ' ' ' ' ' ' ' / h.m.V L b.P.Z.'.{.>X.XL.y ..F G P.R.).`.&.t ",
"` ' ' } ' ' ' ' ` ) %.C u T R.}.P.{..X>X}.-XZ.D > 4 ,.L.*.X.+.'.",
"S ' ' ' ' ' ' ' ` ~ c n n t.$X:X).'.>X:X&X'.;.O.@.+.v.|..X=X,X,X",
"! ' ' ' ' ' ' ' ` 6.Y E P J.>X:X|..X:X<XC.D ,.T.o.). X{.;X,X,X,X",
"` ' ' ' ' ` [ [ 5.H.P E R E.:X<X&X>X:X:X).{.;Xv.y P.&X[.;X>X,X{.",
"! ' ' ' [ [ [ ] 0.K.N V T [.:X:X=X>X:X:X<X<X&X>.O.>X>Xk.=X<X{.U.",
"! ` ' ' ' ' ' { !.s.m u w.@X:X:X&X;X<X<X<X>XoX@X&X:XXX5.S.U.K.(.",
"! ` ' ' ' ' ` 0.OXs.m m d.&X{.`.#X*X:X:X<X&X&X<X:X>Xf.[ / q./.+X",
"! ' ' ' ' ` ' 5.B.s.u M t.#X&X&X&X>X<X<X<X=X:X<X:X^.( | [ 5.~.~.",
"! ' ' ' ` ` ` ` 5.4.p B B.>X:X:X&X>X:X<X:X:X<X:X@X7.' ' [ ] H./.",
"! ' ' ` ' ' ' ' [ A P K M.&X:X:X}.>X<X<X:X<X<X*X9.[ [ ' [ [ 6./.",
"! ' ` ' ` ` ` ' | S E K p.>X:X:X&X>X<X<X<X<X%X0.[ [ ' ' [ [ [ 0.",
"! ' ` ` ` ` ` ' | S V B M.>X:X>X&X<X<X<X:X#X8.] [ [ ' ' ' ` ' [ ",
"! ' ' ' ' ' ' ` { z.C i w.$X:X`.#X<X<X:X:X&Xz.5.[ [ ' ' ' ` ` [ ",
"! [ ' ' ' ' ' / l.*XY i 3.{.*Xx.U.>X:X<X<X>X$Xj.` ' ` ' } ' ' ' ",
"! ' ' ' ' '  .D.:X<X/.W H u.z.`.T.`.[.&X$X#X:XD.] ` ' ' ' ` ' ( ",
"! ' ' ' } ' f.>X:X:X<X@Xb.N.N.[.&X:X&X&X>X>X{.E.8.` ' ' ` ` ( S.",
"! ' ' ' } 5.+X<X:X:X<X:X&X|.`.].>X:X:X<X>X;X#X=XW.5.' ' ` ` f..X",
"! ' ` ' ] l.>X<X:X<X<X<X:X>X&X>X:X:X<X:X:X.X&X#X*Xj.[ ` ` ] S.-X"
};
