/* XPM */
static char *yamada_26[] = {
/* columns rows colors chars-per-pixel */
"32 37 198 2 ",
"   c #2D2536",
".  c #342A3B",
"X  c #34283A",
"o  c #3D2F41",
"O  c #3D3142",
"+  c #433144",
"@  c #4B3C4D",
"#  c #47384A",
"$  c #563A4D",
"%  c #593A4B",
"&  c #563F51",
"*  c #4D404F",
"=  c #53434D",
"-  c #544255",
";  c #5A4956",
":  c #5B4559",
">  c #584655",
",  c #62534C",
"<  c #61475D",
"1  c #63495E",
"2  c #6C4759",
"3  c #72475B",
"4  c #784758",
"5  c #724557",
"6  c #66525A",
"7  c #6A565C",
"8  c #7A4E63",
"9  c #6D5962",
"0  c #755F62",
"q  c #6F646C",
"w  c #746263",
"e  c #76676A",
"r  c #7E726F",
"t  c #DA6339",
"y  c #D4693E",
"u  c #864C5D",
"i  c #BE7852",
"p  c #8D4E63",
"a  c #834F65",
"s  c #904F64",
"d  c #835666",
"f  c #8B5368",
"g  c #94566B",
"h  c #9E556C",
"j  c #AD5D74",
"k  c #B45D75",
"l  c #826F6F",
"z  c #80716E",
"x  c #8E7E7A",
"c  c #927E76",
"v  c #A86678",
"b  c #C76A42",
"n  c #D86D43",
"m  c #C57244",
"M  c #C37248",
"N  c #D2724C",
"B  c #CE7B53",
"V  c #D07450",
"C  c #C86B60",
"Z  c #C77763",
"A  c #C7667B",
"S  c #D56C79",
"D  c #C67A71",
"F  c #D17470",
"G  c #938279",
"H  c #99827C",
"J  c #9E8A7C",
"K  c #BB926E",
"L  c #A78B77",
"P  c #C9855D",
"I  c #CD935C",
"U  c #CF985F",
"Y  c #CA8C6A",
"T  c #D28D6C",
"R  c #D08765",
"E  c #CC9263",
"W  c #CD9E65",
"Q  c #D6906E",
"!  c #CB8F76",
"~  c #DA8A7A",
"^  c #C99A7C",
"/  c #D49678",
"(  c #CFA57E",
")  c #CC6681",
"_  c #CA6981",
"`  c #D36984",
"'  c #DB6A87",
"]  c #DD6A88",
"[  c #DC7A8D",
"{  c #D97489",
"}  c #DC7D91",
"|  c #E76F8E",
" . c #E86F8F",
".. c #E4728E",
"X. c #E8708F",
"o. c #E07B8E",
"O. c #E96F90",
"+. c #E27790",
"@. c #E97090",
"#. c #E27A92",
"$. c #8A8187",
"%. c #968A88",
"&. c #9D928C",
"*. c #988E91",
"=. c #A48D85",
"-. c #A3948C",
";. c #AC9989",
":. c #A99385",
">. c #B99F8A",
",. c #B09B8A",
"<. c #AC9D94",
"1. c #A59C9B",
"2. c #A59A96",
"3. c #B9A18E",
"4. c #BDA094",
"5. c #B9A798",
"6. c #ABA4A3",
"7. c #B5AEAB",
"8. c #BAB2AD",
"9. c #BFB0A2",
"0. c #BDB7B5",
"q. c #D8818F",
"w. c #CD9786",
"e. c #DD8392",
"r. c #DB8C9C",
"t. c #C99A95",
"y. c #DB939B",
"u. c #D69595",
"i. c #D89785",
"p. c #E08495",
"a. c #CAA586",
"s. c #C4AB97",
"d. c #CBAE96",
"f. c #CAA793",
"g. c #D7A99C",
"h. c #CCB29C",
"j. c #D7B398",
"k. c #D49EA1",
"l. c #DA9CA2",
"z. c #DDA4A5",
"x. c #DBA5A9",
"c. c #DBAAAC",
"v. c #D4A6A8",
"b. c #CEB5A1",
"n. c #CCBAAB",
"m. c #C8B6AC",
"M. c #D3BAA2",
"N. c #D2BBAB",
"B. c #D9B7A8",
"V. c #D7ABB0",
"C. c #C7BCB4",
"Z. c #D7BEB6",
"A. c #DAB8B5",
"S. c #C7A6A1",
"D. c #E2BAAB",
"F. c #E1BBB7",
"G. c #D7C2AF",
"H. c #CCC4BC",
"J. c #C9C0B9",
"K. c #D4C3B0",
"L. c #DAC6B3",
"P. c #D3C7BB",
"I. c #DAC3BC",
"U. c #D6CABB",
"Y. c #DACBBD",
"T. c #E0C3AC",
"R. c #E4C9B6",
"E. c #E3CEBC",
"W. c #E4C1BE",
"Q. c #E7D1BE",
"!. c #E8D2BE",
"~. c #CEC9C4",
"^. c #D3CCC4",
"/. c #D4CEC9",
"(. c #D8CBC4",
"). c #DBD1C5",
"_. c #D6D0CA",
"`. c #DCD4CC",
"'. c #DCD6D1",
"]. c #DED8D2",
"[. c #E3CDC7",
"{. c #E3D2C2",
"}. c #EAD6C4",
"|. c #ECD8C7",
" X c #E4D5CB",
".X c #E3DACF",
"XX c #ECD9C8",
"oX c #E3DCD4",
"OX c #E8DED6",
"+X c #E2DFDA",
"@X c #DFE0DD",
"#X c #E7E0D7",
"$X c #E9E1D7",
"%X c #E6E1DA",
"&X c #ECE6DE",
"*X c #EEE8DF",
"=X c #EAE6E1",
"-X c #EDE8E0",
/* pixels */
"'  . . . . .| | | |  .|  .| | | |  .|  .| | | ` k g f g j _ | | ",
"'  .| |  . . .|  . . .|  .|  . . .| |  .| | j 4 1 1 1 1 1 8 h ` ",
"'  . . .| |  . . . . . . . . . .| X.| | ` g 1 < 1 1 1 < : < < a ",
"' @. . .| |  . . . . . . . .| | | X.X.A d < : : : : : : : : : : ",
"'  .| |  .|  . .| |  . . .| | | | | A 8 1 : : : : : - : : : - : ",
"' @.| | |  . . . .| | | |  .| | | A 8 & - @ * - 9 7 - - > 6 - - ",
"' | |  .| | |  . . .| | |  . . .A 3 @ @ # @ * 6 &.G ; @ > H 0 ; ",
"' O. . . .|  . . . . .| |  . .' s & @ o O # - c >.;.> @ > 4.L e ",
"' O. . .| |  . .|  . . . .| | k 4 $ +   . # w 5.M.s.w w z b.b.;.",
"' @. . .| | |  .|  . .|  . .' u 5 + X   + @ H ;.;.3.N.Q.R.M.h.>.",
"] O. . . .| | | | |  . . .X.k 5 % .     + ; 5.J.G =.}.}.!.;.J ;.",
"'  . .|  . .| |  . . . . .X.h % +       o e E.{.2.m.|.|.|.-.<.L.",
"'  . . .|  . . . . . . . .| s + . O O . + c !.}.}.|.|.}.}.Y.Q.M.",
"' O. . .|  .| |  . . . .| | f * %.0.7.q * z n.|.|.}.Q.R.!.|.}.g.",
"' O. . .| |  . . . . . . .X.v 6.=X=X~.q %._.P.}.|.B.i.w.f.}.{.y.",
"'  . . .| |  . . .O. . .| +.V.&X=X=X8.q H.'.^.M.}.B.~ ~ f.}.B.{ ",
"] O. . . . . . . . . . .#.V.%X=X=X=X1.7.].].%Xn.j.G.j.d.L.Y.m.} ",
"]  . . . . . . .|  . .[ t.Y.%X&X=X_.7.].#X'.=X].h.( d.m.n.`..Xk.",
"'  . . . . . . . .| { D i ^ P.`.%X~._.].%X'.]./.K.( 3.0.C._.%X~.",
"]  . . . . . . . . .A b N s..X@X/.'.].oX%X].6.e G L 5.C.C.~.`.8.",
"] O. . . . . . .| | C m Y P.&X&X~.~.].%X%X].+X8.w , z ~.~.C.1.*.",
"'  . . . . . . .| S E I a.).&X*X_._.oX*X&X/.8.2.3.%.7./.`.=X%X=X",
"] O. . . . .| X.| D W E K.#X*X*XoX_.%X-XoX&.2.J.9.&._.].'.=X=X=X",
"'  .O. . .| X.X.[ ! M P K.&X*X*X#XoX-X-X#X`.*X$X5.&.OX[.(.=X=X+X",
"'  . . . .O. .X.g./ t R Y.&X&X*X#XoX*X*X*X*X*X.X5.7.&Xc.y.OX.XL.",
"]  . . . . .| e.R.Q t T E.&XY.oX#X.X*X&X*X*X$X`.#X%X Xe.} w.M.{.",
"] O. . . . . .+.D.T t Y Y.&XoX%X#XoX*X*X*X*X$X&X-X&Xz.X.X.{ D.|.",
"'  . . . . .X...e.Z m / `.&X&X&X#X#X*X*X*X&X&X*X*XA.+.X.X...z.}.",
"'  .| | | |  . .| C I Y ).-X&X-X.X&X*X*X*X*X*X*XW.o.X. .X. .e.R.",
"' X.| | | | | | | F I P U.&X-X&X`.%X*X*X*X*X&XF.p.X.X. .X.X.X.y.",
"' X. .| | | | | | F M B G.&X-X$X.X-X*X*X-X*XZ.o. . . . .X.X.X...",
"'  . .| | |  . .| u.V n d.oX-XY.U.-X%X*X%XOXB.q.X. . . .X.X.X.X.",
"'  . . . . . .[ l. X/ n a.).#Xt.Z..X&X*X*X&X{.W.+.X. . .O.O.| | ",
"'  . . . . .X.x.OX&X{.^ K t.S.v.(.U. XoXoX'.OX Xe.X. . .| O.O.} ",
"'  . .|  . .y.OX*X&X*XOXP.Z.L.(.'.&XOX.XoX&X.X).u.X. . .| O.+.v.",
"' X. . . .p.[.*X*X*X*X*X%X X`.).OX&X-X-X*X&X).oXU.e. . .| O.r.'.",
"'  . . ...c.&X&X&X-X&X-X-X-X$X=X&X-X&X-X-XOX_.`.oXx.@.X.X...V.@X"
};
