/* XPM */
static char *yamada_13[] = {
/* columns rows colors chars-per-pixel */
"32 37 200 2 ",
"   c #362A3C",
".  c #34293A",
"X  c #654A3B",
"o  c #3F2F42",
"O  c #3E3142",
"+  c #433245",
"@  c #463649",
"#  c #4B3B4D",
"$  c #473A47",
"%  c #4F3E52",
"&  c #503F52",
"*  c #54394D",
"=  c #544354",
"-  c #584555",
";  c #5B4A56",
":  c #5B455A",
">  c #5E485B",
",  c #614D44",
"<  c #60475D",
"1  c #63495E",
"2  c #694A5F",
"3  c #604D56",
"4  c #74485C",
"5  c #69575D",
"6  c #705E5D",
"7  c #734C61",
"8  c #6C5A60",
"9  c #7F5065",
"0  c #6C616B",
"q  c #776466",
"w  c #7C6963",
"e  c #76686C",
"r  c #7A6D72",
"t  c #7E7379",
"y  c #93573B",
"u  c #A84824",
"i  c #AA522E",
"p  c #A55A34",
"a  c #A95C38",
"s  c #B15D38",
"d  c #B15B35",
"f  c #98613C",
"g  c #BE663E",
"h  c #A5653D",
"j  c #CE663C",
"k  c #D66A3E",
"l  c #AB6B42",
"z  c #B36444",
"x  c #B26D47",
"c  c #AF764C",
"v  c #B57A5B",
"b  c #BD7E5A",
"n  c #804F63",
"m  c #965A6D",
"M  c #925369",
"N  c #8B5369",
"B  c #A3576F",
"V  c #AD5B73",
"C  c #846F6D",
"Z  c #826D67",
"A  c #84706D",
"S  c #867571",
"D  c #897A7B",
"F  c #947D72",
"G  c #A17662",
"H  c #BC6677",
"J  c #C96A43",
"K  c #C56D42",
"L  c #CE744A",
"P  c #C77D5D",
"I  c #C3647E",
"U  c #C8657F",
"Y  c #BD8356",
"T  c #B08157",
"R  c #968273",
"E  c #958179",
"W  c #99877F",
"Q  c #B68465",
"!  c #BC866A",
"~  c #A28D7A",
"^  c #B58D75",
"/  c #A7917D",
"(  c #B89277",
")  c #C18353",
"_  c #C9915A",
"`  c #C28B64",
"'  c #CC8D65",
"]  c #D78867",
"[  c #C59069",
"{  c #C99A65",
"}  c #D59E62",
"|  c #D78C7B",
" . c #CA9D73",
".. c #C8987B",
"X. c #D39F71",
"o. c #CCA379",
"O. c #CDAC7C",
"+. c #D3A779",
"@. c #D5AF7F",
"#. c #CD6882",
"$. c #D46984",
"%. c #DA6A87",
"&. c #DD6C89",
"*. c #DC778D",
"=. c #D67A8A",
"-. c #DC7B8D",
";. c #D47687",
":. c #DD7B90",
">. c #E76F8E",
",. c #E86F8F",
"<. c #E4728E",
"1. c #E8708F",
"2. c #E0798D",
"3. c #E87090",
"4. c #A38D81",
"5. c #AA9685",
"6. c #B29B8A",
"7. c #AD9C90",
"8. c #A79C99",
"9. c #B4A08B",
"0. c #BDA998",
"q. c #B7ADA8",
"w. c #BDB9B9",
"e. c #C6898F",
"r. c #DA838F",
"t. c #CC9B86",
"y. c #D39480",
"u. c #CD8E91",
"i. c #C38E97",
"p. c #DB8494",
"a. c #D88997",
"s. c #CC9B9A",
"d. c #CE9394",
"f. c #D5929B",
"g. c #D9939A",
"h. c #CCA688",
"j. c #D5B485",
"k. c #D5B98A",
"l. c #C6AD99",
"z. c #CBAB9D",
"x. c #CCA894",
"c. c #D7A693",
"v. c #D3B697",
"b. c #C5B395",
"n. c #D798A1",
"m. c #CDA8A2",
"M. c #D3ACAA",
"N. c #DBAEAE",
"B. c #CAB5A5",
"V. c #C2B6AC",
"C. c #CCBBAC",
"Z. c #CAB7AE",
"A. c #D4B9A5",
"S. c #D6BAA9",
"D. c #DABCA7",
"F. c #C5BEB8",
"G. c #C3BAB4",
"H. c #D3B6B2",
"J. c #DAB4B4",
"K. c #DDBCBA",
"L. c #E0BFAC",
"P. c #D7C08F",
"I. c #DAC4AD",
"U. c #D5C3AF",
"Y. c #CFC1B5",
"T. c #CEC6BF",
"R. c #D2C2B6",
"E. c #DAC5B1",
"W. c #DCC9B5",
"Q. c #D4C5BB",
"!. c #DCCCBC",
"~. c #D8C7B9",
"^. c #E3C4B2",
"/. c #E2CBB5",
"(. c #E2CDBB",
"). c #E4D1BF",
"_. c #CDC7C1",
"`. c #D4CBC3",
"'. c #DBCDC4",
"]. c #D9CBC5",
"[. c #D7D3CE",
"{. c #DAD3CD",
"}. c #DEDAD4",
"|. c #E0C5C1",
" X c #E3CCC6",
".X c #E3D3C3",
"XX c #EAD6C4",
"oX c #ECD8C6",
"OX c #E1D5CB",
"+X c #E3D9CE",
"@X c #ECD9C8",
"#X c #E3DCD5",
"$X c #E2DED8",
"%X c #E5D9D2",
"&X c #EAE1D6",
"*X c #E6E1DB",
"=X c #ECE6DD",
"-X c #EDE8DF",
";X c #EBE7E0",
":X c #EDE8E1",
/* pixels */
"%.,.>.>.>.>.>.>.>.>.>.>.>.>.>.,.>.,.>.,.>.%.V n 2 2 1 2 7 m $.>.",
"%.,.>.>.>.>.>.>.>.>.>.>.>.>.,.,.,.,.,.,.$.M 2 1 1 1 1 < 1 1 9 H ",
"%.,.>.>.>.>.>.>.>.>.>.>.>.>.>.,.>.>.,.%.N < > > < < < < < < < 7 ",
"%.1.>.>.>.>.>.>.>.>.>.>.>.>.>.3.>.>.>.H 1 > : : > : : > : : : < ",
"%.>.>.>.>.>.>.>.,.,.>.>.>.3.>.>.>.>.>.m > : - - - = - - : = = : ",
"%.1.>.>.>.>.>.>.>.>.>.>.>.>.>.>.>.>.%.7 = % = = ; - = # : 3 = = ",
"%.1.>.>.>.>.>.>.>.>.>.>.>.>.>.>.>.>.I * # # = ; S q > = - S 8 8 ",
"%.>.>.>.>.>.>.>.>.>.>.>.3.>.>.>.>.>.V @ # @ 6 Z 4.F q # # R W A ",
"%.3.>.>.>.>.>.>.>.>.>.>.>.>.>.>.>.>.M @ $ $ Z W 9.~ E 8 S 5.l.F ",
"%.>.>.>.>.>.>.>.>.>.>.>.>.>.>.>.>.>.4 o O $ w 7.R 5.I.W.W.5.W / ",
"%.>.>.>.>.>.>.>.3.>.>.>.>.>.>.>.>.I *     + D Y.S 0.oXoX.XW 0.E.",
"%.>.>.>.>.>.>.>.>.>.>.>.>.>.>.>.>.B o . . o S ).R.!.oXXXoXR..XI.",
"%.>.>.>.>.>.>.>.>.>.>.,.,.>.>.>.&.4 @ o . O 5 /.oXoXoX XXXoXoXB.",
"%.>.>.>.>.>.>.>.>.>.>.>.>.>.>.>.I D w.q.D $ = C.oX).L.L.D.XXXXx.",
"%.>.>.>.>.>.>.>.>.>.>.3.>.>.,.>.i.}.;X}.[.D # 6.oX^.y.| ( ).D.:.",
"%.3.>.>.>.>.>.>.>.>.3.3.,.,.,.p.{.;X;X$X#XG.> Z v.^.c.y.v.'.Z.p.",
"%.3.>.>.>.>.>.>.>.>.>.>.>.3.3.J.;X;X;X$X}.`.r e l.h.l.B.V.}.`.g.",
"%.,.>.>.>.>.>.>.>.>.>.>.>.3.a.%X;X;X;X}.%X{.8.0 V.o.( q.G.*X[.f.",
"%.>.>.>.>.>.,.,.>.>.>.>.,.>.s.;X;X;X;X}.}.{.F.0 V.( 6.Y._.[.OXa.",
"%.,.>.>.>.>.,.,.>.>.>.>.<.f.{.;X;X;X;X[.}.}.[.t r , w q._.}.OXp.",
"%.,.,.,.>.,.>.>.>.3.3.>.*.].=X=X;X;X#X_.[.$X].r X y a / G.}.$Xg.",
"%.,.>.>.>.,.,.>.>.>.>.,.*.K.*X;X;X;X[.`.{.=X'.G f p j ! Q.$X=XJ.",
"%.>.>.>.,.,.,.>.>.>.>.>.,.*.z.+X;X;X[.[.$X-XXXz u l _ { l.[.;XK.",
"%.,.>.>.,.,.,.3.>.>.>.>.,.<.c.A.Q.$X[.[.=X-XS.i u ! { _ x.`.J.p.",
"%.3.>.>.,.,.,.>.>.>.>.,.,.2.^.XX/.C.`.=X;X;Xh.p i  .O.) o.l.;.1.",
"%.,.>.>.,.,.,.>.>.>.,.,.,.2.^.@X@X~.OX-X;X=X..c d O.O.j ' B.*.,.",
"%.,.>.>.>.,.,.>.>.>.>.,.,.=.^.oX@X.X&X-X-X&X! c d @.k.k ] S.*.1.",
"%.,.>.>.,.,.,.,.>.>.,.>.,.u.(.oXXX.X-X-X-X%Xv p d P.k.k ] A.*.>.",
"%.,.>.>.>.,.,.,.>.>.>.>.<.M.(.@XXX.X;X;X-X(.T d s P.j.J P z.-.1.",
"%.,.>.>.>.>.,.,.>.>.>.>.a.~.(.XX!.W.OX%X+X/.I.v.Q P.@._ [ A.r.1.",
"%.>.>.>.>.,.>.>.>.>.1.1.n.R.(.@XXXXXXX(.W././.I.( k.+.}  .A.-.1.",
"%.>.>.>.>.,.>.>.1.1.1.-.N.'.(.@X@X@X@X@X).I./.h.x j.X.} ..d.<.1.",
"%.3.>.>.>.>.>.>.,.,.3.J.&X&X!.!.).'.W.I.I.U.I.b i o.' ) [ ;.,.,.",
"%.3.>.>.>.>.>.>.,.,.<.|.:X:XOXH.s.t.s.~.&X=XR.l h b L J t.*.,.3.",
"%.,.>.>.>.>.>.,.,.3.g.%X:X=X{.s.I I e.'.&X-X}.Q h p j P f.>.3.:.",
"%.>.>.>.>.>.,.>.,.*.|.;X-X:XOXH.s.s.H.{.&X-X+X).^ T [ z.f.<.<.m.",
"%.,.>.,.,.>.>.>.1.g.*X-X=X:X*X{.OX'.Q.$X-X:X{.OX!.b.~.=X.Xp.a.[."
};
