/* XPM */
static char *yamada_17[] = {
/* columns rows colors chars-per-pixel */
"32 37 207 2 ",
"   c #2E2535",
".  c #322838",
"X  c #382C3D",
"o  c #3D2E40",
"O  c #423344",
"+  c #4C3C4E",
"@  c #473749",
"#  c #53394C",
"$  c #51374B",
"%  c #4E3E51",
"&  c #513E52",
"*  c #593D50",
"=  c #554354",
"-  c #5A4456",
";  c #5C4955",
":  c #5B465A",
">  c #5D485A",
",  c #524549",
"<  c #65544D",
"1  c #61475C",
"2  c #624A5D",
"3  c #6A4C5F",
"4  c #72455A",
"5  c #78465A",
"6  c #615059",
"7  c #6A565E",
"8  c #6D585D",
"9  c #745E5D",
"0  c #6E4A60",
"q  c #744C61",
"w  c #7C4C62",
"e  c #6C5960",
"r  c #675460",
"t  c #735E64",
"y  c #7C6B6A",
"u  c #756767",
"i  c #8A4C63",
"p  c #8A5368",
"a  c #915065",
"s  c #95546B",
"d  c #96566B",
"f  c #A85A6F",
"g  c #A2586D",
"h  c #AA5871",
"j  c #A35D71",
"k  c #B75E76",
"l  c #846D6C",
"z  c #8E776C",
"x  c #8F7974",
"c  c #8B7F7E",
"v  c #867571",
"b  c #937C76",
"n  c #AA6D77",
"m  c #B96079",
"M  c #BA7E66",
"N  c #CB6C49",
"B  c #D76B44",
"V  c #DA665C",
"C  c #D86357",
"Z  c #D2784E",
"A  c #D76965",
"S  c #CF7868",
"D  c #D2706C",
"F  c #C5637E",
"G  c #C16D78",
"H  c #DE6A7A",
"J  c #D57778",
"K  c #C4737B",
"L  c #8E827D",
"P  c #91847E",
"I  c #918276",
"U  c #A38B7E",
"Y  c #B98E70",
"T  c #CC8D59",
"R  c #CE915C",
"E  c #C0846D",
"W  c #D38F6A",
"Q  c #C99466",
"!  c #C3967B",
"~  c #D49979",
"^  c #D48F74",
"/  c #CCA077",
"(  c #CB6580",
")  c #DA6A87",
"_  c #DC6A88",
"`  c #D66A86",
"'  c #CB7487",
"]  c #DD7582",
"[  c #D9788B",
"{  c #DE7D92",
"}  c #E66F8E",
"|  c #E86F8F",
" . c #E4738E",
".. c #E9708F",
"X. c #E1758A",
"o. c #E96F90",
"O. c #E97090",
"+. c #E17B91",
"@. c #E57490",
"#. c #8D8380",
"$. c #90868B",
"%. c #958783",
"&. c #9C918C",
"*. c #9D9086",
"=. c #998F90",
"-. c #9C9392",
";. c #A58A85",
":. c #BF828D",
">. c #AF9885",
",. c #A5948A",
"<. c #AB9285",
"1. c #B29A86",
"2. c #B59D8B",
"3. c #BD9D81",
"4. c #A49993",
"5. c #AB9C98",
"6. c #A99D9B",
"7. c #BDA38C",
"8. c #B6A08E",
"9. c #AAA09F",
"0. c #BBA493",
"q. c #BCA99A",
"w. c #ABA4A2",
"e. c #B9ACA3",
"r. c #BFB4AD",
"t. c #CA8A8D",
"y. c #C39B86",
"u. c #D79481",
"i. c #DD8395",
"p. c #D78F96",
"a. c #DC8D99",
"s. c #D48594",
"d. c #CE949A",
"f. c #D6939D",
"g. c #DB939D",
"h. c #D69196",
"j. c #D48385",
"k. c #E08194",
"l. c #C9A28F",
"z. c #C6AA8D",
"x. c #C9A586",
"c. c #D1AB8D",
"v. c #D1A68C",
"b. c #D4B08E",
"n. c #C5AD95",
"m. c #D9AB96",
"M. c #C9B39D",
"N. c #D3B393",
"B. c #D0B69C",
"V. c #D29BA0",
"C. c #DA9AA3",
"Z. c #DCA4A8",
"A. c #D4ABA9",
"S. c #DAACAB",
"D. c #D6A6A5",
"F. c #CFBAA9",
"G. c #CBB6A5",
"H. c #DBBAA4",
"J. c #D3BDAC",
"K. c #D9B8A7",
"L. c #C3BAB5",
"P. c #CFBAB3",
"I. c #DCB5B4",
"U. c #D8B7B7",
"Y. c #E0AEA7",
"T. c #E1B7B7",
"R. c #DCC2AE",
"E. c #CAC1B9",
"W. c #D4C2B4",
"Q. c #DDC6B1",
"!. c #D5C5BC",
"~. c #DAC5BD",
"^. c #DACABA",
"/. c #E0C3AE",
"(. c #E5CCB5",
"). c #E0C1BE",
"_. c #E3CAB7",
"`. c #E8D2BE",
"'. c #CEC8C3",
"]. c #DCC5C4",
"[. c #D2CBC4",
"{. c #DBCCC2",
"}. c #D3CEC9",
"|. c #DED0C3",
" X c #D6D1CC",
".X c #DBD4CD",
"XX c #DBD6D1",
"oX c #DED9D3",
"OX c #DFDFDB",
"+X c #E3C9C3",
"@X c #E5D2C2",
"#X c #EBD6C3",
"$X c #ECD8C6",
"%X c #E2D4CC",
"&X c #E1D8CE",
"*X c #EDDAC9",
"=X c #E3DCD4",
"-X c #E8DDD4",
";X c #E3DED8",
":X c #E2D6D1",
">X c #E7E0D7",
",X c #E4E1DC",
"<X c #ECE6DE",
"1X c #EEE8DF",
"2X c #E7E5E1",
"3X c #EAE6E1",
"4X c #EEE8E0",
/* pixels */
"_ | | | | | } | | } } } ( p 0 0 2 r 0 0 j ( } O.} } } } } } } } ",
"_ | | | } | | | | | } m w 2 1 r 2 2 2 2 0 p m _ } | | @.} } } } ",
") o.| | } | | | | | k 0 > 0 : > 2 1 1 : 2 2 0 j ` O.O.} } } } | ",
") | | | } } } } | ( q : > : : : : : : : > : - r d _ O.| } } } } ",
"` | } }  .| | } } p > : - ; - - : = > 2 > - % = 1 h } | } | } | ",
"_ | } | | | } | F 1 = = = 6 7 6 % % u b l - = + 1 g ) | } @.} { ",
"_ | } } } | } } d & % ; e v z y % % r 5.>.8 & % $ g ) o.} o.{ I.",
"_ | | | | | } } i @ + e U 2.8.;.% & r G.(.,.; + @ a } } } o.C.;X",
") o.| | | | | _ 4 @ @ e 0.8.1.2.;.q.M.n.>.>.y # a k } } }  .).,X",
") o.| | | | } _ 4 @ o ; 8.q.z 1.`.#X@X,.,.G.y * ` ..} } } i.:X-X",
") o.| | | | O._ q o o , q.{.%.q.$X#X$X5.e.Q.u @ h } } } O.S.;Xy.",
") | | | | | | } a o . o ,.#X{.`.#X#X@X#X@X/.n $ 5 } } } a.:X:XY ",
") | } | | | } | h o   o y @X$X$X*X#X$X$X*XK.[ s $ k @.} U.,X;XE ",
") o.| | | | | | ( $   . - P.*X`.H.m.l.Q.*XF.t.' 5 i } { :X2X;X! ",
") | | | } | | | s.5.=.u = P *X(.u.^ ^ W.+X.XoX~.:.5 h a.:X[.'.y.",
") | | | | | | i.%X=X;X:X9.6 7.(.H.m.K.F.P.:X2X,X].' h ;.6.-.=.b ",
") | | o.X. .@.I.3X,X;X&X.X$.9 y.m.N.n.r.E.oX<X,X,Xf.X.U.,XOX}.E.",
") | | ] ~ j.f.>X3X<X<XoXoXXX$.x x.~ 0.'.}..X;XOX1XI.[ {.2X2X}.!.",
") o.H N / ^.|.;X3X3X,XXXOX;XOX6.z Y 0.XX&X.XoX,X1XoXA.XXOXXX}.G.",
") } C Z W.>X1X=X,X3XoX.X,XoX3X2Xw.< u #.9.XX X,X1X,X<X XXXOX'.G.",
") _ N ~ &X<X1X<XoX1XoX}.>X;X3XXXu < u %.-.=X}.,X3X,X<X}.,XOXL.B.",
") J T v..X1X1X<XoX,X.X.X>XoX2Xw., L *.9.!.>XoX2X3X1X X'.2X.Xr.7.",
"` J T K.=X1X1X1XoX.X.XoX<X<X:X-.L P e.&.y 9.E.,XoX.XF.W.<X.XY Q ",
"` V Z Q.>X1X<X1X,Xr..XoX1X<X<X=X.X4.&.,XXX}.L ^.XXG.z.Q.|.>XB./ ",
") C B R.,X<X>X<X>XJ..X;X<X4X<X4X1X}.L L.4X.Xn f.^.! z./.(..XoXz.",
") C B H.<X<X=X<X<XI.|.3X4X<X4X<X1X>X.X.X4X@X{ @.[ z.z.z.N.^.<X,X",
") A B H.>X1X<X>X<XS.].1X4X<X4X4X<X<X1X1X1XT. ... .p.(.c.N.!.,X.X",
") D B v.>X1X<X1X<XS.%X1X<X4X4X<X<X<X1X1X1XZ.......X.Y.(./.p.g.A.",
"} J R ~ &X1X1X1X,XS.-X1X1X1X<X1X1X<X1X1X%Xk.....| o.X.g.g. ...f.",
"_ X.Q W ^.1X1X1X=Xm.-X<X<X<X1X1X1X1X1X<X!.i.....| o.o.| ....X.f.",
") | S Z H.>X1X4X%XD.>X1X1X1X<X<X<X1X1X=X@XZ. .o.o.| | | o. .f.[.",
"_ | H B W |.<X<X{.-X1X<X>X>X<X1X<X1X1X=X>X-XT.+.| o.| | |  .V.XX",
") | } A B c..X~.K.<X<X.X.XoXoX,X<X1X<X1X1X<X<X_.k.| | | } { U.OX",
"_ | } } D Q t.h.%X4X<X XI.f.d.^.>X.X>X1X<X&X&X>X+X+.o.| [ U.OXOX",
") } } }  .X.X.T.<X4X>X~.K m m F.^.;X<X1X>X>X=X-X<XT.@. .C.OXOXOX",
") } } } | o.i.:X4X<X<X].A.m.A..X<X1X1X1X-X>X=X=X4X>XC.{ U.OXOX2X",
") } } } } | S.<X1X1X<X=XoX&X^.=X1X1X<X1X=X.X X<X4X1X$Xa.].OXOXOX"
};
