/* XPM */
static char *yamada_7[] = {
/* columns rows colors chars-per-pixel */
"32 37 212 2 ",
"   c #2E2433",
".  c #45383E",
"X  c #433345",
"o  c #4B3B4E",
"O  c #49384B",
"+  c #5A3D50",
"@  c #4F404C",
"#  c #56494E",
"$  c #544354",
"%  c #5B4559",
"&  c #5E485B",
"*  c #5F4053",
"=  c #64475C",
"-  c #634B5E",
";  c #694C5C",
":  c #7C485E",
">  c #64525A",
",  c #69535E",
"<  c #66595A",
"1  c #675955",
"2  c #64534B",
"3  c #76635D",
"4  c #774F61",
"5  c #6D5663",
"6  c #765765",
"7  c #786768",
"8  c #796F73",
"9  c #A84B26",
"0  c #AE4622",
"q  c #B04E28",
"w  c #A8542F",
"e  c #B24D34",
"r  c #AC5A34",
"t  c #A95A37",
"y  c #B35632",
"u  c #9F613B",
"i  c #B9623A",
"p  c #C55D37",
"a  c #C3613A",
"s  c #D3633B",
"d  c #DD643B",
"f  c #85585E",
"g  c #AB5D41",
"h  c #A96E47",
"j  c #AA6A45",
"k  c #BE6740",
"l  c #BA764B",
"z  c #AC6C51",
"x  c #B37A5A",
"c  c #B87653",
"v  c #AA7248",
"b  c #824D63",
"n  c #97586B",
"m  c #A95A71",
"M  c #A65971",
"N  c #A75A6C",
"B  c #81696E",
"V  c #806A66",
"C  c #88706F",
"Z  c #947F6E",
"A  c #826B70",
"S  c #8A7473",
"D  c #887A78",
"F  c #947D7A",
"G  c #AD7B62",
"H  c #BF7D6D",
"J  c #B76376",
"K  c #AE777B",
"L  c #D36D46",
"P  c #C27C4D",
"I  c #C37248",
"U  c #D2754E",
"Y  c #C77652",
"T  c #D57E5A",
"R  c #C96E78",
"E  c #B1835E",
"W  c #8D817D",
"Q  c #91857E",
"!  c #9B857A",
"~  c #96887E",
"^  c #9F8B7B",
"/  c #BC876D",
"(  c #A28A7B",
")  c #AE9079",
"_  c #BC8D78",
"`  c #CA8559",
"'  c #CA925B",
"]  c #D1995F",
"[  c #CE976A",
"{  c #D09963",
"}  c #CA8576",
"|  c #DB8A79",
" . c #D58E7C",
".. c #D09674",
"X. c #8A7F83",
"o. c #BE7584",
"O. c #CC6681",
"+. c #DA6A86",
"@. c #DE6D8A",
"#. c #D76B85",
"$. c #CE7D88",
"%. c #DE738B",
"&. c #DF798F",
"*. c #D77F8B",
"=. c #DE7B91",
"-. c #E76F8E",
";. c #E86F8F",
":. c #E3728E",
">. c #E8708F",
",. c #8C8083",
"<. c #938987",
"1. c #9F9288",
"2. c #9D9496",
"3. c #B58F84",
"4. c #A79485",
"5. c #A9978B",
"6. c #B89B88",
"7. c #A69C98",
"8. c #B89996",
"9. c #A78C86",
"0. c #B8A18C",
"q. c #BCA995",
"w. c #B4A499",
"e. c #AFA7A7",
"r. c #B4ACA7",
"t. c #B8AAA5",
"y. c #BBB4AE",
"u. c #BDB6B2",
"i. c #D78080",
"p. c #C89E82",
"a. c #DB8595",
"s. c #DA8D99",
"d. c #D88993",
"f. c #DA939D",
"g. c #DB9D9C",
"h. c #D49A99",
"j. c #C98E8F",
"k. c #CAA689",
"l. c #D4A98A",
"z. c #CAA195",
"x. c #C3AA94",
"c. c #C9AA97",
"v. c #CCB29C",
"b. c #D5B49E",
"n. c #DAB69D",
"m. c #D5B99E",
"M. c #D6B699",
"N. c #D5A691",
"B. c #DB9BA3",
"V. c #D6A2A3",
"C. c #D3ACAB",
"Z. c #D9A8A9",
"A. c #CBB4A2",
"S. c #C9B7A8",
"D. c #D4BAA4",
"F. c #DDBDA5",
"G. c #DCBEA8",
"H. c #D4B8A9",
"J. c #C5BCB5",
"K. c #CDBDB3",
"L. c #C3BCB9",
"P. c #DCB1B2",
"I. c #D3BBB3",
"U. c #DEB9B6",
"Y. c #DBBDBC",
"T. c #D0B6B3",
"R. c #CCA9A2",
"E. c #E1BBAE",
"W. c #E0B1A2",
"Q. c #D6C0AA",
"!. c #DBC3AE",
"~. c #CAC0B7",
"^. c #CCC3BB",
"/. c #D5C4B4",
"(. c #DEC9B3",
"). c #D4C9BE",
"_. c #DCCCBB",
"`. c #D9C3B3",
"'. c #DDD0BC",
"]. c #E2C8AE",
"[. c #E1CAB5",
"{. c #E4CDBA",
"}. c #EAD3BD",
"|. c #E7D3BF",
" X c #CEC8C3",
".X c #D5CDC5",
"XX c #D9CEC3",
"oX c #DDD1C5",
"OX c #D6D1CD",
"+X c #DBD4CC",
"@X c #DFD8CF",
"#X c #DBD7D1",
"$X c #DED9D2",
"%X c #DFDEDA",
"&X c #E2CAC5",
"*X c #E2C9C5",
"=X c #EAD5C3",
"-X c #ECD8C6",
";X c #E4D4CC",
":X c #E4DACD",
">X c #EBD9C9",
",X c #E2D4C4",
"<X c #E3DCD4",
"1X c #E1DED9",
"2X c #E8DBD2",
"3X c #E7E0D6",
"4X c #EAE0D6",
"5X c #E5E2DC",
"6X c #ECE6DE",
"7X c #EDE8DF",
"8X c #EAE7E1",
"9X c #EDE8E0",
/* pixels */
"+.;.:.-.-.-.-.-.-.-.-.-.;.@.n 5 - - - - 5 - - ; ; - - 4 #.;.;.;.",
"+.;.-.;.-.-.-.-.-.-.-.-.;.O.4 - & & 5 B 7 & - 7 D 6 - ; J ;.;.;.",
"+.;.;.-.;.-.-.-.-.-.-.-.-.m = & - ; F ( 8 = 5 ! 8.C , = M -.;.;.",
"+.;.;.;.-.-.-.-.-.-.-.-.@.4 % % , <.q.0.S 5 S x.v.5.B % n -.;.;.",
"+.;.-.-.-.-.-.-.-.-.-.-.O.= % # C 4.4.! 6.Q.(.Q.^ ! 6 * n -.-.-.",
"+.;.-.;.-.;.-.-.-.-.-.-.M + $ $ ( S.7.3 S.-X>XQ.3 w.! ; N -.-.-.",
"+.;.-.-.;.-.-.;.-.-.-.-.b o o , v.|.~.4._.-X-X{.w./.x.f R -.-.-.",
"+.;.-.-.-.-.-.-.-.-.-.O.* O O D {.-X=X-X-X-X|.-X-X-Xz.J -.-.-.-.",
"+.;.;.-.-.-.-.-.-.-.;.M O X O # 4._.>X-X{.W.b.!.-X-X3.#.;.-.-.;.",
"+.;.;.-.-.-.-.-.;.;.-.4 X X X   . q.-X-Xl.| } k.-X{.K @.;.;.;.;.",
"+.;.-.-.-.-.-.-.;.;.O.+ $ $ o $ 8 5.!.-Xn.|  .Q.{.9.J -.;.-.-.;.",
"+.;.;.-.-.-.-.-.;.;.m X.u.7.<. X#X@Xb.D.].n.Q.(.5.> o.:.;.-.-.-.",
"+.;.:.;.;.;.:.-.;.-.8.%X1Xe.e.;X<X8X1XD.l.k.S.~.X.X.T.&.;.-.-.-.",
"+.;.;.;.;.:.;.;.-.a.;X8X5Xr.L.<X#X8X%XXXl.6.y.r.7 u.+Xf.-.-.-.-.",
"+.;.;.;.;.:.-.;.&.Y.1X8X5Xu. X2X#X8X8XL.) 0.OX2.X.OX5XP.:.-.-.-.",
"+.;.;.;.;.;.-.:.P.%X%X8X8XL. X1X$XOX,.< 2 7 L.,.L.#X8X&X=.-.:.&.",
"+.-.-.-.-.-.:.Z.6X5X#X8X6XOXXX3X#X X7.8 4.1 > 7.$X$X8X5XB.:.;.B.",
"+.-.-.-.-.-.f.<X8X6X$X6X5XXXq./.+X8X7.~ q.W 1 y.OX#X8X8XXX=.-.Z.",
"+.-.-.-.-.a.;X8X8X8X%X%XK.z l / S.y.8 ^.1.W r.<XOX%X6X8X5XB.=.Y.",
"+.;.-.-.@.z.+X+X$X6X6X+XG u a L v.<.r.<XQ 7.7X7X+X5X6X6X1Xs.B.<X",
"+.;.-.;.-.$.t.Q.D.v.@XS.u v p L m.).6X3X~ ~.7X7X$X6X8X7XXXh.P.+X",
"+.;.-.-.:.%.V.-X=XM.t./ u w a P x.3X9XoX/.3X7X7X.X.X@XXX!.[.XX5X",
"+.;.-.-.:.d.[.=X=Xz.8.h 0 9 ` { m.3X6XoX6X7X7X5XS.D.(.Q.[.=XoX6X",
"+.;.;.;.:.E.[.(.F.z.D.k.y w ' { v.:X:X<X7X7X8XoX6.x.(.|.(.(._.$X",
"+.;.-.-.B.=X=X=Xv.{.(.m.E l l ` H.:X+X7X7X7X4XV.$.c.m.M.(.D.(.).",
"+.;.-.-.B.=X-X=X].}.].m.E l s U `.2X<X7X7X7X*X=.:.} } H l.}.-X,X",
"+.;.-.-.%.g.E.{.F.Q.M...h I d T /.6X7X7X7X<Xf.:.:.-.@.:.| F.}.-X",
"+.;.-.;.-.-.&.=.d.R r 9 r a s ..oX7X7X9X9XU.:.;.;.;.:.;.-.:.d.h.",
"+.-.-.-.-.-.-.-.;.+.e 9 q P I l.:X9X7X7X2Xs.;.;.;.;.;.;.-.;.-.-.",
"+.;.;.-.-.-.-.;.;.+.y j r { ` D.:X9X7X9X;Xa.-.;.;.;.;.;.-.;.-.-.",
"+.-.-.-.-.-.;.;.;.+.j v i ' [ &X4X7X7X7X4XI.a.;.;.;.;.;.;.;.-.-.",
"+.-.;.-.-.;.;.;.%.V.x u a k p.+X9X7X7X7X9X4XZ.-.;.;.;.;.;.;.-.-.",
"+.-.-.-.-.;.-.;.B.:X3.y d Y A./.:X7X7X7X6X7X:Xs.;.;.;.;.;.;.;.;.",
"+.-.-.-.;.-.;.a.;X$XR.c Y _ J.<X'.'.:X4X6X7X9X&Xa.;.;.;.;.;.;.a.",
"+.;.;.-.;.-.:.U.7X<XK.A.z.C.XX7X7X<X3X7X4XoX+X3XU.:.;.;.;.;.=.Y.",
"+.;.-.-.;.;.s.2X7X7X<XXX/./.:X7X7X7X7X7X3X<X<X+X<XB.:.-.;.:.C.%X",
"+.;.-.-.;.:.P.9X6X6X6X3X,X:X4X6X6X6X7X7X<X3X6X@X9X;Xa.-.-.a.+X1X"
};
