/* XPM */
static char *yamada_14[] = {
/* columns rows colors chars-per-pixel */
"32 37 205 2 ",
"   c #2D2436",
".  c #352A3C",
"X  c #46343A",
"o  c #3B2F41",
"O  c #4A3B4B",
"+  c #453747",
"@  c #543E52",
"#  c #623E52",
"$  c #554453",
"%  c #5C4559",
"&  c #5A4857",
"*  c #5B5159",
"=  c #4F444B",
"-  c #605149",
";  c #644C5E",
":  c #67475B",
">  c #704659",
",  c #74485B",
"<  c #67525E",
"1  c #685957",
"2  c #73525F",
"3  c #78675D",
"4  c #6D4F60",
"5  c #6C5561",
"6  c #685662",
"7  c #705C63",
"8  c #795F68",
"9  c #765F69",
"0  c #7C666B",
"q  c #7C6F69",
"w  c #7E7474",
"e  c #B4431F",
"r  c #AF4621",
"t  c #AC5932",
"y  c #B45C38",
"u  c #B35432",
"i  c #AF502C",
"p  c #AD633B",
"a  c #9A6951",
"s  c #AF6B42",
"d  c #B36C44",
"f  c #B76B48",
"g  c #B2754A",
"h  c #B7795B",
"j  c #854D62",
"k  c #885165",
"l  c #935569",
"z  c #A2576F",
"x  c #A05D70",
"c  c #B55E77",
"v  c #836D6A",
"b  c #81736D",
"n  c #937D6E",
"m  c #856D70",
"M  c #887777",
"N  c #937B76",
"B  c #957E7C",
"V  c #BC636F",
"C  c #B96475",
"Z  c #AF6879",
"A  c #CC6D42",
"S  c #D76D41",
"D  c #CA794D",
"F  c #D6724B",
"G  c #CB7D53",
"H  c #C07D58",
"J  c #C2667E",
"K  c #BA845B",
"L  c #8C807D",
"P  c #958173",
"I  c #9D897B",
"U  c #BC8B7C",
"Y  c #BC9978",
"T  c #B48561",
"R  c #BFA279",
"E  c #C7865A",
"W  c #CF945D",
"Q  c #CA9867",
"!  c #D09D68",
"~  c #DC8B79",
"^  c #C69675",
"/  c #D1917F",
"(  c #C28E66",
")  c #D2A064",
"_  c #CCA37A",
"`  c #D5AC7B",
"'  c #867B82",
"]  c #CC6681",
"[  c #D76B87",
"{  c #DA6A87",
"}  c #DD6C89",
"|  c #DE768C",
" . c #D87887",
".. c #DF7B90",
"X. c #E76F8E",
"o. c #E86F8F",
"O. c #E3728E",
"+. c #E4748F",
"@. c #E27790",
"#. c #E17B91",
"$. c #9B9190",
"%. c #988E8D",
"&. c #A28A82",
"*. c #BD838D",
"=. c #A89184",
"-. c #A2948D",
";. c #A69285",
":. c #A89B96",
">. c #B59E95",
",. c #B7A18E",
"<. c #B1A29B",
"1. c #B8A699",
"2. c #ACA5A5",
"3. c #B7ACA6",
"4. c #C58686",
"5. c #D1878E",
"6. c #C99985",
"7. c #D7998D",
"8. c #DE8494",
"9. c #D48D98",
"0. c #DB8B96",
"q. c #CF999C",
"w. c #DD929B",
"e. c #D79B9C",
"r. c #D6959E",
"t. c #E08192",
"y. c #C9A88A",
"u. c #D0AB89",
"i. c #D6B383",
"p. c #D7BA89",
"a. c #D8BA89",
"s. c #CDAA9B",
"d. c #C3AD9A",
"f. c #D4A796",
"g. c #CBB39B",
"h. c #CAB498",
"j. c #DBB99C",
"k. c #D3B197",
"l. c #CCB285",
"z. c #DB9AA1",
"x. c #D59DA1",
"c. c #D6AEAC",
"v. c #D8A7A8",
"b. c #CDB6A2",
"n. c #C7B5A8",
"m. c #D5B4A3",
"M. c #D5BCA3",
"N. c #D4BBAC",
"B. c #DABDAC",
"V. c #DBBCA3",
"C. c #CCBFB5",
"Z. c #C7BDBA",
"A. c #D9B2B2",
"S. c #D7BCB8",
"D. c #C9ACAB",
"F. c #E0ADAA",
"G. c #E0A9A6",
"H. c #E2B2AA",
"J. c #E0BDBA",
"K. c #DECB99",
"L. c #DFD09E",
"P. c #E0D29F",
"I. c #DAC4AB",
"U. c #DDC0A5",
"Y. c #CBC3BD",
"T. c #D4C1B3",
"R. c #DCC9B5",
"E. c #DAC4BB",
"W. c #DBCABB",
"Q. c #D6C7B8",
"!. c #E1C1AB",
"~. c #E1D4A3",
"^. c #E4C5B5",
"/. c #E3CBB5",
"(. c #E5CCBA",
"). c #E4C5BD",
"_. c #E6D0BD",
"`. c #EAD3BE",
"'. c #CCC7C2",
"]. c #D3CCC4",
"[. c #DBCDC5",
"{. c #D4CEC8",
"}. c #DCC7C3",
"|. c #D6D1CC",
" X c #DCD4CB",
".X c #DBD4CB",
"XX c #DBD6D1",
"oX c #DDD9D4",
"OX c #DBD9D4",
"+X c #EBD6C3",
"@X c #ECD8C5",
"#X c #E4D3CA",
"$X c #E4D8CF",
"%X c #E5D4C3",
"&X c #E3DCD4",
"*X c #E2DFD9",
"=X c #E9DDD3",
"-X c #E3C8C3",
";X c #DFE0DD",
":X c #EAE1D7",
">X c #E6E2DC",
",X c #EBE5DD",
"<X c #EDE8DF",
"1X c #EAE6E0",
"2X c #EDE8E0",
/* pixels */
"{ o.X.X.X.X.X.X.X.X.X.X.X.X.X.X.c 4 ; 4 ; ; : ; ; ; ; ; ; ; l } ",
"{ o.X.X.X.X.X.X.X.X.o.X.X.X.X.X.x 4 6 % 7 8 0 ; : 5 m 5 6 % 4 c ",
"{ o.O.o.X.X.X.o.X.X.X.X.X.X.X.{ 8 ; % ; m N N ; 4 4 &.P 9 $ : j ",
"{ o.o.o.X.X.X.X.X.o.X.X.X.o.o.] > % : M &.,.=.2 % 6 &.1.B & : l ",
"{ o.X.X.X.X.X.X.X.X.X.X.X.X.o.c % % ; I P P =.:.>.<.;.I N 0 % k ",
"{ o.X.X.X.X.X.X.X.X.X.X.X.X.X.z @ @ & >.3.3 1.+X`.(.I -.d.M % , ",
"{ o.X.X.X.X.X.X.X.X.X.X.X.X.X.j + O % 1.Q.-.T.@X+X+X>.n.R.0 l c ",
"{ o.X.X.X.X.X.X.X.X.X.X.X.X.X., o o O -.%X%X+X+X_.`.+X+XT.6 l X.",
"{ o.o.o.X.o.X.X.X.o.X.o.o.X.[ # . . + M `.`.@X`.(._.+X+Xb.& j } ",
"{ o.X.o.X.X.X.X.X.X.X.X.o.o.{ #   . . q /.@X!.7./ U (.@Xs.$ # ] ",
"[ o.X.X.X.X.X.o.o.o.X.X.o.o.{ #     . $ b.@X!.~ ~ 6._.^.5.k O c ",
"[ X.X.o.X.o.X.X.o.o.X.X.o.o.{ 2 * = + O P j.(.j.u.!.d.v ] [ > j ",
"{ o.X.X.o.o.X.X.X.X.X.o.o.X.0.Z.|.'.3.6 M d.u.V.T.C.2.%.*.| J > ",
"{ o.o.o.X.X.X.X.X.X.X.o.o.8. X>X;X>X|.2.M {.u.y.n.Z.].1XXXx.O.Z ",
"{ o.o.X.X.X.X.X.X.X.X.o.@.J.1X1X>X>XOX'.' Y.k.^ 3.Y.{.1XoX}...x.",
"{ o.o.X.X.X.X.o.X.o.o.X.z.>X1X1X>X,XoX;X2.3.M.Y Y.XX|.1XoXoXr.A.",
"{ o.X.X.X.X.X.X.o.o.o.| -X1X1X1X>X>XoX&XXX$.q 1 $.Y.{.;X.X,XQ.|.",
"{ o.X.X.X.X.X.X.o.o.@.A.>X1X1X1X>X>X>XQ.Q.q - q w b Y.;X;X,X>XOX",
"{ X.X.X.X.X.o.o.o.@.F.1X1X,X1X>X*XoXj.T K a P ;.:.Z.|.|.>X<X>XXX",
"{ o.o.X.X.X.X.o.o.w.=X1X1X1X1XoXoXy.t t g A Y 1.L Y.{.XX<X,X<X>X",
"{ o.o.o.o.o.o.X.X.v.Q. X1X1X1X|.E.f t d l.G E b.3.-.].;X1X1X1X1X",
"{ o.X.o.o.o.o.X.8.)._.B.}.>X1X'.*.d p Q ~.! W ^ W.$.L XX1X1X>XW.",
"{ X.X.X.o.O.o.+.F.+X+X/.6.D.|.C.g p y p.~.` W ( W.{.1 2.,XXXI.U.",
"{ o.X.X.o.o.o.t._.+X+XF.@.9.'.n.y r d K.~.a.D E R.Y.= * 3.g.j._.",
"{ o.X.X.o.o.O.G._.^.J.t.O.v.oXj.i e K P.~.p.A F g.:.X q h.h.I.@X",
"{ o.X.o.X.o.t.^.+X_.B.0.@.c.:Xs.H f K ~.~.p.S F V.4.C 6.U.I.d.I.",
"{ o.X.X.o.o.w.`.+X@X@X(.e.N.=XR./.k._ ~.~.p.S F s... .f.I.R.I.I.",
"{ o.X.X.o.o.#.H.`.@X@X@X`./.R._.`.H.y.~.~.p.A F 4.@.O. .7.M.`.`.",
"{ o.X.X.X.X.X.+.w.H.^.+X+X+X_.@X/.k.R L.~.i.E E U O.o.o.O.0.F.G.",
"{ O.X.X.X.X.X.X.X.O.t.0.I.%X%X@Xj.E K L.P._ ) ^ b.O.o.o.o.O.O.O.",
"{ o.X.X.X.X.X.X.X.o.+.w.#X:X=X_.h p g K.K.Q ! g.S...o.o.o.o.o.o.",
"{ o.X.X.X.X.X.X.o.o.w.&X,X,X<X:X6.g p _ a.D ( T.:X).t.o.o.o.o.o.",
"{ o.X.X.X.o.X.X.o.X.F.<X<X1X=X$XE.h t s E F f.&X,X<X^...o.o.o.X.",
"{ o.X.X.X.X.X.o.o.0.#X<X<X=X}.A.e.4.g f D 6.#X=X.X X:Xv.@.o.o.9.",
"{ X.X.X.X.X.o.o.+.).,X<X2XoXc.V C 4.T.h.R.:X,X.X&X[.=X=Xw.o...S.",
"{ o.X.X.X.o.o.O.e.:X,X<X2XoXE.x.f.A..X:X:X<X<X&X,X.X&X2X-X..z.oX",
"{ o.X.X.X.X.o.+.J.,X<X,X2X,XoX&X#X[.&X<X<X<X,X.X.X[.:X<X:Xe.S.*X"
};
