/* XPM */
static char *yamada_3[] = {
/* columns rows colors chars-per-pixel */
"32 37 208 2 ",
"   c #302737",
".  c #352A3A",
"X  c #392C3D",
"o  c #3D303E",
"O  c #2D2535",
"+  c #3E2F41",
"@  c #423245",
"#  c #463649",
"$  c #4E3649",
"%  c #47384B",
"&  c #4B3B4D",
"*  c #57394C",
"=  c #4E3F51",
"-  c #513E51",
";  c #633D51",
":  c #52424C",
">  c #5B4C48",
",  c #4F4050",
"<  c #544254",
"1  c #5A4355",
"2  c #5C4C55",
"3  c #5B455A",
"4  c #5D5153",
"5  c #62514A",
"6  c #6E4257",
"7  c #63475D",
"8  c #6C495D",
"9  c #66485E",
"0  c #79495C",
"q  c #65545A",
"w  c #6B5B5B",
"e  c #7E6457",
"r  c #6D5B61",
"t  c #7F5165",
"y  c #736266",
"u  c #786366",
"i  c #7E6D6A",
"p  c #756869",
"a  c #796E74",
"s  c #7F7271",
"d  c #D9683D",
"f  c #A15640",
"g  c #90644D",
"h  c #B16E4C",
"j  c #8B4B60",
"k  c #9B566D",
"l  c #95556B",
"z  c #A4556A",
"x  c #B3596F",
"c  c #A85C72",
"v  c #B45D75",
"b  c #876E6B",
"n  c #887268",
"m  c #8C7A77",
"M  c #867C7E",
"N  c #8D7773",
"B  c #937A6B",
"V  c #AC6175",
"C  c #A76776",
"Z  c #A67D78",
"A  c #B9617A",
"S  c #D56E41",
"D  c #CB744A",
"F  c #C77C5F",
"G  c #D47C54",
"H  c #CE736D",
"J  c #C3627C",
"K  c #C5687D",
"L  c #C1727C",
"P  c #D47476",
"I  c #8F8074",
"U  c #95827B",
"Y  c #9D897B",
"T  c #A18C7F",
"R  c #BB8471",
"E  c #AF8970",
"W  c #D28757",
"Q  c #D2965F",
"!  c #CE8B57",
"~  c #C78A66",
"^  c #CF9569",
"/  c #D59766",
"(  c #C28776",
")  c #C99B77",
"_  c #D78F71",
"`  c #CEA379",
"'  c #D0A07C",
"]  c #D9A467",
"[  c #CE6681",
"{  c #CE6882",
"}  c #D76B85",
"|  c #DA6A87",
" . c #DC6B88",
".. c #D06782",
"X. c #DD798F",
"o. c #DA778C",
"O. c #DF7E91",
"+. c #C67E84",
"@. c #E76F8E",
"#. c #E86F8F",
"$. c #E4728E",
"%. c #E8708F",
"&. c #E0748A",
"*. c #E47490",
"=. c #E97190",
"-. c #E07B91",
";. c #8F8481",
":. c #958982",
">. c #9C928E",
",. c #9B9293",
"<. c #A08F87",
"1. c #A89484",
"2. c #A59B95",
"3. c #B29E98",
"4. c #BAA38D",
"5. c #ABA39F",
"6. c #BAA593",
"7. c #B9A695",
"8. c #B5AEAA",
"9. c #B8A9A1",
"0. c #BEB7B3",
"q. c #CB848A",
"w. c #D88689",
"e. c #C78E93",
"r. c #D78594",
"t. c #DC8494",
"y. c #D98895",
"u. c #DC8D9A",
"i. c #DA8A98",
"p. c #C7989C",
"a. c #DC949C",
"s. c #D59C9C",
"d. c #D8969D",
"f. c #D39782",
"g. c #C8A685",
"h. c #CDAA88",
"j. c #D2AD8B",
"k. c #C7A994",
"l. c #D3AD97",
"z. c #C8B09A",
"x. c #C5B09B",
"c. c #D6B495",
"v. c #DC9BA3",
"b. c #C3A6A7",
"n. c #DCA0A6",
"m. c #D4ADAA",
"M. c #DCADAD",
"N. c #D5A4A4",
"B. c #CEB8A3",
"V. c #C4B3A3",
"C. c #D2BBA4",
"Z. c #DBBAA2",
"A. c #D1BCAC",
"S. c #D6B0AC",
"D. c #DCAEB1",
"F. c #C1B8B2",
"G. c #CCBFB4",
"H. c #C1BBB8",
"J. c #DDB3B3",
"K. c #D5B9B6",
"L. c #E0A5A3",
"P. c #E1BFBC",
"I. c #E1B9A5",
"U. c #D3C1AF",
"Y. c #DCC3AD",
"T. c #DAC1A6",
"R. c #CCC4BD",
"E. c #CBC1B9",
"W. c #DAC6B5",
"Q. c #DCC3BE",
"!. c #DDCCBD",
"~. c #D5C6B8",
"^. c #E3C2AD",
"/. c #E0CAB5",
"(. c #E4CEBA",
"). c #E7C9B5",
"_. c #E7D1BC",
"`. c #CCC6C0",
"'. c #CFCAC5",
"]. c #D7C6C1",
"[. c #D4CCC3",
"{. c #DACCC2",
"}. c #DACECA",
"|. c #DEC4C1",
" X c #DBD2C6",
".X c #D6D1CB",
"XX c #DBD4CC",
"oX c #DBD6D1",
"OX c #DDD9D3",
"+X c #E3C5C1",
"@X c #E2CBC5",
"#X c #E4CEC8",
"$X c #E3D3C4",
"%X c #EAD5C3",
"&X c #ECD8C6",
"*X c #E4D5CB",
"=X c #E4DACF",
"-X c #E3DCD4",
";X c #E8DDD4",
":X c #E3DFD9",
">X c #E7E0D7",
",X c #E9E0D7",
"<X c #E4E1DC",
"1X c #ECE6DE",
"2X c #EDE8DF",
"3X c #EAE6E0",
"4X c #EDE8E0",
"5X c #E7E4E0",
/* pixels */
"| @.@.#.@.#.@.#.#.@.#.@.*.@.*.@. .#.#.#.$.@.@.@.#.@.#.#.@.@.@.@.",
"| %.#.@.#.@.@.@.#.#.@.@.| v k l k c [  .@.%.@.@.#.#.@.#.#.@.@.@.",
"} #.#.#.@.@.#.@.#.#.@.v t 9 7 3 7 7 9 l [  .@.@.@.@.@.#.#.@.@.#.",
"| #.#.@.#.@.#.@.#.| k 9 3 3 3 3 3 3 < 3 8 k [ @.@.#.@.@.@.*.@.@.",
"| #.#.@.@.@.@.*. .l 1 < < < < , , < < < < < t J @.@.#.@.#.@.#.@.",
"| #.@.#.@.#.@.@.c 1 - = = = , , = = - = - = = 8 A @.@.@.@.#.#.#.",
"| #.#.@.#.@.@.[ 8 < = = = & , , = , < 1 = & @ - k @.#.#.#.#.@.O.",
"| #.@.#.@.@.@.l & % % % , q 1 & % r y :.1 & % % j } #.#.#.#.O.].",
"| @.@.@.#.#.| ; % # - q p N y # # r 1.4.n - # @ 0 @.@.@.@.@.a.:X",
"| @.@.@.#.#.[ * # @ q T T T U % # q C.W.B.y # ; j @.@.@.@.@.D.1X",
"| #.@.@.#.%.[ $ @ + r z.6.z.4.i >.6.k.4.x.N $ v } @.@.@.$.P s. X",
"| #.@.@.#.=.v $ X . 7 6.6.Y 1.W.&X/.<.Y x.i @ z @.@.@.@.&./ ~ $X",
"| #.@.@.@.#.[ $     & 7.~.m 3.&X&X%X<.9./.Z $ 6 } @.@.@.P Q / $X",
"| #.@.#.@.#.| ;   O o <._.E.W.&X_.%X$X%X^.q.c * x @.@.@.H W W !.",
"| #.#.#.#.@.@.j o . . y _.&X&X&X%X&X&X&XW.A.N.C 0 J @.%.w.S G ~.",
"| =.#.#.@.@.X.p.8.8.a 2 V.&X%X^.I.l.W.&X@X>X:XJ.K z x V Z f h A.",
"} %.@.@.@.%.v.1X<X5X.XM s (.(.f._ ( Y.(. X1X1X-Xi. .[ c b g h I.",
"( X.X.$.%.O.@X3X3X3X:X`.y U ^.Z.l.Z.A.G.XX<X5X1Xn.%.*.O.K.^ ] ' ",
"U.*X@XM.r.M.1X5X3X3X:XOX`.a n g.c.4.0.`.XXOX<X3X|.y.-.u.}.) ] W ",
"-X4X2X1XQ.-X5X1X3X<XOXOXOXoX,.b E E 0..XXX.X<X3X<X-Xm.Q.XXl.W S ",
"-X4X1X4X,XOX1X3X3X:X`.-XOX3X5X0.B e s 5.R..X<X3X3X2X.X.XoX|.D d ",
"-X2X4X1X2X X X3X3XoXE.:XOX5X3X.Xn 5 4 p R..X<X3X3X5XR.~.-X[.H d ",
"-X4X2X1X4X:XB.}.OX'..X1XOX5X5XI > I >.0.F..X<X1X3X XY.Y. X!.R d ",
"-X4X1X4X2X1X~.F.H.`.OX1X5XOX0.: w 1.>.;.:.8.OX3XOXT.4.T._.=Xz.d ",
"-X:X,X2X2X4X[.b.e.].OX1X1X3XR.;.5.i [.,X:X3.b.:XU.j.` c.T.!.XXk.",
"-X,X:X4X2X2XQ.o.$.J.OX1X2X2X1X1X1X2.2.1X;Xv.o.l.C.j.` ) k. X1X<X",
"-X2X>X,X3X4X+X-.=.d.*X2X1X4X1X4X1X[.].3X;Xu.%.X./._.c.j.{.].-X<X",
"-X2X2X1X4X4X/.$.=.r.*X2X4X1X4X4X,X-X4X4X*X-.%.$.c._.).l.v.y.u.s.",
"-X2X2X2X3X4XJ.@.%.u.=X2X4X1X1X2X1X1X2X2XJ.$.%.%.*.a.a.$.@.@.%.$.",
"-X2X2X3X4X1Xv.=.%.y.;X2X2X2X2X2X1X2X4X,XS.&.%.%.%.@.@.%.@.@.%.o.",
"-X2X1X4X4X#X-.=.$.M.,X1X4X4X4X2X2X2X4X*X!.y.$.%.%.%.%.@.%.@.$.p.",
"-X2X4X4X;Xv.=.=.u.;X-X:X-X-X,X2X2X2X1X X;X@Xa.$.%.%.@.@.@.@.O.K.",
"V.$X*X(.a.%.*.@.v.:X;X[.oX-XXX>X2X2X1X,X1X2X,XM.-.%.%.%.#.@.d..X",
"R ' r.*.@.@.@.O.).2X:X].N.q.e.{.2X,X1X1X>X*X>X,XI.-.%.%.#.r.}.<X",
"} &.@.@.@.%.*.n.3X4X-XK.A K +.A.!. X1X1X>X1XXX2X1XD.*.%.o.H.<X<X",
"| @.@.@.@.%.t.$X4X4X;X|.S.l.m.}.,X1X2X1XOX>XXX,X1X,Xv.#.O..X<X<X",
"| @.@.@.@.@.v.1X1X2X2X-XXX X{.,X2X2X2X1X[..XOX1X1X1X*Xt.u.OX5X<X"
};
