/* XPM */
static char *yamada_22[] = {
/* columns rows colors chars-per-pixel */
"32 37 211 2 ",
"   c #443545",
".  c #4A3B4B",
"X  c #473749",
"o  c #4D3E50",
"O  c #503D50",
"+  c #603F53",
"@  c #4E434B",
"#  c #52414F",
"$  c #534154",
"%  c #5C465A",
"&  c #5E485C",
"*  c #644C5E",
"=  c #674858",
"-  c #63505B",
";  c #6C5C5A",
":  c #68505F",
">  c #725F55",
",  c #736059",
"<  c #6E4D60",
"1  c #6D5461",
"2  c #695B65",
"3  c #785B66",
"4  c #6C6062",
"5  c #7B6469",
"6  c #796868",
"7  c #7D6E73",
"8  c #7F7473",
"9  c #9F5732",
"0  c #AB4824",
"q  c #AC4E2A",
"w  c #A3522F",
"e  c #A55B3B",
"r  c #A65C37",
"t  c #BC5F39",
"y  c #B25632",
"u  c #B46039",
"i  c #C3653D",
"p  c #D6663C",
"a  c #844F59",
"s  c #AB5147",
"d  c #A96A42",
"f  c #A86B4A",
"g  c #AA7149",
"h  c #A5714D",
"j  c #BE7043",
"k  c #BD794A",
"l  c #B37350",
"z  c #864C62",
"x  c #98576C",
"c  c #875067",
"v  c #AE5B74",
"b  c #B65E75",
"n  c #A3586B",
"m  c #826E6B",
"M  c #82666B",
"N  c #897569",
"B  c #9D6470",
"V  c #837673",
"C  c #897A76",
"Z  c #917C73",
"A  c #9B797A",
"S  c #B67965",
"D  c #B07D7F",
"F  c #AE6775",
"G  c #C36A42",
"H  c #CC714B",
"J  c #CE7A53",
"K  c #D5744D",
"L  c #C7647C",
"P  c #D2737E",
"I  c #BD8258",
"U  c #9E8A7B",
"Y  c #9A8479",
"T  c #B8926F",
"R  c #A38C7E",
"E  c #AB8673",
"W  c #BA8875",
"Q  c #B08373",
"!  c #C3804E",
"~  c #C68C59",
"^  c #C58759",
"/  c #CE925D",
"(  c #CF8B6B",
")  c #CF9C63",
"_  c #C68875",
"`  c #D8857C",
"'  c #CB9878",
"]  c #CD6681",
"[  c #D36984",
"{  c #DA6A87",
"}  c #DE6C89",
"|  c #D06681",
" . c #DD768D",
".. c #DD7A8E",
"X. c #DC7387",
"o. c #DE7D91",
"O. c #CA788A",
"+. c #E76F8E",
"@. c #E86F8F",
"#. c #E4728E",
"$. c #E8708F",
"%. c #E77290",
"&. c #EA7090",
"*. c #E17B91",
"=. c #8B8080",
"-. c #958A87",
";. c #9C9291",
":. c #AC8681",
">. c #AE9582",
",. c #B29B8A",
"<. c #B69A86",
"1. c #A59A95",
"2. c #A99C96",
"3. c #BCA28B",
"4. c #A9A09D",
"5. c #B6A799",
"6. c #AEA5A3",
"7. c #BBABA3",
"8. c #B5ACA8",
"9. c #BDB3AD",
"0. c #BEB6B1",
"q. c #BFB8B5",
"w. c #C98A89",
"e. c #DC828F",
"r. c #C9968B",
"t. c #D79884",
"y. c #C98E90",
"u. c #DD8494",
"i. c #DA8A97",
"p. c #DC8C99",
"a. c #D58894",
"s. c #CC9893",
"d. c #D3969B",
"f. c #D9929D",
"g. c #D5999A",
"h. c #CAA385",
"j. c #C3A189",
"k. c #C6A489",
"l. c #D9AF8E",
"z. c #C3A893",
"x. c #CBAD9A",
"c. c #C5AA95",
"v. c #D4AB93",
"b. c #D8A59A",
"n. c #C4B09D",
"m. c #CCB39D",
"M. c #D5B89E",
"N. c #D4B298",
"B. c #C8ACA2",
"V. c #DEA3A4",
"C. c #D5ABAB",
"Z. c #DBACAD",
"A. c #DAA8A5",
"S. c #C8B5A5",
"D. c #C7B9AC",
"F. c #D4B5A1",
"G. c #D4BAA3",
"H. c #D2BCAB",
"J. c #DFBBAB",
"K. c #DBB8A3",
"L. c #D7AEB1",
"P. c #C3BAB3",
"I. c #C3BBB8",
"U. c #CCBAB2",
"Y. c #DCB3B3",
"T. c #D6BBBA",
"R. c #DBBAB9",
"E. c #DCC3AC",
"W. c #DEC2A7",
"Q. c #CCC3BB",
"!. c #CFC3B5",
"~. c #D4C2B4",
"^. c #D9C4B0",
"/. c #D6CABE",
"(. c #DACABB",
"). c #DBC9B3",
"_. c #E1C7AF",
"`. c #E3C4B1",
"'. c #E3CBB6",
"]. c #E2C3BE",
"[. c #E2CDBA",
"{. c #E9CFBC",
"}. c #E6D1BB",
"|. c #E9D2BD",
" X c #CFC9C3",
".X c #C9C5C0",
"XX c #D4CCC4",
"oX c #DCCBC2",
"OX c #D9CCC8",
"+X c #DCD1C6",
"@X c #DCD4CC",
"#X c #D7D2CC",
"$X c #DCD6D1",
"%X c #DED9D3",
"&X c #DFDFDC",
"*X c #E2CAC0",
"=X c #E1D3C5",
"-X c #EBD6C3",
";X c #ECD8C6",
":X c #E4D6CC",
">X c #E3D9CE",
",X c #E3DBD3",
"<X c #E2DED9",
"1X c #E5D8D2",
"2X c #EAE1D5",
"3X c #E4E1DD",
"4X c #ECE6DD",
"5X c #EEE8DF",
"6X c #E7E5E1",
"7X c #E9E6E1",
"8X c #EDE8E0",
/* pixels */
"{ @.+.+.+.+.+.+.+.+.+.+.b : < & < & & - : * * * 1 B } %.+.+.@.+.",
"{ $.+.+.+.$.+.+.@.@.+.{ x * * * & < 2 & * * : * = 3 ] +.+.+.@.@.",
"{ $.+.+.+.+.+.+.@.@.@.L : % % % 1 5 5 % * 5 A ; * * v +.+.+.+.@.",
"{ +.+.+.+.+.%.+.@.@.@.v = % % - A Y 5 % 1 A <.Z 1 * n +.+.+.+.+.",
"{ +.+.+.+.+.+.@.+.+.{ c $ $ - Y ,.3.6 3 C 3.z.R 5 $ x +.@.+.+.@.",
"{ @.+.+.+.+.+.+.+.+.L = $ @ 6 U U N ,.E.).n.N R 5 = n +.+.+.+.+.",
"{ %.@.+.+.+.+.+.+.+.v O @ # U D.1., H.-X-XS.6 7.R = b @.+.+.+.@.",
"{ @.+.+.+.@.+.@.+.+.z X . ; m.[.!.4.(.-X}.[.D.(.<.a { +.$.+.@.+.",
"{ @.+.+.+.+.+.+.+.] O X   7 E.}.-X;X-X|.}.-X;X|.:.L +.+.+.+.+.+.",
"{ +.@.+.+.+.+.+.+.v X       N ^.;X;X`.K.v.G.-X|.D } +.+.+.+.+.+.",
"{ @.+.+.+.+.+.+.+.z X O . @ 6 n.-X;Xv.` ( z.|.H.F +.+.+.+.+.+.+.",
"{ @.+.+.+.+.+.+.[ 3 1.6.6 P.XXU.K.|.J.t.t.`.^.M A X.+.+.+.+.+.%.",
"{ +.+.+.+.+.+.+.O.I.3Xq.-.$X1X3X~.N.W.W.H.S.2.2 I.d.+.@.+.+.%.o.",
"{ @.@.+.+.+.+.%.L.6X6X0.1.%X$X6X3XH.h.3.9.8.7 -.#XY.+.@.+.+.%.f.",
"{ %.+.+.@.@.+.i.1X6X7X0.4.1X%X6X3X!.h.3..X8.5 P.%XOX .@.%.%.o.L.",
"{ +.+.@.+.@.o.R.%X6X7Xq.6.<X$X3X0.V , 6 I.;.6. X<X1Xa.+.%. .Y.3X",
"{ @.+.@.+.%.C.4X%X4X7X X9.%X$X%X;.> U ; 4 =.#XQ.3X4XL.#.$...=X6X",
"{ @.+.+.+.a.1X8X3X&X7X$XP./.Q.&X8.V n.-.8 5.%X#X6X6X,Xi.#.e.$X6X",
"{ +.+.@. .R.7X7X4X$X3XXXE T ' 0.8 8.5.Y 4.#X>X#X6X6X6XR.%.i.1X6X",
"{ %.@.@.p.<X7X8X7X&X%Xm.r u J R Y XX1.8 Q.8X%X%X6X5X4XL. .Z.6X6X",
"{ @.@.+.a.U./.@X3X7X XS d i K j.Q.<X5.-.2X8X<X3X6X6X@Xd.o.oX%X$X",
"{ @.+.@.} s.).W.G.$X7.g g t i r.>X@X!.Q.8X8X>X%X3XOXE.J.B.@X%X6X",
"{ @.+.@.#.A.;X-XM.7.E w w j ^ h.>X+X2X8X8X2X).!.^.x.{.|.oX6X6X6X",
"{ @.+.+.u.`.'.{.s.w.W y 0 ! ) k./.>X7X8X8X>XE.M.'.W.[.*X*X3X6X6X",
"{ @.+.+.b.-X).F.w.K._.' r k ^ k.:X2X4X4X4XH.x.M.K.'.G.'.).@X6X6X",
"{ @.+...`.-X-X'.K.}._.M.l i G M.1X5X5X5X:Xt.s.r._ l.'.;X-XoX4X6X",
"} @.@.%.V.}.-X-X).}.).N.l p K m.,X5X4X<XV.%. .X.P ` v.|.;X=X&X6X",
"{ @.@.@.#.p.V.V.b.l.' I l p ^ `.<X5X4X*Xo.@.$.+.#.#.#.p.V.C.%X6X",
"{ @.+.+.$.$.#.#. .S q 0 u j ( +X5X5X2Xf.$.$.$.$.@.@.+.%.$. .V.R.",
"{ @.+.+.$.$.+.+.o._ e w k / ' oX5X5X2XV. .$.$.$.@.+.+.+.$.+.#.#.",
"{ @.+.+.+.+.+.#.f.F.g d ~ / N.1X5X4X5X:XZ.#.@.@.@.@.+.+.+.+.%.%.",
"{ @.+.+.+.+.#.u.].H.h d k ^ H.2X4X4X5X5X1Xi.@.@.@.@.+.+.+.+.$.o.",
"{ @.@.@.$.$.e.].>XF.e u p ' ).,X4X4X4X7X5X].u.$.$.$.@.@.+.+.i.T.",
"{ $.@.@.$.$.Z.4XOXy.s i H c.(.).}.;X2X4X4X4X].*.$.$.@.@.%.o.T.&X",
"{ @.+.+.$.u.:X5X@XC.y.W z.XX4X>X:X2X4X,X>X%X2XZ.#.+.+.@. .L.&X&X",
"{ $.+.@.$.Y.5X5X2X@XoX~.(.4X5X4X8X4X5X>X4X,X,X1Xp.$.+.$.f.%X3X3X",
"{ +.+.+.u.:X5X5X8X2X:X=X>X4X4X4X4X4X4X%X4X,X,X8X].*.$.#.R.&X3X&X"
};
