/* XPM */
static char *yamada_9[] = {
/* columns rows colors chars-per-pixel */
"32 37 198 2 ",
"   c #2D2435",
".  c #392C3E",
"X  c #352A3B",
"o  c #3C2E40",
"O  c #402F42",
"+  c #443446",
"@  c #463649",
"#  c #4C3C4D",
"$  c #463846",
"%  c #503849",
"&  c #5B3D4C",
"*  c #4F3E51",
"=  c #503F52",
"-  c #544254",
";  c #5A4454",
":  c #5D4C56",
">  c #5C4659",
",  c #5E485B",
"<  c #62524D",
"1  c #634559",
"2  c #634A5E",
"3  c #6A4A5F",
"4  c #634152",
"5  c #76475B",
"6  c #675750",
"7  c #65535C",
"8  c #6A565D",
"9  c #6E4D60",
"0  c #744D61",
"q  c #695B62",
"w  c #735B62",
"e  c #6E6268",
"r  c #7E6C6D",
"t  c #796765",
"y  c #756B74",
"u  c #D5653A",
"i  c #DA653B",
"p  c #D3693D",
"a  c #BE6F47",
"s  c #BF7556",
"d  c #884C62",
"f  c #875166",
"g  c #935067",
"h  c #A0566C",
"j  c #AA5D74",
"k  c #B45D76",
"l  c #826C68",
"z  c #8A766D",
"x  c #9F6072",
"c  c #877876",
"v  c #937C77",
"b  c #927E79",
"n  c #BE7F66",
"m  c #AC6275",
"M  c #BE627B",
"N  c #C86E42",
"B  c #C5794B",
"V  c #C1744C",
"C  c #D4734A",
"Z  c #CC7E5C",
"A  c #C37E55",
"S  c #C4647D",
"D  c #D36C7B",
"F  c #C17D7A",
"G  c #968375",
"H  c #BB8B64",
"J  c #AB8D74",
"K  c #BB8370",
"L  c #CA8B5A",
"P  c #D18A5C",
"I  c #CC915D",
"U  c #CA8966",
"Y  c #CD9563",
"T  c #D98C79",
"R  c #C99274",
"E  c #CD9B7C",
"W  c #D19B7B",
"Q  c #CAA07B",
"!  c #D5A669",
"~  c #897F80",
"^  c #D66985",
"/  c #DA6A87",
"(  c #DD738D",
")  c #DE7A8E",
"_  c #DC7A90",
"`  c #E76F8E",
"'  c #E86F8F",
"]  c #E3728E",
"[  c #E8708F",
"{  c #E07890",
"}  c #8B8182",
"|  c #8F8589",
" . c #968A84",
".. c #9C8A83",
"X. c #938B8C",
"o. c #908681",
"O. c #9A918F",
"+. c #9A8F90",
"@. c #9F9493",
"#. c #A38D82",
"$. c #A99483",
"%. c #AA9A8E",
"&. c #A89588",
"*. c #B19C8B",
"=. c #B79A8A",
"-. c #A59B97",
";. c #BA9494",
":. c #B9A28D",
">. c #B6A08B",
",. c #AEA5A3",
"<. c #A7A0A2",
"1. c #B4ADA9",
"2. c #B8ABA2",
"3. c #BCB3AD",
"4. c #BEB8B8",
"5. c #C8878E",
"6. c #D18A8B",
"7. c #D19C84",
"8. c #D29887",
"9. c #D98B94",
"0. c #DC8C99",
"q. c #DA8193",
"w. c #CE9299",
"e. c #D89399",
"r. c #CEA486",
"t. c #CEA98A",
"y. c #CDA68C",
"u. c #D2A38D",
"i. c #C5AF9F",
"p. c #C6AC95",
"a. c #D4AB93",
"s. c #CCB39D",
"d. c #C5B09E",
"f. c #D5B69D",
"g. c #DB9BA2",
"h. c #D19EA0",
"j. c #CCA8A1",
"k. c #DDA6AA",
"l. c #D8A7A6",
"z. c #C8B7A9",
"x. c #D4BDA6",
"c. c #D3B3AC",
"v. c #D1BEAB",
"b. c #D8BCA7",
"n. c #D5AFB0",
"m. c #C3BBB4",
"M. c #C9BDB4",
"N. c #D0BFB0",
"B. c #DCB9B4",
"V. c #E1BAAD",
"C. c #E1B2A7",
"Z. c #E0B9B5",
"A. c #DEC0A7",
"S. c #D5C1AE",
"D. c #DEC6AF",
"F. c #CDC4BC",
"G. c #C7C0BB",
"H. c #D5C3B3",
"J. c #DEC6B0",
"K. c #D4C4BA",
"L. c #D5CABC",
"P. c #DACABC",
"I. c #DAC5BB",
"U. c #E2C2AD",
"Y. c #E3C0A6",
"T. c #E1C5B2",
"R. c #E3CAB5",
"E. c #E1CDB9",
"W. c #E0C0BD",
"Q. c #E6D1BE",
"!. c #E9D0BB",
"~. c #CBC5C0",
"^. c #CFC9C4",
"/. c #D3CBC3",
"(. c #DBCEC5",
"). c #D3CEC9",
"_. c #DDD1C3",
"`. c #D6D1CB",
"'. c #DCD5CC",
"]. c #D9D6D1",
"[. c #DFD9D2",
"{. c #E0CBC6",
"}. c #E6D3C2",
"|. c #EBD6C3",
" X c #ECD8C7",
".X c #E2D6CB",
"XX c #E1D9CE",
"oX c #ECD9C8",
"OX c #E3DCD3",
"+X c #E9DDD4",
"@X c #E2DFDA",
"#X c #E7E0D7",
"$X c #E6E1DB",
"%X c #ECE6DE",
"&X c #EDE8DF",
"*X c #EAE0D7",
"=X c #EAE7E1",
"-X c #EEE8E0",
/* pixels */
"/ ' ` ' ` ` ' ` ` ` ` ` ` ` ` ` ` ` ` ` ] ` S f 3 3 9 , 9 9 0 ^ ",
"/ ' ` ` ` ` ` ` ` ` ` ` ` ` ` ` ` ` ` ` ` k 0 2 2 2 2 , > , > 9 ",
"/ ' ` ` ` ' ' ` ` ` ` ` ` ` ` ` ` ' ` / m 3 , , , , , , > > > 2 ",
"/ [ ` ' ` ` ` ` ` ` ` ` ` ` ` ` ` ' ( j w 2 , , > > ; > > > > > ",
"/ ` ` ` ` ` ` ` ` ` ` ` ` ` ` ` ` ` j 1 ; ; - ; 2 e 2 - - w q 9 ",
"/ ` ` ` ' ` ` ' ` ` ` ` ` ` ` ` ' k 1 = * = - : b #.r - - c b c ",
"/ ` ` ' ' ` ` ` ` ` ` ` ` ` ` ` ^ 0 = * @ * - l :.>.l * = ..*.&.",
"/ ` ` ` ` ` ` ' ` ` ` ` ` ` ` ` h & % @ o @ 7 $.s.s.v e r i.b.s.",
"/ ` ` ` ` ' ` ` ` ' ' ` ` ` ` ^ 5 4 $ X X $ z *.%.G :.R.!.D.p.%.",
"/ ` ` ` ` ` ` ' ` ' ' ` ` ` ` k & # .   . # *.H.2.l S. X XS.z %.",
"/ [ ` ` ` ` ` ' ` ` ` ` ` ` ' g + .     o : S.!.H.2.Q. X XP...G.",
"/ [ ` ` ` ` ` ` ` ` ` ` ` ` ` d + .     o 7 S.|. X X X XQ.|.Q.!.",
"/ [ ' ' ' ' ` ` ` ` ` ' ` ` ` d # y X.e + $ t E. X|.R.T.T.Q.|.!.",
"/ [ ' ' ` ` ` ` ` ` ` ` ` ` ' x <.$X@X~ q ,.2.S. X|.7.T K A. XD.",
"/ [ [ ' ` ` ' ` ` ` ` ` ' ' ( n.=X=X].e @.'.OXs.U.|.8.T 7.T.T.e.",
"/ [ [ ' ` ` ` ` ' ' ` ` ' ( k.$X=X=X~.c ^.`.$X/.p.f.b.f.x.H.H.5.",
"/ [ ` ` ` ` ` ` ` ` ` ` ` g.OX=X=X=X,.1.[.'.@X=X`.t.r.d.z.F.OXK.",
"/ ' ` ` ` ` ' ` ` ` ` ] g.I.H..X[.[.<.).OX[.@X@X'.x.Q 2.4./.[.$X",
"/ [ ' ` ` ` ` ` ` ` ` w.B.U A i.~.m.~.`.@XXX).~ ~ v J 3.F.F.).4.",
"/ [ ` ` ` ` ` ` ` ` / ;.n u L S.[.~.).].$X].=X~.X.6 < O.G.<.+.| ",
"/ [ [ ' ` ` ` ` ` ` ` n a N Q _.-X)./.OX%XOX).1. .&.| 1.(.`.[.=X",
"/ [ ' ' ` ` ' ` ` ` _ 8.I I s.#X-XOX'.%X-X).G -.F.&.1.OX'.[.=X=X",
"^ ' ' ` ` ' ' ` ] ] l.W ! Y H.*X-X@X@X&X-X'.^.%XK.z 3.XX'.OX=X=X",
"/ ' ` ` ` ' ` ' ` 0.T.P B U H.%X-X$XOX%X%X-X%X*XG.G .X&Xc.`.=X@X",
"/ [ ` ' ` ' ` ' { V.Y.C u Y P.&X%X#XOX%X%X&X%X'.'.'.%X+X9.g.H.x.",
"/ [ ` ` ` ` ` ` 9.!.Y.C i r..XOXL.OXXX&X&X&X#X.X&X&X%XB.] ] 6.T.",
"/ ' ' ` ` ` ` ` { C.V.C i r.'.#X'.@X@X%X&X%X*X%X&X&X.Xq.[ [ _ V.",
"/ ' ' ' ' ` ` ` [ { 8.V N a.XX-X&XOX#X-X%X-X&X-X&X*Xe.] [ [ [ e.",
"^ ` ` ` ` ` ` ` ` ' D U L a.XX&X&XOX*X&X&X%X&X-X%Xk.] ' [ [ ' ] ",
"^ ' ` ' ' ` ' ' ' ' D Y P y.XX&X&XXX%X&X%X&X-X+Xk.] ' ' [ [ [ [ ",
"/ ' ' ' ' ` ' ` ` ' / A B t.XX&X%X.X%X&X%X&XOXl.] ] ' ' ' ' [ [ ",
"/ ' ` ` ` ` ' ' ` ` g.U u R '.&X.X_.&X&X&X&XOXc.9.] ' ' ' ' [ [ ",
"/ ' ' ' ` ` ' ` ` g.+Xa.u U P.%Xz.N.+X%X&X-X%XOXB.] [ [ ' ' ` ` ",
"/ ' ' ' ` ' ' ' g.@X&X.Xt.H =.s.I./.P.(.XXOXXX$X{._ [ [ ' ` ` ' ",
"/ ' ` ` ' ' ' 0.+X%X%X%XOXv.n.l.(.'.%X+XXXOX%XXX'.h.` [ ' ` ` ` ",
"/ ' ` ` ' ' { W.%X%X%X-X%XOX`.(./.$X&X&X&X&X*X'.@X_.0.[ ' ' ' ) ",
"/ ' ` ` ` ` g.+X%X&X-X%X%X%X*XOX%X%X%X&X&X&X@X'.OXOXZ.] ` ` ` e."
};
