/* XPM */
static char *yamada_20[] = {
/* columns rows colors chars-per-pixel */
"32 37 207 2 ",
"   c #453648",
".  c #4B3C4E",
"X  c #443648",
"o  c #553B4D",
"O  c #503F52",
"+  c #5A494B",
"@  c #4F4052",
"#  c #534254",
"$  c #5B4A53",
"%  c #5B455A",
"&  c #5D495B",
"*  c #594554",
"=  c #5E505A",
"-  c #61475D",
";  c #634A5D",
":  c #694C5E",
">  c #6B4354",
",  c #724B5E",
"<  c #7D4A5F",
"1  c #635254",
"2  c #6B585A",
"3  c #735D51",
"4  c #784E62",
"5  c #6D5E61",
"6  c #665862",
"7  c #786765",
"8  c #786C73",
"9  c #AD502B",
"0  c #AA5634",
"q  c #AB5C39",
"w  c #A65935",
"e  c #BC5F37",
"r  c #AC623C",
"t  c #BD6A3E",
"y  c #C6653B",
"u  c #D6643B",
"i  c #AF6340",
"p  c #BF6E43",
"a  c #B37152",
"s  c #914E62",
"d  c #8B5167",
"f  c #865767",
"g  c #97566C",
"h  c #A4586F",
"j  c #A85C73",
"k  c #BB5D76",
"l  c #897569",
"z  c #927B6F",
"x  c #947F74",
"c  c #907F79",
"v  c #867573",
"b  c #BD637B",
"n  c #B6717E",
"m  c #C56C43",
"M  c #C4744A",
"N  c #C8744A",
"B  c #CD7B56",
"V  c #C07B57",
"C  c #D56F47",
"Z  c #C5637C",
"A  c #C4777F",
"S  c #8D817A",
"D  c #9D897C",
"F  c #97867C",
"G  c #BF8866",
"H  c #C58653",
"J  c #CA925E",
"K  c #CA9762",
"L  c #D19B62",
"P  c #C08872",
"I  c #DE8F7F",
"U  c #CB9674",
"Y  c #CF9F7D",
"T  c #C88C66",
"R  c #D4A167",
"E  c #CE6782",
"W  c #D56985",
"Q  c #D96A87",
"!  c #D86A86",
"~  c #C57B83",
"^  c #DD758D",
"/  c #DB7B8E",
"(  c #D47A8B",
")  c #DF7C92",
"_  c #E76F8E",
"`  c #E86F8F",
"'  c #E5718E",
"]  c #E8708F",
"[  c #E1798F",
"{  c #EA6F90",
"}  c #E77190",
"|  c #E07A91",
" . c #8C8182",
".. c #8F858A",
"X. c #928680",
"o. c #9C8F87",
"O. c #9D8F88",
"+. c #9C9293",
"@. c #A08E81",
"#. c #AB9785",
"$. c #A69588",
"%. c #B39D8B",
"&. c #B49986",
"*. c #B88E92",
"=. c #A69A95",
"-. c #AA9E9A",
";. c #A69C9B",
":. c #B89F90",
">. c #B6A08C",
",. c #ADA196",
"<. c #AEA39C",
"1. c #B8A495",
"2. c #B5A599",
"3. c #B1A7A3",
"4. c #B6ADA7",
"5. c #B7B0AF",
"6. c #BCB5B2",
"7. c #C9878A",
"8. c #D6808E",
"9. c #CA9F83",
"0. c #D29688",
"q. c #DC8394",
"w. c #DC8C93",
"e. c #D78D9A",
"r. c #DC8C99",
"t. c #D6939B",
"y. c #DC949D",
"u. c #DB9A9C",
"i. c #D79499",
"p. c #E08293",
"a. c #C2A18A",
"s. c #CAA68C",
"d. c #D6A18C",
"f. c #CBAC95",
"g. c #CBAE9C",
"h. c #C3AA93",
"j. c #D9AE99",
"k. c #CDB49D",
"l. c #D7B69C",
"z. c #D995A0",
"x. c #D49DA0",
"c. c #DB9CA4",
"v. c #CBA3A3",
"b. c #DEA2A4",
"n. c #DBA5A9",
"m. c #D2ABA8",
"M. c #CBB3A3",
"N. c #C6B6A9",
"B. c #D1BBA7",
"V. c #D5BAAF",
"C. c #D8B6AA",
"Z. c #DBADB0",
"A. c #C6BCB5",
"S. c #DCB3B3",
"D. c #DDBEBB",
"F. c #D6B9B6",
"G. c #E0ADA7",
"H. c #E1B9AB",
"J. c #E0BBB8",
"K. c #DAC2AC",
"L. c #DCC8AF",
"P. c #CEC5BE",
"I. c #C6C0BC",
"U. c #D4C3B3",
"Y. c #DAC5B2",
"T. c #DDC9B5",
"R. c #D3C4BB",
"E. c #DACAB9",
"W. c #D8C4BB",
"Q. c #E3CAB6",
"!. c #E3CEBB",
"~. c #E8CEBB",
"^. c #E3C5B7",
"/. c #E5D2BF",
"(. c #EAD3BE",
"). c #CDC7C1",
"_. c #DCC5C3",
"`. c #D5CCC4",
"'. c #DCCCC3",
"]. c #D2CECA",
"[. c #DCCDCA",
"{. c #D7C7C0",
"}. c #DED0C2",
"|. c #D7D2CD",
" X c #DCD3CC",
".X c #DBD7D1",
"XX c #DDDAD5",
"oX c #DEDDDA",
"OX c #D7D5D2",
"+X c #E1C8C3",
"@X c #E5D2C2",
"#X c #EAD6C3",
"$X c #ECD8C6",
"%X c #E2D3CC",
"&X c #ECD9C9",
"*X c #E3DACF",
"=X c #E3DBD3",
"-X c #E8DCD3",
";X c #E3DED9",
":X c #E3D7D2",
">X c #E9E0D7",
",X c #E4E1DD",
"<X c #EBE5DD",
"1X c #EAE4DB",
"2X c #E7E5E1",
"3X c #E9E7E1",
"4X c #EDE9E2",
/* pixels */
"Q ` _ _ { _ _ _ _ _ ` Q j f 4 ; : 4 h E ] ] _ _ _ _ _ _ _ _ _ _ ",
"Q ` _ _ _ _ _ ] _ ` E d : ; - - ; - ; 4 b ' _ _ ] _ _ _ _ ] ` _ ",
"Q { _ _ _ ` _ ` ` ! f - - - - - - - ; - 4 b _ ` _ _ _ _ _ _ _ _ ",
"Q ` _ _ _ _ ` _ ` h - % % % % % % % % - : f W ` _ _ _ _ _ { _ _ ",
"Q _ _ _ ` ` _ _ ! f % % # # # * % # # # % : j ` _ _ _ _ _ _ ` _ ",
"Q _ _ _ _ _ _ _ Z : # @ # @ @ @ @ # # O @ @ , W ` ` _ _ _ ` _ _ ",
"Q _ _ _ _ _ _ _ h . . . @ = * @ . @ 7 2 & . # Z ` _ ` ` ` { ^ q.",
"Q ` _ _ _ _ _ _ d . . . + l 2 . . ; D z 7   o k ` _ _ _ ` q.F. X",
"Q ` _ _ _ _ _ _ < X X $ F %.x @ = D h.&.F $ o k ` _ _ _ ' S.XX2X",
"Q { ` _ _ _ _ Q > X X l #.@.l %.B.L.%.D D 2 > Z ` _ _ _ ) %XoX,X",
"Q _ _ _ _ _ _ E o X . %.N.O.l !.(.#XD O.L.7 s Q _ _ _ _ r.=XoXXX",
"Q { _ ` _ _ _ b $   $ M.!.A.<.#X#X#XU.U.Y.l n } _ _ _ _ u.,X,X.X",
"Q ` ` _ ` _ ^ *.5.; 8 B./.#X&X&X#X(.$X$XY.F F.^ ` ` } | _.,X2XXX",
"Q ` _ ` _ _ e..XI.2 $.U.!.$X#X~.Q.B.(.$XN.=.:Xq.` ` { q.:X2X2X;X",
"Q ` ` _ _ _ n.2X].6 <.%X@X#X#Xd.0.P K.Q.c 6.;Xe._ _ _ ) %X<X2X2X",
"Q ` _ ` ` ' Z.2XoX8 3..X=XW.T.l.0.j.T.v 6 |.;Xr._ _ } ( {.,X2X2X",
"! ` _ ` ` ^ D.3X,X .,..X,XP.@.#.9.4.A.$ ..2X;Xe.} { ' v.P.>X2X2X",
"Q ` _ _ ` q. X4X3X;.=.|.|.S + 3 1 F +.$ 5.;X3XS.} ` ) _.).,X2X2X",
"Q { _ _ ` r.|.,X4X6.-.=X|.<.F 1.S |.8 7 ).3X4X%Xq.` ) [..XXX2X2X",
"! { { _ } y.,X=X2X|.<.<X|. .2.#.F 4.5 3.OX4X3X-Xq.} ) _.,XoX,X2X",
"Q { ` ` ] t.,X3X,X,X4.;X|.l a p G <.v ].;X3X<XW.| } | +X3X,X,X2X",
"Q ` ` ` ] y.<X3X3X3XA.|.].3 w u H 2.O.OX,X3X,Xt.} } p.:X2X,X.X,X",
"Q ` _ ` ] q._.<X3X4X.X|.,X%.w y m a.<.m.W.=X'.i.} } y.;X<X2XoX|.",
"! ` ` _ ] ' q.F.=X<X;X=X3XV.w m H 9.:.( 0.^.@Xi.} } c.,X2X2X,X].",
"! { ` ` ` ` ^ S.@XE.P.,X<XY.0 t R U &.( u.(.(.w.} ] t.=X,XoXoX|.",
"! ` ` ` ` ` ' G.$X/.T.<X<XK.q t L T g.( u.(.(.w.] ] e.`..X,X,XoX",
"Q { ` ` _ _ ] b.#X&XT.>X=XK.s.V N B g.7.H.(.~.w.] ] x.,X2X3X,X,X",
"Q ` ` ` _ _ _ u.@X@X/./.T./.T.U u C s.k.(.(.Q.p.` ' S.2X2X,X3X3X",
"Q ` ` ] _ _ _ w.(.&X&X&XL./.T.Y u C l.B.#X^.u.' { } S.<X2X2X2X2X",
"Q _ _ _ _ _ ' ( B./.@X@XK.l.j.M m M a.k.c.q.` ` _ { y.%X,X2X2X3X",
"Q ] _ _ _ _ ^ Z. X*X>X*XE.k.P 9 H K s.M.( } { _ ` _ ] q.S..X2X2X",
"! _ _ _ _ ` / +X1X XXX>X1X1Xl.q H K f.%Xt.' _ { _ { ` ` ) P..XXX",
"! ] _ _ _ ' n.>X=X=X:X.X%X<XV.r H K h.=X%Xn.[ ] ] ` ` ] c.oXoXoX",
"! ] _ _ _ r.*X-X Xx.7.~ V.E.L.i y N B.=X>X>XS.' ] ] ` | ].oXoX,X",
"Q _ _ ` [ J.4X-X'.A A ~ W.@XY.a y N k. X=X=X>Xn.] ` ` z.oX,XoX,X",
"! ] _ _ c.1X4X1X XD.m.C. X>X<Xg.G s.`.=X<X*X4X&Xr.} } F.,XoX,X,X",
"! _ _ / +X<X<X4X>X%X X{.:X<X<X<X}.>XXX X|. X<X<XJ.[ q. X;XoX2XoX"
};
