/* XPM */
static char *yamada_4[] = {
/* columns rows colors chars-per-pixel */
"32 37 202 2 ",
"   c #443446",
".  c #453649",
"X  c #4B3B4D",
"o  c #48374A",
"O  c #5A3E4E",
"+  c #4F3E51",
"@  c #503F52",
"#  c #51414F",
"$  c #5A4C4C",
"%  c #4F4051",
"&  c #544254",
"*  c #584456",
"=  c #5A4A54",
"-  c #5B4559",
";  c #5E4A5B",
":  c #6B584E",
">  c #63475C",
",  c #624A5D",
"<  c #6B4B5E",
"1  c #7A4558",
"2  c #63535B",
"3  c #705D5E",
"4  c #6C4B60",
"5  c #744C60",
"6  c #6B5A60",
"7  c #7C5764",
"8  c #6F616B",
"9  c #7E6C64",
"0  c #7B6561",
"q  c #776A71",
"w  c #7A6E76",
"e  c #726670",
"r  c #7E7271",
"t  c #9B5839",
"y  c #AD512E",
"u  c #B6542D",
"i  c #B85E35",
"p  c #AE613E",
"a  c #BA643A",
"s  c #C55D34",
"d  c #C4643C",
"f  c #C9653C",
"g  c #D7673E",
"h  c #AC6745",
"j  c #B36C4C",
"k  c #BC7546",
"l  c #A07056",
"z  c #B87452",
"x  c #8E4D64",
"c  c #9E556C",
"v  c #97586C",
"b  c #885367",
"n  c #A1566C",
"m  c #AD5C73",
"M  c #B25C72",
"N  c #826E6B",
"B  c #8D786B",
"V  c #8B7C75",
"C  c #827476",
"Z  c #937E76",
"A  c #BA617A",
"S  c #B56179",
"D  c #A56B73",
"F  c #D36A41",
"G  c #D06E49",
"H  c #C37246",
"J  c #C2744B",
"K  c #C6647E",
"L  c #C6687E",
"P  c #C4747D",
"I  c #998375",
"U  c #92827C",
"Y  c #9B887B",
"T  c #98857E",
"R  c #BE8463",
"E  c #A28C7C",
"W  c #AF947D",
"Q  c #C58859",
"!  c #D1945D",
"~  c #C28564",
"^  c #CD9A60",
"/  c #C99066",
"(  c #D49C63",
")  c #C68270",
"_  c #DF8F7E",
"`  c #C59B7E",
"'  c #C99676",
"]  c #D3A365",
"[  c #D66A86",
"{  c #DA6A87",
"}  c #DC6B88",
"|  c #CF7886",
" . c #DF778F",
".. c #DD798E",
"X. c #D6758A",
"o. c #DE7C91",
"O. c #E76F8E",
"+. c #E86F8F",
"@. c #E4728E",
"#. c #E8708F",
"$. c #E17A91",
"%. c #8D8081",
"&. c #938686",
"*. c #93898D",
"=. c #9C918E",
"-. c #9E9392",
";. c #A18F8A",
":. c #A99584",
">. c #A5938C",
",. c #A79588",
"<. c #B59D87",
"1. c #A59A99",
"2. c #A79B96",
"3. c #BCA08D",
"4. c #B7A18E",
"5. c #BCA798",
"6. c #BCA998",
"7. c #B7A495",
"8. c #AAA2A1",
"9. c #B3A8A1",
"0. c #BDB3AE",
"q. c #BCB4B1",
"w. c #CA8A8E",
"e. c #C6888C",
"r. c #D1868E",
"t. c #C99F84",
"y. c #DC8494",
"u. c #DC8B95",
"i. c #DB8C9A",
"p. c #DC8698",
"a. c #DC9B9D",
"s. c #D8949C",
"d. c #D79C87",
"f. c #C6A48E",
"g. c #D3A68C",
"h. c #D2A88B",
"j. c #C6AC99",
"k. c #C8AA96",
"l. c #D6A898",
"z. c #C8B19C",
"x. c #D6B79B",
"c. c #DB97A1",
"v. c #DC9DA4",
"b. c #DCA3A3",
"n. c #DDAAA4",
"m. c #DBA5A9",
"M. c #D4ACA9",
"N. c #D9A8A7",
"B. c #CCB9A5",
"V. c #CCB3A9",
"C. c #C4B4A8",
"Z. c #D7B7AD",
"A. c #CABBB3",
"S. c #C6BEBA",
"D. c #DCB3B3",
"F. c #DBBDBC",
"G. c #D6B5B3",
"H. c #E0BFA8",
"J. c #E1BAB9",
"K. c #CCC3BB",
"L. c #D4C3B4",
"P. c #DBC6B2",
"I. c #DEC9B5",
"U. c #D3C5BB",
"Y. c #DEC6BB",
"T. c #DCCCBC",
"R. c #E1CAB5",
"E. c #E4CEBA",
"W. c #E8CDBB",
"Q. c #E4C3B6",
"!. c #E5D1BD",
"~. c #E9D2BE",
"^. c #D3CCC5",
"/. c #DACDC4",
"(. c #D8CFC9",
"). c #DBD1C6",
"_. c #DDD4CC",
"`. c #D7D2CD",
"'. c #DAD6D1",
"]. c #DED9D3",
"[. c #DFDEDA",
"{. c #CAC6C3",
"}. c #E1C7C2",
"|. c #E3CDC3",
" X c #E1CECA",
".X c #E3D3C4",
"XX c #EBD6C3",
"oX c #ECD8C6",
"OX c #E2D5CD",
"+X c #E2DACF",
"@X c #ECD9C9",
"#X c #E2D7D1",
"$X c #E3DBD3",
"%X c #E3DED9",
"&X c #E9DAD2",
"*X c #DFE0DC",
"=X c #E4E2DD",
"-X c #EAE4DC",
";X c #EAE4DB",
":X c #E6E5E1",
">X c #EAE6E0",
",X c #EDE8E1",
/* pixels */
"{ +.+.O.O.O.+.O.+.O.O.O.O.S b 4 4 4 4 v K O.O.O.+.+.+.+.O.#.O.O.",
"{ +.O.O.+.O.#.O.O.O.+.} c < > 4 > , > 4 5 m } +.O.+.O.+.O.O.O.O.",
"{ #.+.O.+.O.O.O.O.O.O.c , ; , ; , - - - , < m @.+.O.O.O.O.O.O.O.",
"{ #.+.+.O.O.#.O.O.O.S > - - - - - - - - = ; 7 L +.O.+.O.O.+.O.O.",
"{ #.O.O.O.O.+.O.+.O.v , - & & & & - * & * * , v O.+.+.O.#.O.+.+.",
"} #.O.+.#.O.O.O.+.{ 7 & & @ @ & % % % & & % % > K +.O.O.O.O.+.O.",
"{ #.O.O.O.O.O.O.O.M & + X + ; = X X + 6 6 ; % % m O.O.+.+.+.O.#.",
"{ #.O.+.O.+.O.O.O.m X o o & N 0 % X = V U N X X n O.O.+.O.+.o.M.",
"{ #.O.O.O.+.+.O.O.c     # B <.E = = V 3.3.E 2 o c O.O.O.O.O.v._.",
"{ O.#.O.O.+.O.O.O.x     3 :.,.B E B.I.k.I ,.N O M O.O.O.O.@.F.%X",
"{ #.O.O.O.+.O.O.O.1     Y B.7.N L.XXXX4.V U.Z 1 { O.O.O.#.$. X:X",
"{ #.O.O.O.+.O.O.[ < X X 4.E.A.2.!.oXXXT.A.~.Z D O.O.O.O.#.p.$X:X",
"{ #.+.+.O.+.O. .<.C.q 4 C.W.oXoXoXXX~.XXoX~.T A.p.O.O.O.@.D.;X=X",
"{ #.+.+.O.+.O.o. X{.q C U.Y.@XoX!.Q.P.R.oXR.;.].c.O.O.O.$.}.-X-X",
"{ +.+.+.O.+.O.i.%X[.C %.`./.XXoXl._ ) k.XX;.1.-Xc.@.+.O.$.Y.=X>X",
"{ +.+.+.+.O.O.c.=X-X*.*._.$X/.L.Q.d.g.R.>.- S.:Xv.} O.#.X.V.-X>X",
"{ #.#.O.O.+.#.m.-X-X2.&.).*X`.=.W t.6.L.8 e [.:Xb.@.O.} s.K.=X:X",
"{ +.O.O.O.+.$.F.>X>Xq.&.).].-.$ : : r 8.& -.*X>X}.$.#.@.F.^.].=X",
"{ +.O.O.O.+.$./.=X-X^.=._._.0.U 6.U {.*.6 q.-X,X%Xi.#.$.F.]._.:X",
"} +.O.O.O.+.y.#X=X=X=X2.+X*X*.,.4.T 7.q -.^.,X:X-Xc.#.@.D.:X].=X",
"[ #.#.O.O.O.y.+X-X=X>Xq.).=XU l a R 6.r K.].:X,XOXy.#.#.G.:X%X%X",
"{ #.O.+.O.O.y.+X>X>X-X^.K.=X9 t f G j.U ^.*X:X:XM. .#.$./.:X:X$X",
"{ +.O.+.O.O...F.=X-X,X=X^.;X0.p d d ` ,.V.Z.$X).v.@.#.y.#X:X=X%X",
"[ +.O.O.O.O.@...M.].=X;X].-X.Xh a Q ' 6.r.e.P.!.b. .+.p.#X:X:X:X",
"{ #.#.O.O.O.O.@.b.XXT.L.+X,XOXh i ( / <.| u.~.oXa. .O.y._.[.%X%X",
"[ #.O.O.O.O.O.#.a.XXXXP.;X-X).z u ! / z.r.u.W.~.a.O.O.y.K.'.%X=X",
"{ O.O.O.O.O.O.O.i.XXoXT.+X;XP.h.~ H J k.e.H.~.~.a.@.@.u.$X:X:X:X",
"{ #.O.O.@.O.O.O.y.E.oXE.T.T.I.I.g.g g t.k.W.~.~.u.@.O.a.;X=X:X:X",
"[ O.O.O.O.O.O.O.o.Q.oX@XoXI.R.R.l.F g h.B.~.E.n. .#.#.v.=X=X:X:X",
"{ O.O.O.O.O.O.O...l.!..X.XR.x.x.~ f H ' j.n.y.#.#.#.#.y.}.=X:X:X",
"[ #.O.+.O.O.O.O.b..X+X$X$X!.x.` y H ! ` B.p.+.+.#.#.#.O.o.m.OX:X",
"{ O.O.O.O.O.+.X.Z.;X_.].$X;X;XI.p k ( h._.m.@.#.#.#.#.#.#. .G.'.",
"{ O.O.O.O.#.O.s.&X$X].$X'.OX;X.Xj k ^ ` _.+XD.o.#.#.#.#.O.i.'.*X",
"{ #.O.#.O.+.o.|.;XOXM.e.P M.U.E.z a H h.+X;X-XQ.$.#.#.#.O.D.*X*X",
"{ #.O.O.#.#.n.;X;XOXe.| P Z.T.E.R s g f.).%X+X;XJ.$.#.+.p.'.*X*X",
"{ #.O.#.#.p.&X,X-XOXY.M.N..X$X-XP.~ ' U._.-X+X;X&Xv.#.#.m.*X*X*X",
"{ O.O.O.O.D.;X-X-X;X]._.U.OX-X,X-X)._.;X)._./.;X,X|.y.$.F.=X%X:X"
};
