/* XPM */
static char *yamada_15[] = {
/* columns rows colors chars-per-pixel */
"32 37 208 2 ",
"   c #2E2536",
".  c #352A3A",
"X  c #3F3143",
"o  c #463548",
"O  c #4C3B4D",
"+  c #473844",
"@  c #583E51",
"#  c #643F53",
"$  c #693F54",
"%  c #5A4D4D",
"&  c #4F4751",
"*  c #544354",
"=  c #5C465A",
"-  c #5E485A",
";  c #594C55",
":  c #5F5159",
">  c #634B5D",
",  c #644356",
"<  c #724559",
"1  c #69525E",
"2  c #67505E",
"3  c #72585E",
"4  c #65544E",
"5  c #7B4D62",
"6  c #6C5361",
"7  c #6E5B61",
"8  c #665964",
"9  c #775764",
"0  c #78666A",
"q  c #7F716C",
"w  c #B4431F",
"e  c #AA4C27",
"r  c #B44623",
"t  c #AF512B",
"y  c #B5522E",
"u  c #AC5B34",
"i  c #B25130",
"p  c #AB653D",
"a  c #B6623B",
"s  c #D2683E",
"d  c #AE6A44",
"f  c #B2694A",
"g  c #B7784C",
"h  c #BE7954",
"j  c #B57456",
"k  c #AE6E50",
"l  c #99556B",
"z  c #9F5A70",
"x  c #884E65",
"c  c #BC5F76",
"v  c #B35C73",
"b  c #AA5A71",
"n  c #8D776D",
"m  c #90796A",
"M  c #876E70",
"N  c #897574",
"B  c #967C7A",
"V  c #846B6D",
"C  c #BF657C",
"Z  c #A26676",
"A  c #D66F45",
"S  c #CC7349",
"D  c #CA764A",
"F  c #D6774A",
"G  c #C97E56",
"H  c #CC7E6F",
"J  c #C6647D",
"K  c #C36A79",
"L  c #938174",
"P  c #9C847D",
"I  c #92807D",
"U  c #BF866F",
"Y  c #BD8F7B",
"T  c #A48D79",
"R  c #CB845B",
"E  c #C58858",
"W  c #D3975F",
"Q  c #C9935E",
"!  c #C68963",
"~  c #C89769",
"^  c #D09C62",
"/  c #D68F7E",
"(  c #C49970",
")  c #E1897C",
"_  c #CCA579",
"`  c #D4A477",
"'  c #8A7F85",
"]  c #CF6781",
"[  c #DA6A87",
"{  c #D86A86",
"}  c #DD758D",
"|  c #D67B8D",
" . c #DE7C91",
".. c #E76F8E",
"X. c #E86F8F",
"o. c #E4728E",
"O. c #E0798F",
"+. c #EA6F90",
"@. c #E57490",
"#. c #E17D91",
"$. c #988A87",
"%. c #9E928D",
"&. c #999092",
"*. c #9E989A",
"=. c #A08C8A",
"-. c #AB9586",
";. c #A3938A",
":. c #B29D8C",
">. c #B49380",
",. c #A39A98",
"<. c #B79993",
"1. c #BBA38F",
"2. c #AAA09C",
"3. c #B3A194",
"4. c #B9A394",
"5. c #B7A79C",
"6. c #A9A3A3",
"7. c #B2A8A4",
"8. c #BAB2AD",
"9. c #BCB4B0",
"0. c #C7888C",
"q. c #C09B83",
"w. c #D79A86",
"e. c #CE8D97",
"r. c #DE8293",
"t. c #DD8B99",
"y. c #D88B93",
"u. c #CC9996",
"i. c #DB979B",
"p. c #E1989D",
"a. c #C9A28B",
"s. c #C7AA89",
"d. c #D2A781",
"f. c #D5AB8D",
"g. c #D6B383",
"h. c #CCAD92",
"j. c #C7AA96",
"k. c #D2A29F",
"l. c #CDB79B",
"z. c #D1B59C",
"x. c #DAB69E",
"c. c #DC9AA2",
"v. c #D997A1",
"b. c #CEA4A3",
"n. c #C6ABA4",
"m. c #D4A2A3",
"M. c #DDA5A4",
"N. c #D6ACAC",
"B. c #DBAAAD",
"V. c #D9A5A9",
"C. c #C9B8A8",
"Z. c #D3BDAB",
"A. c #D7B7A8",
"S. c #C3BAB5",
"D. c #CCBFB4",
"F. c #C4BEB9",
"G. c #DCB5B3",
"H. c #D5BFB6",
"J. c #E0ABA7",
"K. c #E1BBB3",
"L. c #E3B6AD",
"P. c #DAC28F",
"I. c #DDC896",
"U. c #DCC693",
"Y. c #E0CD9B",
"T. c #E0D09E",
"R. c #DCC2AC",
"E. c #D6C2AB",
"W. c #CEC5BE",
"Q. c #DBC4B3",
"!. c #D7C5BB",
"~. c #D9C7B8",
"^. c #E1C6AD",
"/. c #E2D4A3",
"(. c #E4C5B3",
"). c #E2CAB4",
"_. c #E3CCBA",
"`. c #E6D1BD",
"'. c #E9D3BE",
"]. c #DBC6C3",
"[. c #D4CAC4",
"{. c #DDCEC3",
"}. c #D3C9C5",
"|. c #DBD4CC",
" X c #DAD1C8",
".X c #DBD7D1",
"XX c #DDD9D3",
"oX c #DBDAD7",
"OX c #CDC7C3",
"+X c #E2CBC5",
"@X c #E2CEC8",
"#X c #E3D3C4",
"$X c #EAD6C3",
"%X c #ECD8C6",
"&X c #E4D4CB",
"*X c #E2D9CE",
"=X c #ECD9C8",
"-X c #E2DCD4",
";X c #E3DFD9",
":X c #E9DCD4",
">X c #E7E0D7",
",X c #E9E1D7",
"<X c #E5E1DC",
"1X c #ECE6DE",
"2X c #EEE8DF",
"3X c #EAE6E0",
"4X c #EBE8E2",
"5X c #E7E5E0",
/* pixels */
"[ X.........................o.{ 5 2 > 2 9 0 6 > > M 1 > > > l ..",
"[ X.......................X.o.] 6 > - 9 P B 8 > > $.m V , > 5 J ",
"[ X...........o...........X...z > > 8 N j.-.0 > , P 1.:.6 = x v ",
"[ X.......X.X.X...........X.[ x = = n P :.T P I =.:.:.:.0 2 < c ",
"[ ..X...................X.+.[ 5 @ * B 5.;.m ~.'.'.C.L 3.-.6 > c ",
"[ X.....X...............X.+.[ < O O $.#X2.$.#X=X=XD.I !.4.> l J ",
"[ X.................X.X.X.X.] $ o O N #X#X#X$X$X$X$X~.$X;., ] ..",
"[ X.................o.X.X.o.] # X o 0 !.%X%X%X%X'.%X$X$XB @ J ..",
"[ X...................X.....] $   X ; E.%X$X(.x.a.Z.%X'.M O v o.",
"[ X.......X.....X...........[ <   . O 5.%X$Xw.) H q.%XZ.3 o l ..",
"{ X.............X.............x     X M (.$XA./ w.K.l.7 $ $ < | ",
"{ X.........X.....X...........Z & & % > 1.x.).R.E.:.% . $ b @ <.",
"[ X.....X.X.......o...X...} V.}..XOX8.8 8.z.` h.S.8.8.*.V ] l $.",
"[ X.X.............X...X.@.N.;XoX5XoX X&.&.Z.` q.9.F.XX4X}.e.| &.",
"[ X.X.X.......X.........v.;X3X.X1X.X.XOX$.S.d.a.F.}..X5X.X].c.oX",
"[ X.X.X.........X..... . X5X3X.X<XoXoXoX6.7.-.3.oX|.|.<XXX;X}.5X",
"[ ..........X.o.....@.V.<X3X3X.X<X.X-X.X.X0 4 7 %.W.|.oXoX2XoX<X",
"[ ........o.X.X.X.@.c.:X3X3X3X.X<X.XQ.l.2.% L $.*.2.|..X<X4X<XoX",
"[ ..........X.X...v.:X3X3X3X<X.X XU d E d m n ;.7..X XoX2X<X1XoX",
"[ X.........X.X.r.@X4X2X3X3X;XW.U e e g A R -.D.$. X[.<X2X2X1X1X",
"[ +...........o.V._.#X1X4X4X.X>.p p E P.E D s.*X9.%.W.1X<X4X4X5X",
"[ X...........t.'.$X).C.oX4X[.f p u ` T.` W ( C.<X$.0 oX4X4X<X X",
"[ X.........O.(.$X%X(.u.n.}.n.i e a U./.` W ^ 3.|.S.+ 2.1X-XE.E.",
"[ +.........M.`.'.$Xi.o.} b.Y r w g Y.T.I.E E h.*X,.. % 8.C.l.$X",
"[ X.......r.(.'.`.A.#.X.o.N.! i r ! T./.Y.G A h.*XP + M l.E.E.).",
"[ X.o.X...i.'.$X%X'.J.O.} A.a.f.G ( /./.Y.F A A.+X0.0.C.Q.R.'.Q.",
"[ X.X.X.+.t.(.%X%X%X$XJ.e.Q.).Q.h.s././.Y.F A R.G.o.O.m.E.E.`.%X",
"[ +.X.X.X.+.r.J._.$X%X$X).E.$X).s.s./.T.P.S S Z.i.@.o.#.G.{.~.(.",
"[ X.....X.X.X.o.r.p.L._.$X#X%XR.( _ /./.g.E R D.e.......} t.t. .",
"[ X.....X.X.X.X.X.X.o.y.Q.#X_.! u E /./.` ^ _ &XN.....X.X.X.X.X.",
"[ X.........X.X.X.X. .V.:X,X`.g p g I.T.Q Q z.,X@Xt...+.+.X.X.X.",
"[ X.......o.X.X.X.o.B.,X2X4X2Xs.d p ( _ S ! ~.1X2X@Xt...X.X...@.",
"[ X.X.o.......X.X. .+X3X2X2X-X!.j t d g A n.,X3X2X2X+X#.+.+.X. .",
"[ X...X.......X.o.B.:X2X2X-X!.N.0.k g G f.*X3X:X-X-X1XL.@.+.@.N.",
"[ X.............t.:X2X2X2X.Xm.K K u.l.#X<X2X2X*X1X-X1X:Xc.@.t..X",
"[ X.X.....X...o.L.2X2X2X2X.X!.k.m.H.|.2X2X3X2X-X<X-X:X2X@Xr.B.oX",
"[ X...........r.&X2X2X2X2X>X.X&X{.[.;X2X2X2X2X*X&X|.1X2X,XG.[.<X"
};
