/* XPM */
static char *yamada_18[] = {
/* columns rows colors chars-per-pixel */
"32 37 204 2 ",
"   c #2A2233",
".  c #342A3A",
"X  c #3B2D3F",
"o  c #302738",
"O  c #433445",
"+  c #463649",
"@  c #4A3B4D",
"#  c #4B374A",
"$  c #50374A",
"%  c #54394D",
"&  c #58384D",
"*  c #593E51",
"=  c #673F53",
"-  c #58494D",
";  c #534254",
":  c #5B455A",
">  c #5E4757",
",  c #5B535C",
"<  c #64495D",
"1  c #6A4A5F",
"2  c #62475C",
"3  c #75465A",
"4  c #65545B",
"5  c #69565A",
"6  c #6C595F",
"7  c #685951",
"8  c #705D5E",
"9  c #716059",
"0  c #734D61",
"q  c #6D5C62",
"w  c #655861",
"e  c #725E64",
"r  c #776668",
"t  c #7C7272",
"y  c #CF643C",
"u  c #82485F",
"i  c #9D6A59",
"p  c #B96F45",
"a  c #BF745B",
"s  c #824F65",
"d  c #975469",
"f  c #8B5166",
"g  c #A5566C",
"h  c #AE596E",
"j  c #A45A71",
"k  c #AC5C74",
"l  c #B35E77",
"z  c #BF5F78",
"x  c #826E6D",
"c  c #80736D",
"v  c #8B7B76",
"b  c #847875",
"n  c #937E74",
"m  c #95716E",
"M  c #A66072",
"N  c #B96677",
"B  c #CA674A",
"V  c #CC7349",
"C  c #D37042",
"Z  c #D66C6F",
"A  c #C6637E",
"S  c #CA6D75",
"D  c #D5677C",
"F  c #9A857A",
"G  c #A28B7C",
"H  c #B08D72",
"J  c #CC8859",
"K  c #D2835C",
"L  c #D0905B",
"P  c #CD8E65",
"I  c #D58060",
"U  c #C89365",
"Y  c #D09467",
"T  c #CA9F7A",
"R  c #C69B77",
"E  c #D4977A",
"W  c #CE8977",
"Q  c #CDA27B",
"!  c #8A7E80",
"~  c #A47D81",
"^  c #C86981",
"/  c #D16682",
"(  c #D46984",
")  c #DA6A87",
"_  c #DD6C89",
"`  c #DD7C8E",
"'  c #DA7889",
"]  c #DE7B90",
"[  c #E76F8E",
"{  c #E86F8F",
"}  c #E4738E",
"|  c #E8708F",
" . c #E1798E",
".. c #E27384",
"X. c #E86F90",
"o. c #E17A91",
"O. c #E87190",
"+. c #948A89",
"@. c #988785",
"#. c #9A908C",
"$. c #9F9798",
"%. c #A28F80",
"&. c #AA9384",
"*. c #AE9885",
"=. c #A5958A",
"-. c #A49996",
";. c #B19A88",
":. c #B7A28E",
">. c #BAA38D",
",. c #ACA19B",
"<. c #B7A494",
"1. c #ACA4A4",
"2. c #B4A8A6",
"3. c #BDB6B1",
"4. c #C69585",
"5. c #CC8D92",
"6. c #DD8394",
"7. c #DA8B96",
"8. c #DC8C99",
"9. c #D49096",
"0. c #DC939D",
"q. c #D9979C",
"w. c #CF8988",
"e. c #E08797",
"r. c #C9AA8C",
"t. c #D0AB85",
"y. c #D4B08A",
"u. c #C1A993",
"i. c #C2AC9C",
"p. c #C9A494",
"a. c #D3AB96",
"s. c #C7B19D",
"d. c #CCB49E",
"f. c #D3B294",
"g. c #D6B29C",
"h. c #DD9CA3",
"j. c #DC97A0",
"k. c #CAA7A5",
"l. c #D3A3A4",
"z. c #D6ACA8",
"x. c #DCA9A8",
"c. c #C4B3A4",
"v. c #CAB8A7",
"b. c #DBB5A2",
"n. c #D6B9A9",
"m. c #DDAFB1",
"M. c #C1B9B3",
"N. c #C4BFBC",
"B. c #DBB3B3",
"V. c #D5B9B5",
"C. c #DABAB5",
"Z. c #DDBEBB",
"A. c #D4B8B6",
"S. c #E0ACAE",
"D. c #E3BDAC",
"F. c #E1B6B6",
"G. c #D8C3AD",
"H. c #C6C0BC",
"J. c #CBC3BD",
"K. c #CFC2B5",
"L. c #D4C4B4",
"P. c #DAC6B6",
"I. c #D4C4BB",
"U. c #D6C9BC",
"Y. c #DECBBC",
"T. c #E2C5AD",
"R. c #E8CEB5",
"E. c #E3C4BF",
"W. c #E2CCB8",
"Q. c #E5D0BC",
"!. c #E9D2BE",
"~. c #CECAC6",
"^. c #DDC6C2",
"/. c #D3CBC3",
"(. c #DBCBC3",
"). c #D4CFCA",
"_. c #DBCDCA",
"`. c #D7C6C2",
"'. c #DCD1C6",
"]. c #D6D0CB",
"[. c #DBD4CC",
"{. c #DBD6D1",
"}. c #DED9D4",
"|. c #DFDFDC",
" X c #E3CBC3",
".X c #E4D3C4",
"XX c #EAD6C3",
"oX c #ECD8C6",
"OX c #E3D5CC",
"+X c #E2D9CE",
"@X c #ECD9C8",
"#X c #E8D7CE",
"$X c #E1D6D0",
"%X c #E3DCD5",
"&X c #E9DED4",
"*X c #E3DED9",
"=X c #E7E0D7",
"-X c #E9E0D6",
";X c #E4E1DC",
":X c #ECE6DE",
">X c #EDE8DF",
",X c #E7E6E1",
"<X c #EAE6E0",
"1X c #EDE8E0",
/* pixels */
") { [ [ { { [ [ [ { [ [ ) ^ l j k ~ ) X.[ [ [ [ X.[ [ X.[ [ { [ ",
") | { [ [ [ [ [ [ { [ ^ f 1 < < < 1 s h ( [ [ [ X.[ [ X.[ { { { ",
") { [ { [ [ [ [ { [ l 1 2 2 2 2 2 2 = 2 s N _ { [ [ [ X.{ [ [ { ",
") { [ [ [ [ [ [ _ j 2 : : : : ; : : * : : 1 d ( [ [ [ [ [ { [ [ ",
") O.[ [ [ [ O.{ l > ; ; ; ; ; ; @ ; ; ; ; * : f ) [ { [ [ [ { [ ",
") O.[ O.[ [ [ ( 0 ; * ; ; ; ; ; @ ; ; : @ @ + : h [ [ { { { [ ] ",
") { [ [ [ [ [ j ; @ @ @ ; 5 ; ; @ w e x ; @ @ * g ) { { [ [ 8.Z.",
") O.[ [ [ [ _ 3 @ @ - 5 x v q @ @ e @.;.w @ @ @ g ) { [ [ ] ^.|.",
") O.O.O.{ { / = O O e n &.*.v + @ 5 s.G.&.> # $ d { [ [ { 6.%X,X",
") O.X.X.{ { A $ O O r <.>.r.&.x ;.<.d.:.<.r $ g D [ [ [ [ j.OX_.",
") { X.X.{ { A $ X X q :.,.n *.!.oXQ.@.&.s.6 $ z { [ [ [ o.z.Q U ",
") { { { { { / $ X . % c.I.v c.oXXX.X=.c.G.8 X d [ [ [ [ h.Y.P L ",
") O.X.[ [ X.) = . o O :..XI. XoXXXXX.X.Xn.N ; 2 ) [ [ ] _.[.I J ",
") X.X.[ { { [ s o   X v !.XXoX@XXXoXoXoXz.' M $ k [ [ j.*XOXK C ",
") X.[ [ { { X.k w , O , G.oX!.D.g.d.W.oXI.`.A.m = ( } B.,XH.a y ",
") X.[ [ [ [ o.B.].}.2.w #.!.T.E E W P.Y._.,X,XB.N g k @.+.F i p ",
"' D [ { [ } m.:X;X;X%X1.w <.T.g.a.D.n.A.}.:X:X}.9._ ^ 1.N.~.;.V ",
"S E w.` ' 0.&X<X:X<X}.{.-.8 H f.y.i.3.H.+X|.|.:Xl.} 6.$X,X,Xp.V ",
"V v.P.(.B.^.1X1X<X;X{.}.%X1.r H Q >.H.~.}.}.|.<X^.9.l.*X}.{.c.V ",
"p.'.:X<X:X%X;X<X<X%X).%X*X,XN.F m G ~.}.+X[.;X,X:X&X{.{.}.).v.K ",
"U.-X>X>X1X:X%X1X<X{.~.&X}.<X<XN.9 7 r $.).].:X:X:X:X].}.,X~.c.Y ",
"/.:X>X:X:X:X*X;X:X/.).;X}.<X|.t 7 t $.3.%X{.,X,X,X}.J.}.,XN.<.U ",
"(.>X:X1X>X1X;X[.*X[.}.:X}.;X1.- c =.F #.2.+X<X:X}.P.v.'.;Xs.U U ",
"+X>X>X:X1X1X-XJ.H.{.%X:X:X&X-.+.@.,.3.+.,.,.}.*Xv.r.f.W.OX(.T U ",
"%X>X:X-X:X>X:XA.k.%X+X>X:X>X-X;XM.c [.1X&X~ k.(.r.Q f.P.Y.=XP.Q ",
"%X:X:X;X:X:X:XB.7._.-X:X>X:X>X>X+X,.M.>X&X7.o.9.f.t.R r.L.;X|.{.",
"{.>X>X:X:X>X:XB.` n.:X>X:X>X:X:X%X-X<X1XOXo.|  .D.R.y.f.L.}.;X{.",
"'.>X:X>X:X>X>XS. .B.>X:X1X:X1X:X:X>X1X1XF.} | | 0.R.R.z.7.7.q./.",
"U.:X>X>X:X>X:Xh. .E.>X>X:X>X>X:X:X>X>X:Xh.| | { } 8.j.] [ O.o.Z.",
"K.-X>X:X:X>X-Xe. .E.>X>X>X>X:X>X:X:X>XOX9.| | { { { O.X.O.O.] ^.",
"4..X:X>X>X>X X .q.OX>X1X>X:X>X:X:X>X:X'.C.o.{ { { { O.X.{ } k.{.",
"V g.&X>X>X:Xh. .Z.>X-X-X;X-X:X>X>X>X&X#X&XE.8.[ { { O.{ { } A.{.",
"B Z G.Q.#Xm. .6..X:XOX[.*X}.}.<X:X:X:X:X:X:XOXj.} O.| | [ 9.].|.",
"D Z R 4.6.}  .F.:X:X[.C.h.5.n.-X-X-X:X:X&X+X-X&Xj.| { { 6._.|.|.",
") } D  .{ | h.-X:X:X[.5.S N p.I.OX:X1X-X%X-X%X>X#Xe.|  .B.|.|.|.",
") | | } { o. X>X:X:X'.C.z.l.`.;X1X:X>X;X%X&X%X:X1X Xe.o._.|.|.,X",
") | | | | 0.&X>X:X:X&X%X[.(.'.1X:X:X1X&X[.'.;X1X1X:XS.8.}.;X|.|."
};
