/* XPM */
static char *yamada_2[] = {
/* columns rows colors chars-per-pixel */
"32 37 208 2 ",
"   c #2C2334",
".  c #352A3A",
"X  c #3A2D3D",
"o  c #3E3042",
"O  c #433344",
"+  c #463649",
"@  c #4A364A",
"#  c #4B3B4D",
"$  c #473C48",
"%  c #55384C",
"&  c #4F3E51",
"*  c #623D52",
"=  c #5B4C4C",
"-  c #52424E",
";  c #5F504B",
":  c #544254",
">  c #5A4556",
",  c #5A4559",
"<  c #5E4D59",
"1  c #6A4156",
"2  c #61475D",
"3  c #634A5D",
"4  c #6B495F",
"5  c #654A59",
"6  c #754458",
"7  c #64515B",
"8  c #69585D",
"9  c #5F5860",
"0  c #7B4D62",
"q  c #754D62",
"w  c #6B5B61",
"e  c #705D63",
"r  c #7B6D65",
"t  c #776668",
"y  c #81485D",
"u  c #834B60",
"i  c #8D4C63",
"p  c #8F5165",
"a  c #8D5668",
"s  c #995267",
"d  c #9C576E",
"f  c #A4556C",
"g  c #A55A71",
"h  c #AD5B73",
"j  c #B45F76",
"k  c #BA5E75",
"l  c #B65F78",
"z  c #816E6D",
"x  c #826F66",
"c  c #8C736E",
"v  c #987A6A",
"b  c #827270",
"n  c #897A77",
"m  c #BB616F",
"M  c #BB667A",
"N  c #CA6041",
"B  c #C4704C",
"V  c #D16B59",
"C  c #D76E4D",
"Z  c #CC6366",
"A  c #C3647D",
"S  c #CD657F",
"D  c #DA686C",
"F  c #9A857B",
"G  c #9C877A",
"H  c #A3856F",
"J  c #BD8977",
"K  c #C3885B",
"L  c #C38262",
"P  c #CC8B6C",
"I  c #D68D75",
"U  c #C59A77",
"Y  c #D49376",
"T  c #CE876B",
"R  c #CCA37C",
"E  c #A77B82",
"W  c #CD6681",
"Q  c #CD6880",
"!  c #D26681",
"~  c #D36883",
"^  c #DA6A87",
"/  c #DE6C89",
"(  c #C07883",
")  c #DF748D",
"_  c #DC7B8D",
"`  c #DE7A91",
"'  c #E76F8E",
"]  c #E86F8F",
"[  c #E06E84",
"{  c #E4738E",
"}  c #E8708F",
"|  c #E0778B",
" . c #E17D93",
".. c #8A8084",
"X. c #9A8D86",
"o. c #978D8C",
"O. c #968B89",
"+. c #9E9491",
"@. c #A38F86",
"#. c #AA9A8F",
"$. c #AD9785",
"%. c #B59E8A",
"&. c #BB8D92",
"*. c #A99892",
"=. c #B49993",
"-. c #B7A08C",
";. c #AEA49E",
":. c #B3A194",
">. c #BCA592",
",. c #B5A399",
"<. c #ADA4A0",
"1. c #BCAEA7",
"2. c #B2AAA6",
"3. c #B8B0AC",
"4. c #BFB9B6",
"5. c #BDB9B9",
"6. c #CF848B",
"7. c #D9838F",
"8. c #CA9983",
"9. c #CC8E93",
"0. c #DC8594",
"q. c #DD8B99",
"w. c #D78A93",
"e. c #C89191",
"r. c #D6939B",
"t. c #DB949B",
"y. c #D49A9C",
"u. c #D79985",
"i. c #E08192",
"p. c #C5A88C",
"a. c #CCAC8B",
"s. c #CEA68E",
"d. c #D0AF8B",
"f. c #D6A187",
"g. c #C4AC9B",
"h. c #C7A995",
"j. c #D4AA98",
"k. c #CBB19A",
"l. c #D7B498",
"z. c #DC9BA3",
"x. c #D69BA2",
"c. c #CAA3A1",
"v. c #D6A4A5",
"b. c #DCA3A6",
"n. c #DBA9A8",
"m. c #C6B6A6",
"M. c #DCBAA8",
"N. c #D9B9A7",
"B. c #C3B9B3",
"V. c #C4BDB9",
"C. c #C7BBB1",
"Z. c #DCB6B6",
"A. c #DABDB7",
"S. c #D6BDBC",
"D. c #D9BDB9",
"F. c #E1ADAF",
"G. c #E0A0A0",
"H. c #E0B7A4",
"J. c #E0B3B3",
"K. c #E0BDB9",
"L. c #DDC5AC",
"P. c #D3C0AE",
"I. c #CBC2BA",
"U. c #C7C2BD",
"Y. c #D4C2B2",
"T. c #DEC3B1",
"R. c #D3C4BB",
"E. c #DBC2BC",
"W. c #DCCABC",
"Q. c #DAC9B9",
"!. c #E4C3AE",
"~. c #E0CBB5",
"^. c #E4CDB9",
"/. c #E3C3B8",
"(. c #E6D1BC",
"). c #EAD2BA",
"_. c #CBC6C1",
"`. c #CFCCC9",
"'. c #D3CCC5",
"]. c #DCCCC4",
"[. c #D7C8C7",
"{. c #DED1C4",
"}. c #D6D1CB",
"|. c #DCD4CD",
" X c #DAD6D0",
".X c #DED9D3",
"XX c #DEDDD9",
"oX c #E2CBC5",
"OX c #E4C9C4",
"+X c #E2D2C5",
"@X c #EBD6C3",
"#X c #ECD8C6",
"$X c #E3D4CC",
"%X c #E3D9CE",
"&X c #ECD9C8",
"*X c #E8D6CE",
"=X c #E3DDD4",
"-X c #E9DBD2",
";X c #E3DED8",
":X c #E1D5D0",
">X c #E9E1D7",
",X c #E4E1DB",
"<X c #ECE6DE",
"1X c #EEE8DF",
"2X c #E6E5E2",
"3X c #EAE7E0",
"4X c #EDE8E0",
"5X c #E7E8E5",
/* pixels */
"^ ] ' ' ] ' ' { ] ] ' ] ] [ W W d g j W / ] ] ' ] ] ] ] ' ' ' ] ",
"^ } ' ] ] ' ] ] ] ] ' ' ! d q 2 2 2 2 0 g ! ' ' ' ] ] ' ] ' ' ' ",
"^ ] ] ' ] ' ] ' ] ] ] E 0 2 2 2 2 2 2 2 2 0 h ^ ' ' ' ' } ' ] ' ",
"^ } ] ] ' ' ' ] ] ] k 4 * , , , , , , , , , 2 a S ' ' ' ' ' ' ] ",
"^ ' ' ' ' ] ] ' ] A 4 * : : : : & , : : > : : , 6 S ] ] ] ] ' ] ",
"^ ' ' ' ] ' ' ] / a & & & : : : & & : : > : # @ > s / ] ' ' ] ] ",
"^ } ' ' ' ' ' ] M , & # & - 7 7 & # 2 t b > # + & p S ] } } ' ` ",
"^ } ' ' ] ] ' ' a + + & 7 t c r # # 2 ..$.t # @ @ u ^ ] } } { n.",
"^ } ' ' ' ] ] / 6 + + , G G $.@.& # : :.L.>.8 + @ y / ] ] ' ` oX",
"^ ' ' ' ' ] ] ^ * O O < ,.%.g.-.r @.>.k.>.>.n @ s S ' ] ] ' q.|.",
"^ } ' ' ' ' ' ^ * o X : %.:.G G W.#X@X-.F g.c + f ' ' ' } } v.8.",
"^ ' ' } ' ' ' / 1 X . O #.{.X.#.#X#X#X=.;.^.c O 6 ' ' ' } q.].P ",
"^ } } ] ] ' ] ' y X   X F (.W.W.#X@X@X+X+X!.( 5 % A ' ] ) Z.=XP ",
"^ } ' } ' ' ] } d X   . 8 Q.#X&X#X#X@X#X#XT.6.M % i [ ] 0.$X,XY ",
"^ } } ' } ' } } A 8 w $ - ,.&X@X!.M.j.L.&XW.S.].E * k ] z.;X}.J ",
"^ } } ' ' ' ' ) v.}. X5.t b ).).u.I P N.(.W.,X4XoXQ f k E o...c ",
"^ { ) } ] ] ] z.>X2X;X;X5.w @.!.M.d.l.A.P. X<X<X,Xj.' S =.5.`.1.",
"^ / Y Y _ ) 0.$X3X3X2X.X.X3.e H a.l.h.B.B. XXX,X2XZ.{  .[.2X2XV.",
"Z V a.Y.].Z.D.1X1X3X2X.X.X.X5.t v U %.B.U.%X=X=X2X$Xy.r.:X.X.XI.",
"N I W.>X1X1X-X;X3X3X;X}.XX.X2X}.X.v G 4..X X X=X4X3X>X:X.X.X XC.",
"B M.=X1X3X1X1X=X<X3X=X_.;X:X3X3X|.x = w O.U.}.,X2X1X1X|.}.2X}.4.",
"L ~.<X1X1X1X1X;X;X3X}.`.;X=X3X2Xo.; r O.2..X.X,X1X2X,XR.}.2X_.m.",
"8.+X1X1X1X1X3X>X|.;X|..X;X;X;XV.= t :.F o.;.'.<X2X,X'.m.R.;XB.U ",
"h.$X1X1X3X4X3X<X'.V.}.=X1X1X;X3.n *.O.V.+.+.;.`.,XR.p.a.(.{.|.s.",
"g.*X1X1X;X2X3X1X[.g.:X.X3X3X1X<X;X'.r S.1X1X*.&.+Xk.R a.L.Q..X.X",
"g.-X1X1X>X>X1X1XOX0.S.=X1X1X<X1X4X>X3.<.1X>Xz.{ w.a.a.R p.l.,X2X",
"h.-X1X1X1X<X1X3XOX| v.-X<X<X<X1X4X=X;X<X1X-Xq.} { n.).l.d.C.{.,X",
"U +X1X1X1X1X1X1X/.| b.>X<X1X1X1X1X>X1X1X1X+X .} ] 0.!.).H.t.w.x.",
"B Q.1X1X1X<X1X3XJ.{ J.<X1X1X1X1X1X1X1X1X3XJ.} } } } i.z.i.} } } ",
"P l.=X1X1X1X1X<Xb.| Z.<X<X3X1X1X1X1X1X1X>Xv.{ } } } } ' } } } { ",
"B T W.1X1X1X3X*Xi.q.OX1X1X3X1X1X1X1X1X<X+X~.q.} } } ' ' ' ' { r.",
"V C f.$X1X1X3XF.{ b.>X<X>X;X;X1X1X1X3X;X$X>XoXt.{ } ' ' ' ' { x.",
"! D C l.].-XK.0.| K.4X>X}.=X=X:X1X1X1X<X<X<X1X=XG.{ } } } } 0.S.",
"^ ' D P 8.0.{ { b.>X4X:XE.v.9.c.%X>X=X1X1X=X%X>X<Xn.{ } } ` S.XX",
"^ ] ' | | ' ] q.-X3X1X:Xy.M m e.Y.+X>X1X>X=X<X=X1X>Xb.} } x.XXXX",
"^ ] ' ' ' ' } J.1X3X1X%XY.n.v.Y.=X1X3X1X1X:X,X:X1X4X*Xq. .S.XXXX",
"^ ] ' ] ] ] 0.$X1X1X1X,X.X|.{.{.1X1X1X1X,X}.|.=X4X1X1X/.0.].XX2X"
};
