/* XPM */
static char *yamada_1[] = {
/* columns rows colors chars-per-pixel */
"32 37 207 2 ",
"   c #2F2636",
".  c #342939",
"X  c #362B3B",
"o  c #433344",
"O  c #4C3B4D",
"+  c #483649",
"@  c #50394B",
"#  c #4E3E51",
"$  c #513F52",
"%  c #5F3B50",
"&  c #633E52",
"*  c #5F514B",
"=  c #4F4050",
"-  c #554255",
";  c #584556",
":  c #5B4A56",
">  c #5C465A",
",  c #5E4B59",
"<  c #564A4D",
"1  c #6B4053",
"2  c #60475D",
"3  c #64495E",
"4  c #684A5F",
"5  c #73495E",
"6  c #64525A",
"7  c #6B575C",
"8  c #72635D",
"9  c #744D61",
"0  c #7B4E63",
"q  c #755E61",
"w  c #7D6A68",
"e  c #7F7167",
"r  c #7C7274",
"t  c #D8653D",
"y  c #D6663E",
"u  c #814A5C",
"i  c #8A4D62",
"p  c #914E65",
"a  c #855266",
"s  c #885065",
"d  c #9B546A",
"f  c #95576B",
"g  c #A8576F",
"h  c #AD5B73",
"j  c #A65E73",
"k  c #B25D74",
"l  c #B65F78",
"z  c #816A6C",
"x  c #86746F",
"c  c #817372",
"v  c #8B7673",
"b  c #887D76",
"n  c #927B73",
"m  c #BD6571",
"M  c #AA777E",
"N  c #D66847",
"B  c #CC7448",
"V  c #D16451",
"C  c #CD7250",
"Z  c #DA696C",
"A  c #DA6667",
"S  c #C4647E",
"D  c #DB6A72",
"F  c #DD6A7A",
"G  c #C37079",
"H  c #D77377",
"J  c #8C807D",
"K  c #988579",
"L  c #A48C7E",
"P  c #B18E73",
"I  c #CB8D5B",
"U  c #D38B5C",
"Y  c #CC8D62",
"T  c #D28A64",
"R  c #C8926E",
"E  c #D68B7C",
"W  c #D49675",
"Q  c #CD8F75",
"!  c #D2A279",
"~  c #CD6781",
"^  c #D26782",
"/  c #D46984",
"(  c #DA6A87",
")  c #DB6A88",
"_  c #CE7F8D",
"`  c #C67E87",
"'  c #D57D8C",
"]  c #DE7B8E",
"[  c #D97181",
"{  c #DC7C91",
"}  c #E76F8E",
"|  c #E86F8F",
" . c #E26C84",
".. c #E07487",
"X. c #E5728E",
"o. c #E8708F",
"O. c #EA6F90",
"+. c #E47590",
"@. c #E97090",
"#. c #E07B91",
"$. c #8C8381",
"%. c #968B86",
"&. c #978C88",
"*. c #9D928B",
"=. c #9D9494",
"-. c #A48E81",
";. c #AE8186",
":. c #BD8C8B",
">. c #AB9584",
",. c #A4948B",
"<. c #AD9688",
"1. c #B49C8A",
"2. c #B89D86",
"3. c #A89D97",
"4. c #B29596",
"5. c #B9A18F",
"6. c #AAA19C",
"7. c #B6A094",
"8. c #BAA495",
"9. c #A59EA0",
"0. c #B7ADA7",
"q. c #BBB1AB",
"w. c #BDB5B0",
"e. c #C78785",
"r. c #DC808D",
"t. c #C49A87",
"y. c #D69F8A",
"u. c #DD8C97",
"i. c #DD8C99",
"p. c #D78694",
"a. c #CB959A",
"s. c #DC949C",
"d. c #DB9C9D",
"f. c #E08093",
"g. c #C5A68C",
"h. c #D5A68B",
"j. c #D6AA8B",
"k. c #D1B08F",
"l. c #C4AB95",
"z. c #D8AC94",
"x. c #D8AC95",
"c. c #D7B499",
"v. c #DA9CA2",
"b. c #DD96A0",
"n. c #CDA6A1",
"m. c #C8AEA5",
"M. c #D4A3A3",
"N. c #D4A4A9",
"B. c #DBA4A9",
"V. c #D6A7A8",
"C. c #CCBBAA",
"Z. c #C5B0A2",
"A. c #D3B3AE",
"S. c #D8B6A6",
"D. c #C2BAB4",
"F. c #C7BEB6",
"G. c #DDB5B4",
"H. c #D4BCB3",
"J. c #DCBAB5",
"K. c #D7B6B6",
"L. c #E1B8B7",
"P. c #D4C1AC",
"I. c #D6C0A7",
"U. c #CAC1BA",
"Y. c #C6C1BE",
"T. c #DBC5B3",
"R. c #DDC3BD",
"E. c #DCCDBD",
"W. c #D3C3B4",
"Q. c #E2C4AC",
"!. c #E5CCB5",
"~. c #E4CDB9",
"^. c #E3C3B7",
"/. c #E5D1BC",
"(. c #E9D3BE",
"). c #CBC5C0",
"_. c #CFCAC4",
"`. c #D4CCC5",
"'. c #DBCDC3",
"]. c #D4CEC9",
"[. c #DBCDC8",
"{. c #DEC3C1",
"}. c #DED1C4",
"|. c #D6D1CC",
" X c #DBD4CC",
".X c #DBD7D1",
"XX c #DEDAD4",
"oX c #DFDDDA",
"OX c #D7D4D0",
"+X c #E3CCC6",
"@X c #E4CBC5",
"#X c #EBD6C3",
"$X c #EDD9C7",
"%X c #E3D4CC",
"&X c #E3D9CE",
"*X c #E7D4C4",
"=X c #E3DCD5",
"-X c #E8DED4",
";X c #E3DED8",
":X c #E6E0D7",
">X c #E9E0D7",
",X c #E5E1DC",
"<X c #ECE6DE",
"1X c #EEE8DF",
"2X c #E6E5E1",
"3X c #EAE7E1",
"4X c #EEE8E0",
/* pixels */
"( } } } } } } } } } } } } / d 9 4 3 3 3 9 f ~ } } } } } } } } } ",
"( } } } O.O.} } } } o.} S a 3 3 3 3 3 3 3 4 0 h ( } } } } o.} } ",
"( } } } } } } } } } o.S 9 > 3 2 2 > 2 2 > 3 2 3 f ~ o.o.} } } } ",
"( } } O.} O.} } } } / 0 > > > > > > > > > > > > 3 a / X.} } } } ",
"( @.} } } } } } } } j 3 > - > - - - - > , , - - $ > d  .} } } } ",
"( } O.} } O.} } } ( 9 - - - > 7 7 = # 6 n c : < # $ p / o.} } } ",
"( } } } } } O.} | l $ $ - q z n v # # ; <.5.w = # O i / } } } o.",
"( } | } } O.} } O.d O O : -.>.5.7.; = , 7.~.5.6 O O 5 ) } } | p.",
"( } } } } O.} } O.p + + ; 7.1.5.5.L 8.Z.8.<.>.n @ s k  .} } } B.",
"( } } } } } O.} } p o o O >.8.K K /.#X#X8.K C.K O k } } } } { {.",
"( O.O.} } } } O.} d o . o ,.+X*.,.(.#X#XZ.6.~.n o i } } } } b.=X",
"( O.O.} } O.} } } g o   X v *X}./.#X#X(.*X*X!.e.& & ^ } } { [.;X",
"( } } O.} } } } } ~ +   X 6 T.$X$X$X$X#X#X$X!.' h @ g | } v.2X;X",
"( } } } } } } } } / 1     + 7.$X*XS.c.h.C.$XT.:.' p & ) { {.3X,X",
"( } } } } } } } } { 4.=.r : w /.#Xy.E Q c./.'.=X`.a.5 p ' [.].F.",
"( } } } } O.O.O.{ {.;X;X=Xw.6 -.Q.Q.x.x.H.F. X2X2X%X_ h M 9.=.=.",
"( } o.o.} [ ..o.B.<X3X=X=XXX9.7 P k.c.l.w.w..X,X,X3XB...N.oX2X_.",
"( o.} o.) W E p.%X3X4X,XoXXXoX9.c t.! 2.Y.`.OX:XoX3X'.r.K.2X2X.X",
"( } o. .V R P.[..X<X3X,XXX=X;X,X0.v P P `.XX XXXoX1X:XA.].oXoXOX",
"( } o.A N c.=X1X-X=X3X;X X=X;X,X<XU.7 8 J *.|.|.oX1X,X<XOXOXoX].",
"( @.} C T }.:X3X<X X3X;X`.;X=X,X,X$.* 8 J %.}.`.,X3X,X2X[.;X2X).",
"( O./ Y W }.<X<X3X=X:X.X X:X,X,XY.< e >.=.U.XX X2X3X3XXX).2XoXw.",
"( | H I h.&X<X4X<X:X X|.XX>X3X=X0.r %.6.6.c %.U.,XoXOXW.C.oX;Xl.",
"( } Z B z.=X4X<X4X<XD.`.XX<X<X<X,X|.0.b XX.X}.%.q.=XP.g.I.E.=XR.",
"( | A N h.=X<X-X1X1XH.[.XX<X<X<X<X<X&X*.6.<X<X;.e.{.g.g.S.!.E.,X",
"( O.A t x.-X3X-X>X1XT.R.:X1X<X1X<X<X:X=X[.<X-Xi.} ' t.l.g.k.P.,X",
"( O.Z t h.-X4X<X>X1XJ.H.1X<X<X<X1X<X>X1X1X<X+X#.O.} ] !.c.k.W.-X",
"( } F B W  X4X4X1X1XJ.R.1X1X1X1X1X<X<X1X1X1XJ.X.O.O.X.d.!.!.s.s.",
") o...Y T }.<X1X<X1XA.@X4X<X<X4X<X1X<X1X<X>Xs.o.| o.o.o.u.s...o.",
") o.o.W U T.<X1X<X<XB.@X4X4X4X<X1X<X1X<X1X*Xs.o.| } o.| } } o.o.",
") | @.H B j. X1X1X-XM.=X1X4X<X1X1X<X1X1X,X+XG.{ o.| | | } o.o.] ",
") o.@. .N C T.<X1X'.&X<X<X>X:X<X<X<X<X<X-X-X>X^.u.o.| | | o.@.' ",
") | | | D N W /.%Xm.>X4X=X|.XXXX-X<X<X<X<X<X<X<X%Xs.} | } } ] N.",
"( } | | } D Y e.p.^.<X<X XJ.M.a.A.=X&X=X<X<X-XXX<X+Xu.} O.} v.oX",
"( | } } | | ....B.>X4X<X[.` G m n.W.&X<X<X>X-X:X=X1X@X#.O.p.OXoX",
") | } | | | O.#.@X<X4X<X`.A.M.x.'.:X4X<X<X>X=X-X&X<X<XG.{ N.oX,X",
"( | } } } } } s.>X<X4X3X;XXX%X{. X4X4X4X4X:X X X-X<X4X-Xd.K.oX,X"
};
