/* XPM */
static char *yamada_6[] = {
/* columns rows colors chars-per-pixel */
"32 37 210 2 ",
"   c #423343",
".  c #453548",
"X  c #4C3C4D",
"o  c #493949",
"O  c #563B4E",
"+  c #4D3D50",
"@  c #4D4149",
"#  c #534154",
"$  c #5D4A55",
"%  c #5C455A",
"&  c #5E4458",
"*  c #644B5E",
"=  c #684D5E",
"-  c #66535E",
";  c #69585A",
":  c #78585A",
">  c #77485C",
",  c #74625A",
"<  c #684E60",
"1  c #7D4C61",
"2  c #6C5261",
"3  c #775765",
"4  c #726262",
"5  c #7A6168",
"6  c #786A6A",
"7  c #7E706A",
"8  c #7E7279",
"9  c #9E5934",
"0  c #AD4622",
"q  c #A4532D",
"w  c #AB5533",
"e  c #AD5832",
"r  c #B65D37",
"t  c #AA623E",
"y  c #B4633C",
"u  c #BB613D",
"i  c #C2663D",
"p  c #CF673E",
"a  c #D4653C",
"s  c #A66C44",
"d  c #A76448",
"f  c #BC6A41",
"g  c #B66A43",
"h  c #A87249",
"j  c #BA7246",
"k  c #BA7649",
"l  c #AC7656",
"z  c #814F63",
"x  c #8A5C69",
"c  c #875164",
"v  c #9F5970",
"b  c #97586D",
"n  c #A2566B",
"m  c #A35F72",
"M  c #836A6F",
"N  c #87726C",
"B  c #8B766A",
"V  c #947D6F",
"C  c #876B70",
"Z  c #827573",
"A  c #8B7373",
"S  c #937976",
"D  c #927C78",
"F  c #B66276",
"G  c #A7767A",
"H  c #AC5453",
"J  c #CE6E46",
"K  c #CC7D57",
"L  c #D76E45",
"P  c #C6637D",
"I  c #D27B7C",
"U  c #C47A74",
"Y  c #B3815B",
"T  c #8D827D",
"R  c #9E8A7A",
"E  c #96857A",
"W  c #B58765",
"Q  c #A48E7E",
"!  c #B98B7B",
"~  c #BB9776",
"^  c #C58A58",
"/  c #C88965",
"(  c #CC9B62",
")  c #D09B62",
"_  c #C59373",
"`  c #C5977B",
"'  c #D29F7E",
"]  c #D18A76",
"[  c #C2A17E",
"{  c #D6A466",
"}  c #C86880",
"|  c #DA6A87",
" . c #DE6C89",
".. c #D26984",
"X. c #DE768C",
"o. c #DB7A8E",
"O. c #D57688",
"+. c #DC7D91",
"@. c #DF7790",
"#. c #E76F8E",
"$. c #E86F8F",
"%. c #E4728E",
"&. c #E8708F",
"*. c #E17990",
"=. c #E17790",
"-. c #8E8283",
";. c #998E8B",
":. c #9F8E81",
">. c #9D928E",
",. c #968F93",
"<. c #9C9293",
"1. c #AE9584",
"2. c #AF9688",
"3. c #B59485",
"4. c #B39C8C",
"5. c #BA9888",
"6. c #A39995",
"7. c #A79A93",
"8. c #BC9F91",
"9. c #B7A18E",
"0. c #B6A59A",
"q. c #ABA4A1",
"w. c #B3AAA6",
"e. c #B8ADA5",
"r. c #B5ADAA",
"t. c #BBA8A8",
"y. c #BCB0A6",
"u. c #B7B1AF",
"i. c #CA898A",
"p. c #C79987",
"a. c #D79988",
"s. c #DC8494",
"d. c #DB8896",
"f. c #DC8E9A",
"g. c #CD9A98",
"h. c #DA969D",
"j. c #DC989B",
"k. c #CDA689",
"l. c #D1A485",
"z. c #C4AB95",
"x. c #C9AD9A",
"c. c #D6A89D",
"v. c #D6AC97",
"b. c #CEB49C",
"n. c #D4BA9F",
"m. c #DAB89C",
"M. c #DB9CA3",
"N. c #D799A1",
"B. c #CFA5A0",
"V. c #D9A6AA",
"C. c #D6A9AA",
"Z. c #DAA7A5",
"A. c #CAB8A4",
"S. c #C4BAAF",
"D. c #C6B5A9",
"F. c #D2BAA5",
"G. c #DCBEA4",
"H. c #D5BEA9",
"J. c #D4B5A6",
"K. c #C3BBB5",
"L. c #CCBEB3",
"P. c #DBBAB4",
"I. c #DBB8B6",
"U. c #E0B5AA",
"Y. c #E1BFBC",
"T. c #D4C0AC",
"R. c #DEC4AC",
"E. c #CDC5BE",
"W. c #C6C2BF",
"Q. c #D6C4B4",
"!. c #DAC5B5",
"~. c #DDC9B3",
"^. c #D3C6B9",
"/. c #DBC3BD",
"(. c #D5C9BB",
"). c #DCCCBC",
"_. c #D5C9B7",
"`. c #E3C8AE",
"'. c #E3CAB2",
"]. c #E5CCB9",
"[. c #E2C5B3",
"{. c #E5D0BB",
"}. c #E9D3BD",
"|. c #CEC9C4",
" X c #CBC6C2",
".X c #D2CBC4",
"XX c #DCCCC3",
"oX c #DBCDC8",
"OX c #D7CAC6",
"+X c #DCD2C5",
"@X c #DBD5CE",
"#X c #DBD7D1",
"$X c #DED9D3",
"%X c #DFDDD9",
"&X c #E2C6C1",
"*X c #EBD6C3",
"=X c #ECD8C5",
"-X c #E3D4CB",
";X c #E3D9CD",
":X c #E9D8C7",
">X c #E4DCD4",
",X c #E9DED5",
"<X c #E2DED9",
"1X c #EAE0D4",
"2X c #E5E2DC",
"3X c #ECE6DD",
"4X c #EEE8DF",
"5X c #E7E5E1",
"6X c #EAE7E0",
"7X c #EDE8E0",
/* pixels */
"| $.#.#.$.#.#.$.#.#.#.#.#.P 2 < < < * % < < < < < < C | $.#.$.#.",
"| &.$.$.#.#.#.#.#.#.#.#.%.v < < * % - 2 % * < < < * 2 F #.#.$.$.",
"| $.$.$.$.#.#.#.#.#.#.#.| 1 % % % < 5 M $ < 5 S 3 * * b #.$.$.#.",
"| $.$.$.#.#.#.#.#.#.#.#.P * % % $ A E A % * S 2.D 5 % c | #.#.$.",
"| $.#.#.#.#.#.#.#.#.#.#.v % % $ B 2.9.B 3 M 4.z.! B $ z  .#.#.$.",
"| $.#.#.#.$.#.#.#.#.#.| 1 # + 4 R :.B Q T.~.F.V R N $ c #.$.#.#.",
"| $.#.#.%.#.#.#.#.#.$.P O + @ N A.y., 0.=X=X~.6 7.4.; n #.$.#.$.",
"| $.$.$.$.#.#.$.$.#.#.v X + $ 9.{._.q.Q.=X{.{.D._.x.> P #.#.#.#.",
"| $.#.#.$.$.$.#.#.#.| > . . - A.].*X=X=X=X{.}.*X=X9.F #.#.#.#.#.",
"| $.#.#.$.%.$.$.#.#.P O       , F.=X=X].m.v.b.}.*X5...%.#.#.#.#.",
"| %.#.#.#.%.#.#.$.$.n . + o @ ; 0.].=XJ.] ] p.].[.G  .$.#.#.#.#.",
"| %.#.#.#.#.#.#.$. .x ,.r.6 w.|.E.b.].`.a.a.G.~.D C o.$.#.#.#.#.",
"| $.$.$.$.$.#.#.$...t.%X|.-..X#X2X+Xb.G.R.R.D.e.< w.C.#.#.#.$.#.",
"| $.$.%.#.$.#.#.%.N.5X5X|.,.oX$X2X2X_.l.[ y.e.-.8 .XOX@.#.#.#.#.",
"| $.$.$.#.#.#.#.+.&X5X6X.X<.$X$X2X5X.Xz.9.K.W.6 w.#X>Xs.#.#.#.%.",
"| $.$.$.$.#.$.#.V.$X5X6X.X6.$X$X2XE.T , 4 u.q.<.|.#X,XN.$.#.$.N.",
"| $.#.$.$.$.$.N.>X2X2X6X%Xy.$X$X%Xq.4 E 6 ; 8 .XE.%X6X(.+.&.=.I.",
"| $.#.#.$.$.+.&X4X2X%X5X1Xu._._.#X X6 y.E T ;.;X.X2X6X2XM.=.%.I.",
"| $.$.$.#. .V.5X4X2X$X%X@X1.W ~ S.T 7.D.Z 6.E.1X.X6X6X6X&X*.*.oX",
"| $.$.%.%.s.-X5X6X6X2X$XL.d i J 3.7 E.y.7 e.3X2X#X6X3X6X/.@.M.2X",
"| $.$.$.$.o.D.^.+X1X6X#X~ t y a ` y.3XS.T @X4X2X<X7X6X>XB.o.I.<X",
"| $.$.$.$.#.i./.~.n.).W.l h y i _ +X2X_.W.3X4X1X@X2X#XH.[.g.oX#X",
"| $.#.$.$.$.h.*X=XG.0.3.e q y ^ _ +X@X;X3X4X3X).Q.!.z.'.*X^.2X5X",
"| $.#.#.$.o.U.[.*Xc.i.3.y 0 y { _ +X@X4X3X3X1XT.n.`.R.~.*X].<X5X",
"| $.$.#.#.j.}.].G.i.c.R.k.t k W _ XX3X7X3X7X).k.n.m.`.G.[.~..X5X",
"| $.#.#. .C.*X*X}.F.{.~.R.Y J i k.;X3X3X7X<Xh.p.g._ l.[.*X=X).2X",
"| $.#.$.%.j.].*X=X'.].`.m.Y p a k.>X7X3X3XY.=.%.O.I I a.].=X*X@X",
"| $.#.#.&.%.s.M.Z.v.v.' / h a L J.>X7X3X-Xs.&.&.#.#.$.#.s.j.Z.XX",
"| $.#.#.%.$.$.#.#.X.U w 0 e f ^ !.2X4X3XC.=.&.&.$.$.$.$.$.$.%.f.",
"| $.#.#.$.$.#.#.%.%.i.t 9 y ( / _.3X3X4XP.O.&.&.$.$.$.$.$.$.&.&.",
"| #.#.#.#.#.#.#.$.d.!.l h k ) a.-X4X4X4X,XP.+.$.$.$.$.$.$.$.&.%.",
"| #.$.#.#.#.$.$.+.I.).l s k ^ x.>X3X4X3X3X1XM.$.$.$.$.$.$.$.$.&.",
"| $.#.#.$.$.$.%.U.>XI.d e a K T.;X3X4X3X3X4X&Xh.$.$.$.$.$.$.$.X.",
"| #.#.#.%.$.#.h.,X>XB.H g J p.^.~.~.:X1X3X3X3X*Xd.$.$.$.%.#.@.C.",
"| $.#.#.$.$.=.].7X-XI.g.! p.E.3X<X-X,X3X3X;X;X3XY.=.$.$.#.@.N.%X",
"| $.#.#.$.$.M.3X7X3X#XOXQ.^.1X3X4X4X3X7X;X2X2X$X2XM.%.$.#.s.OX2X",
"| $.#.#.$.=.].3X4X3X3X;X).;X3X3X3X7X3X7X;X2X2X>X4X:Xs.$.$.V.%X%X"
};
