/* XPM */
static char *yamada_24[] = {
/* columns rows colors chars-per-pixel */
"32 37 209 2 ",
"   c #2A2031",
".  c #3F313F",
"X  c #362938",
"o  c #3F2F42",
"O  c #443445",
"+  c #4C3B4C",
"@  c #463749",
"#  c #4D3D50",
"$  c #4F4045",
"%  c #55464A",
"&  c #564354",
"*  c #5A4459",
"=  c #5C495B",
"-  c #594754",
";  c #5F5354",
":  c #644B5E",
">  c #684A5E",
",  c #664255",
"<  c #69525D",
"1  c #66595D",
"2  c #655755",
"3  c #784B5E",
"4  c #684E60",
"5  c #724A60",
"6  c #6D5362",
"7  c #675962",
"8  c #7D5064",
"9  c #7D646C",
"0  c #7A6762",
"q  c #7A6D73",
"w  c #B1431F",
"e  c #AB4B26",
"r  c #B24A28",
"t  c #AA512C",
"y  c #B2552F",
"u  c #AD4F30",
"i  c #AB5936",
"p  c #B25B35",
"a  c #B35C38",
"s  c #AD623C",
"d  c #B5613A",
"f  c #CB643C",
"g  c #D5643B",
"h  c #AB6745",
"j  c #B96B44",
"k  c #BA7A54",
"l  c #B67154",
"z  c #8C4E65",
"x  c #855164",
"c  c #95576A",
"v  c #B65E76",
"b  c #83686F",
"n  c #99606E",
"m  c #8A776C",
"M  c #847876",
"N  c #887976",
"B  c #957B77",
"V  c #BC6479",
"C  c #B17073",
"Z  c #C46F43",
"A  c #D76A40",
"S  c #C5754B",
"D  c #C47A4B",
"F  c #C57D51",
"G  c #D8744D",
"H  c #C7667B",
"J  c #D76376",
"K  c #D2767C",
"L  c #BC8158",
"P  c #9C857D",
"I  c #9B887C",
"U  c #9C8575",
"Y  c #A78471",
"T  c #A9927F",
"R  c #BF917A",
"E  c #B78972",
"W  c #CB8755",
"Q  c #C2895A",
"!  c #CF8D64",
"~  c #C48A68",
"^  c #D58966",
"/  c #CB9566",
"(  c #D49B61",
")  c #C79679",
"_  c #E2887A",
"`  c #D4A065",
"'  c #CEA37E",
"]  c #CC6681",
"[  c #D66985",
"{  c #DA6A87",
"}  c #DC6A88",
"|  c #DE778C",
" . c #D77A8B",
".. c #DD7F92",
"X. c #E76F8E",
"o. c #E86F8F",
"O. c #E5728E",
"+. c #E8708F",
"@. c #EA6F90",
"#. c #E87090",
"$. c #E27991",
"%. c #8E8386",
"&. c #978887",
"*. c #9B908C",
"=. c #A48984",
"-. c #AE8680",
";. c #AC9486",
":. c #A59387",
">. c #B49886",
",. c #A89C98",
"<. c #B29F91",
"1. c #BEA68B",
"2. c #ADA09B",
"3. c #BBA393",
"4. c #BAA99C",
"5. c #B2A9A4",
"6. c #B4ADA9",
"7. c #BBAEA9",
"8. c #BDB2AA",
"9. c #BEB7B3",
"0. c #AFA7A7",
"q. c #C08B83",
"w. c #D59884",
"e. c #CE8892",
"r. c #DB8494",
"t. c #DD8C99",
"y. c #DA8896",
"u. c #CC9A99",
"i. c #DD909A",
"p. c #D8999A",
"a. c #C89382",
"s. c #E08B99",
"d. c #E18294",
"f. c #E1959E",
"g. c #CAAA8C",
"h. c #CDAD94",
"j. c #C6A694",
"k. c #DCA79F",
"l. c #C7B29B",
"z. c #CAB39E",
"x. c #D4B293",
"c. c #D7B499",
"v. c #DB9BA4",
"b. c #DA95A1",
"n. c #C2ACA5",
"m. c #DBA1A6",
"M. c #D4ACA9",
"N. c #D9A7A8",
"B. c #CCB8A7",
"V. c #D4BBA4",
"C. c #D4BEAB",
"Z. c #D9B6A6",
"A. c #C8BEB5",
"S. c #C4BAB4",
"D. c #D2BCB2",
"F. c #D6BDB9",
"G. c #DCB5B7",
"H. c #E0B0B0",
"J. c #E1BCBB",
"K. c #E1A8A4",
"L. c #D6C1AC",
"P. c #DCC3AA",
"I. c #DDC1A5",
"U. c #CCC4BE",
"Y. c #CAC2B7",
"T. c #D4C3B4",
"R. c #DAC6B2",
"E. c #DEC9B4",
"W. c #D5C7BB",
"Q. c #DEC1BF",
"!. c #DBCCBD",
"~. c #D4CABC",
"^. c #E2C5AA",
"/. c #E1CAB5",
"(. c #E5CDBA",
"). c #E2C3B7",
"_. c #E6D1BC",
"`. c #E9D1BD",
"'. c #CAC5C1",
"]. c #D3CBC3",
"[. c #DACDC4",
"{. c #D6CFC8",
"}. c #D9CAC6",
"|. c #DDD2C5",
" X c #DCD5CD",
".X c #DCD7D0",
"XX c #DED9D3",
"oX c #DFDCD8",
"OX c #E2CBC2",
"+X c #E1CDC8",
"@X c #E1C4C1",
"#X c #E4D2C3",
"$X c #EAD6C4",
"%X c #ECD8C6",
"&X c #E5D9CB",
"*X c #EBDAC9",
"=X c #E5D8C7",
"-X c #E3DBD3",
";X c #E9DAD2",
":X c #E3DED8",
">X c #E6D7D0",
",X c #E9E1D6",
"<X c #E4E1DC",
"1X c #ECE6DE",
"2X c #EDE8DF",
"3X c #E7E0D7",
"4X c #E6E5E1",
"5X c #EAE7E0",
"6X c #EEE8E0",
/* pixels */
"{ o.o.o.o.X.o.o.X.X.X.X.X.v 4 : : : 6 b 6 : 6 9 b : 4 c } #.#.O.",
"{ o.o.o.o.X.X.o.X.X.X.X.[ 8 : : : 6 N B 6 : 9 &.Y < : 8 { #.o.#.",
"{ o.o.o.o.o.X.o.X.X.X.X.V > = = 6 I u.:.1 < =.j.4.B 6 5 ] o.o.o.",
"} o.o.o.o.O.X.X.X.X.X.X.c * * : U ;.T U 3.n.R.l.:.I 4 > H O.X.o.",
"[ o.X.o.o.o.X.X.o.o.o.[ 5 * - < >.8.m I #X*X=X<.m :.< 3 ] X.X.X.",
"} o.X.X.o.o.o.X.o.o.o.v # & & 0 C.!.P <.=X$X*X4.:.B.m c [ X.X.X.",
"} X.o.o.o.o.o.X.o.o.X.z # # = 3.(.$X_.#X=X$X`.$X+X(.-.H X.@.X.X.",
"} #.o.o.o.X.o.o.o.o.[ , + + % 3./.%X*X*X`.).(.%X*XR.C X.X.X.X.@.",
"} @.X.X.o.X.o.o.X.X.v @ @ @ o $ T =X%X/.w.w.R _.%XB.V #.O.o.X.X.",
"} X.@.X.X.o.X.o.X.X.z O o o X   ; P.*X/.w._ w._._.-.] #.o.o.X.X.",
"} @.X.X.o.o.o.o.O.[ , - 7 + & 7 %.1.P._.K.w.Z./.P x } X.X.X.X.X.",
"} @.X.@.o.o.o.o.#.] &.'.S.q S.{.:X[.V.x.I.R.L.:.$ n #.#.@.@.X.X.",
"} X.@.X.X.X.o.@.#.M.5X:X].&..X X5X5X>Xx.) 3.S.N 7 7...X.X.X.X.#.",
"} X.X.X.X.X.o.o.t.-X6X:X].2..X.X1X5XXXV.g.4.6.1 ,.XXv.X.X.X.@.#.",
"} @.X.@.@.X.@.| }.:X4X:X].7.-X.X1X<X'.&.Y ].0.q ].:XJ.O.X.X.#.r.",
"[ #.@.X.@.X...}.:X.X5X4X].S.:X>X:X*.2 % 2 0.%.S.{.<X;Xt.@.X.y.}.",
"{ @.@.X.o.d.J.4X4XXX4X6X].Y.1X.XoX6.q I 0 ; 2.XX{.,X6XG.O.O.m.1X",
"{ @.X.X.d.@X4X5X2X-X<XT.T 1.|..X5X9.I 4.M 1 5.XX].2X6X-Xt.O.G.<X",
"{ @.o.| J.1X1X1X6X3XY.h p S a.Y.].q 9.2.M 5. X-X.X2X1X4XG.r.+X<X",
"{ @.o. .S.Y.T.R.[.-XE s y g ! ~.'.5.3X*.8.6X2X-X3X2X4X4XF.M.oXoX",
"{ @.X.X.e.D.`.^.g.>.h s r f ! !.1X2X1X2.{.1X2X-X3X3X1X-XV.W.<X<X",
"{ @.X.X.p.`.$X`.l.Y e e y D ~ R.2X2X-X~.1X1X2X.XXX!.!.B.E.[.<X4X",
"} @.X.t.R./._.L.z.z.a r j ` ) |.1X2X|.3X1X2X2XT.B.B./._./.$X>X4X",
"} @.d.).$X_.I.E./.c.L a L ( / ~.2X3X X2X1X2X,Xu.-.h.P.`.(.L.!.-X",
"} X.f.$X$X$X).`._.I.~ k S Z w. X2X&X3X6X6X6XF.| $.g.h.g.c.^.(.OX",
"} @.$.Z.$X$X/.(.I.x.Q L A g c.&X3X:X6X2X6X;Xs.O.X. .K K ) ^.%X%X",
"} @.X.O.i.N.N.) l j s F g G L.,X2X2X6X6X2XN.O.#.X.X.o.o.$.p.(.$X",
"} @.X.X.O.O.O.J r w p S f ^ !.1X2X2X5X6X+X..o.o.X.X.o.X.X.O.r.p.",
"X.o.o.X.O.X.o.J u t p W W ) !.2X2X5X2X:Xv.o.o.o.o.o.o.o.X.X.X.O.",
"[ +.X.X.X.X.X.J s i y ( ! Z.&X2X2X1X6X;Xy.#.@.o.X.o.o.X.X.X.O.X.",
"{ X.o.X.X.X.+.J s i d Q ) R.,X6X2X1X6X1XZ.$.o.o.o.X.o.X.X.o.X.O.",
"{ o.+.X.o.+.O.{ i t f S g.L.;X6X2X2X2X1X;Xk.X.o.o.o.o.o.o.o.o.O.",
"{ o.o.o.+.o.O.N.) j f ~ j.T.!.&X,X1X1X1X2X#Xy.#.#.o.o.o.#.#.X...",
"{ o.X.o.o.O.s.;XW.E l C u. X,X|.~.&X1X1X2X2X@X$.+.+.o.o.#.#.b.{.",
"{ o.X.X.o.O.J.2X&XA.M.m.F.-X2X2X1X1X1X1X.X-X,XN.O.o.o.o.#.y.{.<X",
"X.o.o.o.+.s.;X2X1X;X[.W.R.$X,X1X2X1X2X3X-X-X&X>Xy.O.o.o.| F.<X<X",
"J o.o.o.O.H.2X2X2X2X,X=X&X,X2X2X5X2X2X-X3X,X.X2XOX..o.o.b.XX<X<X"
};
