/* XPM */
static char *yamada_19[] = {
/* columns rows colors chars-per-pixel */
"32 37 208 2 ",
"   c #2E2536",
".  c #352A3A",
"X  c #372B3B",
"o  c #39303E",
"O  c #3F3140",
"+  c #422F43",
"@  c #433245",
"#  c #463649",
"$  c #4C3448",
"%  c #4B3B4D",
"&  c #483748",
"*  c #5A3B4E",
"=  c #4E3E51",
"-  c #523F52",
";  c #623C51",
":  c #4F4346",
">  c #4F4052",
",  c #534254",
"<  c #5C4C53",
"1  c #5B455A",
"2  c #5E4D59",
"3  c #5D4354",
"4  c #5F5457",
"5  c #60514C",
"6  c #64485C",
"7  c #664256",
"8  c #7E4C5F",
"9  c #68575A",
"0  c #786259",
"q  c #764B61",
"w  c #6B5D63",
"e  c #6C6161",
"r  c #73646A",
"t  c #7C6969",
"y  c #766665",
"u  c #A15338",
"i  c #D7683D",
"p  c #884A5F",
"a  c #986A4A",
"s  c #864C62",
"d  c #8C5568",
"f  c #9C556C",
"g  c #95556A",
"h  c #A5556C",
"j  c #AF596F",
"k  c #AA5972",
"l  c #B35C74",
"z  c #BE5E77",
"x  c #876B69",
"c  c #81706E",
"v  c #8C7065",
"b  c #907262",
"n  c #9E6474",
"m  c #887B78",
"M  c #927C77",
"N  c #AF6A7B",
"B  c #BB6179",
"V  c #A87567",
"C  c #AF7055",
"Z  c #CA6D43",
"A  c #D66F46",
"S  c #CC764D",
"D  c #C37E57",
"F  c #C9647E",
"G  c #C06875",
"H  c #C1717B",
"J  c #DB797F",
"K  c #CE7567",
"L  c #99806F",
"P  c #8E817A",
"I  c #94847E",
"U  c #968174",
"Y  c #AF8668",
"T  c #CA8652",
"R  c #D18658",
"E  c #D5935C",
"W  c #D19863",
"Q  c #DA9C60",
"!  c #CF807A",
"~  c #D68B77",
"^  c #C79579",
"/  c #D49D7E",
"(  c #D89674",
")  c #D09067",
"_  c #CBA077",
"`  c #D1A67C",
"'  c #CE6781",
"]  c #D36983",
"[  c #DA6A87",
"{  c #DE6C89",
"}  c #D36682",
"|  c #DD768D",
" . c #D87B8D",
".. c #DD7C91",
"X. c #CD7885",
"o. c #E76F8E",
"O. c #E86F8F",
"+. c #E4728E",
"@. c #E8708F",
"#. c #E96F90",
"$. c #E47490",
"%. c #E17C92",
"&. c #8F8382",
"*. c #998E8A",
"=. c #9A8881",
"-. c #9C928E",
";. c #A58C86",
":. c #AB9585",
">. c #A9978B",
",. c #A49A95",
"<. c #B79983",
"1. c #BAA38E",
"2. c #B3A391",
"3. c #BDA996",
"4. c #BD9DA1",
"5. c #B4AAA6",
"6. c #BDB4AF",
"7. c #B7B0AD",
"8. c #BAB4B1",
"9. c #ACA6A5",
"0. c #D79E83",
"q. c #C98D90",
"w. c #DB8393",
"e. c #DC8A95",
"r. c #DC8C9A",
"t. c #D58A96",
"y. c #CC9A9B",
"u. c #C89297",
"i. c #DB929D",
"p. c #D79A9C",
"a. c #C7838A",
"s. c #CCA787",
"d. c #D3AB87",
"f. c #D8B28E",
"g. c #C5AD97",
"h. c #D3AB9B",
"j. c #C8B19B",
"k. c #D6B99D",
"l. c #D6B59D",
"z. c #D49EA3",
"x. c #DB9DA3",
"c. c #D896A1",
"v. c #CAA8A8",
"b. c #D2A4A3",
"n. c #D4A4A8",
"m. c #D7AEAD",
"M. c #DFAAAE",
"N. c #D9A4A7",
"B. c #CDBBAC",
"V. c #CAB8A7",
"C. c #DBB9A6",
"Z. c #D7B6A4",
"A. c #DDAFB2",
"S. c #C3BBB5",
"D. c #C9BCB3",
"F. c #C4BDB9",
"G. c #DCB2B2",
"H. c #D6BAB3",
"J. c #DFBCB9",
"K. c #D6BDB8",
"L. c #E3B9AA",
"P. c #E1BEBB",
"I. c #E2B0B3",
"U. c #D5C0AC",
"Y. c #D9C4AC",
"T. c #CEC1B6",
"R. c #DAC5B2",
"E. c #D1C6BA",
"W. c #DBC3BE",
"Q. c #DDCBBC",
"!. c #DAC6B2",
"~. c #E2C2AD",
"^. c #E3C8AF",
"/. c #E4CCB9",
"(. c #E6D0BD",
"). c #EAD4BF",
"_. c #CDC6C0",
"`. c #CFC8C2",
"'. c #CFCAC8",
"]. c #DBC4C3",
"[. c #D4CBC4",
"{. c #DBCDC3",
"}. c #D4CEC8",
"|. c #DCD1C5",
" X c #D6D1CB",
".X c #DCD4CC",
"XX c #DCD7D2",
"oX c #DED9D3",
"OX c #DEDCD9",
"+X c #E1CFC1",
"@X c #E1C9C4",
"#X c #EAD6C4",
"$X c #ECD8C6",
"%X c #E3D4CC",
"&X c #E1D8CC",
"*X c #E9D7C8",
"=X c #E3DCD4",
"-X c #E9DED5",
";X c #E3DED8",
":X c #E3D6D0",
">X c #E7E0D7",
",X c #E3E1DC",
"<X c #ECE6DE",
"1X c #EDE8DF",
"2X c #E8E0D6",
"3X c #E6E5E1",
"4X c #EAE6E0",
"5X c #EDE8E0",
/* pixels */
"[ O.o.o.O.o.o.o.o.#.o.#.o.o.+.o.+.+.O.O.O.O.O.O.o.o.o.O.o.o.O.o.",
"[ @.o.O.o.o.o.O.o.#.o.} l g g f l ' { o.O.O.O.O.O.O.o.O.o.O.O.O.",
"[ O.O.O.o.o.+.O.o.[ k q 6 1 1 1 6 q f } +.O.O.O.o.o.o.O.O.O.o.o.",
"[ O.O.O.o.O.O.O.} d 6 1 1 1 1 1 1 1 1 q k ] O.O.O.o.o.o.O.$.o.o.",
"[ O.o.O.o.o.o.' s , , , > , , , - , , , 1 d ' O.o.o.O.O.o.o.o.O.",
"[ O.o.O.O.o.{ g , - = = = = > = = , - = % , p F o.O.O.O.O.O.o.{ ",
"] O.O.O.O.O.B 6 = % % % = = = % , , , = % # 3 l o.o.O.O.#.$.t.m.",
"[ O.O.O.O.{ s % % % % > w = % % r t &.= % # % j { o.O.O.O.r.XXXX",
"[ O.O.O.O.' * # # 1 9 t U 2 # # c :.1.0 % $ + f o.o.o.o.o.A.,X,X",
"[ O.O.O.O.l @ @ @ t M ;.:.t # # t Y.!.g.6 $ ; h o.o.o.o.| ].,X3X",
"] O.O.O.O.h O O O m g.g.j.:.t >.3.g.1.j.w * F [ o.o.o.o.J j.:XOX",
"[ O.O.o.O.k + O X y 2.2.L 1.(.$XU.U >.3.9 $ z o.o.o.o.J W ( 2XoX",
"[ o.#.o.o.l @   . 5 V.D.c V.$X$XQ.I B.U.x $ s o.o.#.#.K E ` -X<X",
"[ o.o.#.#.' #     & g.+XD.+X$X#X$X|.#XZ.X.d ; ' o.#.o.D T _ %X<X",
"[ o.o.o.o.{ ; O X o I #X#X#X$X#X$X$X*XH.K.z.g s } #.%.~ i ) Q.>X",
"[ o.o.o.o.%.y.7.9.w 9 R.#X#XL.L.l.(.$X|.;X=Xx.z h j N V u C |.>X",
"[ o.o.o.+.G.<X,X<X_.r =.$XY.~ ~ ^ /.Q..X4X3X@X%.{ F n x a D R.=X",
"X.| o.+.r.=X4X4X3XOX7.w :.^.C.h.Z.D.E.oX,X<X,Xi.O.+.r.C.W E C.:X",
"@X@Xx.w.W.<X4X4X<XOXoX7.y L d.f.1.F._.XXOX,X<XG.w...x.{.) Q / %X",
"=X1X<XW.,X3X4X4X;XoX:X,X'.&.v Y <.F. X.X X,X<X,X:Xb.{. X/ R R /.",
"-X1X5X,X=X4X<X4XoX'.=X=X3X=X5.v 0 m 5.}. X,X4X4X<X}. X,XZ.Z A L.",
"&X1X<X<XE.oX4X4X[._.2XOX1X<XT.0 5 4 m .X.X3X4X4X=XT.`.,XS.S i ( ",
"=X1X<X1X%XB..XXX_.oX,XoX<XXXe 9 P ,.S.D. X4X4X<X|.Y.E.&XT.D i Z ",
"-X1X1X1X<XB.F.6. XOX<X2X2X,.: y ,.*.P -.6.,X4X.Xk.s.^.Q. Xs.i S ",
"{.<X1X1X<XD.v.u..XoX5X5X<X5.*.-.m :X,X;X;.K.&XB.` ` k.Y..X.X^ S ",
" X2X1X1X1Xm.| ..W.=X5X5X<X5X<X=XI S.5X-Xt...h.l.d._ ^ j.oX3X%Xd.",
"=X2X<X<X5XA.+.+.b.,X1X<X5X5X5X-XE.[.5X%X..o.e.).^.f.j.+X[.-X2X[.",
"=X<X<X<X3XM.O.+.p.>X1X1X5X<X5X-X>X1X4XJ.$.#.$.L.).Y.h.i.w.c.n.oX",
"=X5X1X1X<Xx.#.#.c.<X<X<X5X<X<X<X1X1X<XN.@.@.@.%.p.r.o.o.O.+.w.oX",
"=X5X<X5X-Xe.@.@.p.<X1X1X<X5X<X5X1X1X-Xp.+.O.@.O.o.o.o.#.O.O.r.;X",
"-X<X<X5XW.+.+.%.J.<X5X5X5X5X5X<X5X<X|.R...@.#.O.#.#.#.o.o...v.3X",
"=X5X<X%Xe.@.@.x.<X:X-XoX-X<X<X5X5X-X|.-XP.r.o.#.#.#.o.o.o.w.'. X",
"{.%XJ.w.O.O.+.M.<X:X[.oX=X.X<X5X5X,X<X<X<X*Xx.+.@.@.@.@.| n.OXOX",
"^ w.+.$.O.+.e.%X5X=XR.y.a.u.%X<X>X<X1X=X&X>X-XN.+.@.O.@.c.OXOXOX",
"] O.$.O.O.+.J.1X5XoXv.H B q.U.Q.:X<X<X2X<X&X1X-Xx.+.@...'.OXOX,X",
"[ O.O.O.O.i.-X5X5X=XW.m.h.H.oX,X1X<X<X:X=X.X1X1X*Xr.+.i.OX,X,X,X",
"[ +.O.O.+.G.1X<X<X<XoX|.{.{.<X<X<X<X>X[. X-X<X<X5X@X%.z.;XOX3XOX"
};
